<?xml version="1.0" encoding="utf-8"?>
<!-- Generator: Adobe Illustrator 16.0.0, SVG Export Plug-In . SVG Version: 6.00 Build 0)  -->
<!DOCTYPE svg PUBLIC "-//W3C//DTD SVG 1.1//EN" "http://www.w3.org/Graphics/SVG/1.1/DTD/svg11.dtd">
<svg version="1.1" id="Layer_1" xmlns="http://www.w3.org/2000/svg" xmlns:xlink="http://www.w3.org/1999/xlink" x="0px" y="0px"
	 width="120px" height="80px" viewBox="0 0 120 80" enable-background="new 0 0 120 80" xml:space="preserve">
<g>
	
		<circle fill="none" stroke="#FFFFFF" stroke-width="2.5" stroke-linecap="round" stroke-miterlimit="10" cx="60" cy="39.999" r="34.089"/>
	<path fill="none" stroke="#FFFFFF" stroke-width="2.5" stroke-linecap="round" stroke-miterlimit="10" d="M38.517,13.803
		c1.205,0.219,6.138,0.658,4.494,3.727c-1.646,3.068-2.413,5.042,0.438,5.37s5.591-4.493,7.234-4.493s6.687-0.877,6.905,3.398
		c0.22,4.274-3.398,5.59-7.782,5.59s-2.96,3.178-2.849,4.713c0.109,1.534,1.095,5.809-1.975,4.493
		c-3.068-1.314-4.385-6.466-7.562-5.261c-3.179,1.206-1.626,6.183,0,8.111c3.361,3.982,9.279,2.229,12.788,6.248
		c2.118,2.426,1.899,7.526-1.827,8.77c-2.303,0.767-0.073,8.328-2.85,9.534c-1.509,0.657-3.727-1.095-4.604-6.028
		c-0.875-4.932-3.62-3.888-6.465-8.768c-1.535-2.631-2.631-6.797-3.289-10.523c-0.658-3.727-3.727-7.453-3.727-7.453"/>
	<path fill="none" stroke="#FFFFFF" stroke-width="2.5" stroke-linecap="round" stroke-miterlimit="10" d="M73.373,30.353
		c-4.301-1.194-12.168,0.438-13.482,5.153c-1.316,4.713-0.658,9.645,4.494,9.207c5.15-0.439,8.55,3.398,8.111,7.891
		c-0.438,4.495,3.18,10.852,7.562,6.139c4.385-4.713,4.057-11.947,3.508-17.317C83.019,36.053,77.318,31.449,73.373,30.353z"/>
	<path fill="none" stroke="#FFFFFF" stroke-width="2.5" stroke-linecap="round" stroke-miterlimit="10" d="M80.934,13.364
		c-2.519-1.315-11.178-0.987-13.699-0.767c-2.521,0.219-2.85,2.958,0,4.712c2.85,1.755-1.096,4.275,0.877,5.919
		c1.973,1.644,6.248,2.522,8.111-0.985s5.041-2.521,6.796,0.657c1.753,3.179,0.213,5.102,1.424,6.796
		c1.644,2.303,4.604,2.521,8.002,0.768"/>
</g>
</svg>
