<?xml version="1.0" encoding="utf-8"?>
<!-- Generator: Adobe Illustrator 16.0.0, SVG Export Plug-In . SVG Version: 6.00 Build 0)  -->
<!DOCTYPE svg PUBLIC "-//W3C//DTD SVG 1.1//EN" "http://www.w3.org/Graphics/SVG/1.1/DTD/svg11.dtd">
<svg version="1.1" id="Layer_1" xmlns="http://www.w3.org/2000/svg" xmlns:xlink="http://www.w3.org/1999/xlink" x="0px" y="0px"
	 width="120px" height="80px" viewBox="0 0 120 80" enable-background="new 0 0 120 80" xml:space="preserve">
<path fill="none" stroke="#FFFFFF" stroke-width="2.5" stroke-linecap="round" stroke-miterlimit="10" d="M34.132,13.499
	C27.241,20.225,22.959,29.61,22.959,40c0,20.458,16.583,37.041,37.041,37.041c7.385,0,14.259-2.169,20.036-5.893"/>
<path fill="none" stroke="#FFFFFF" stroke-width="2.5" stroke-linecap="round" stroke-miterlimit="10" d="M84.885,67.437
	C92.352,60.66,97.041,50.878,97.041,40C97.041,19.542,80.458,2.958,60,2.958c-7.873,0-15.167,2.463-21.167,6.651"/>
<circle fill="none" stroke="#FFFFFF" stroke-width="2.5" stroke-linecap="round" stroke-miterlimit="10" cx="60" cy="40" r="24.686"/>
<path fill="none" stroke="#FFFFFF" stroke-width="2.5" stroke-linecap="round" stroke-miterlimit="10" d="M44.442,21.029
	c0.873,0.159,4.445,0.477,3.254,2.699c-1.191,2.222-1.747,3.65,0.318,3.889c2.063,0.238,4.048-3.254,5.238-3.254
	s4.842-0.635,5.001,2.461c0.158,3.095-2.461,4.048-5.636,4.048s-2.144,2.302-2.063,3.413c0.079,1.111,0.793,4.207-1.429,3.254
	c-2.222-0.952-3.175-4.683-5.477-3.81s-1.178,4.478,0,5.874c2.435,2.883,6.721,1.613,9.261,4.524c1.533,1.756,1.376,5.45-1.323,6.35
	c-1.667,0.556-0.052,6.032-2.063,6.905c-1.092,0.475-2.699-0.793-3.334-4.365c-0.635-3.572-2.622-2.816-4.683-6.35
	c-1.111-1.905-1.905-4.922-2.382-7.62c-0.476-2.699-2.698-5.397-2.698-5.397"/>
<path fill="none" stroke="#FFFFFF" stroke-width="2.5" stroke-linecap="round" stroke-miterlimit="10" d="M69.684,33.015
	c-3.113-0.865-8.811,0.317-9.763,3.731c-0.953,3.413-0.477,6.984,3.254,6.667s6.191,2.461,5.874,5.715
	c-0.317,3.255,2.302,7.858,5.477,4.445s2.938-8.652,2.54-12.541C76.669,37.143,72.541,33.809,69.684,33.015z"/>
<path fill="none" stroke="#FFFFFF" stroke-width="2.5" stroke-linecap="round" stroke-miterlimit="10" d="M75.16,20.712
	c-1.825-0.952-8.096-0.715-9.922-0.556c-1.825,0.159-2.063,2.143,0,3.413c2.064,1.271-0.793,3.096,0.636,4.286
	s4.524,1.826,5.873-0.714c1.35-2.54,3.651-1.826,4.922,0.476c1.27,2.302,0.155,3.695,1.031,4.922
	c1.19,1.667,3.334,1.825,5.795,0.556"/>
<path fill="#FFFFFF" d="M34.298,17.294c0.343,0.344,0.75,0.168,0.751-0.227V13.16l0,0.001c0-0.31-0.25-0.56-0.559-0.56h-3.907
	c-0.396,0-0.571,0.408-0.227,0.751L34.298,17.294z"/>
<path fill="#FFFFFF" d="M84.756,63.617c-0.344-0.344-0.75-0.168-0.751,0.228v3.907h0.001c0,0.31,0.249,0.559,0.559,0.56h3.907
	c0.396-0.001,0.571-0.407,0.228-0.751L84.756,63.617z"/>
</svg>
