<?xml version="1.0" encoding="utf-8"?>
<!-- Generator: Adobe Illustrator 16.0.0, SVG Export Plug-In . SVG Version: 6.00 Build 0)  -->
<!DOCTYPE svg PUBLIC "-//W3C//DTD SVG 1.1//EN" "http://www.w3.org/Graphics/SVG/1.1/DTD/svg11.dtd">
<svg version="1.1" id="Layer_1" xmlns="http://www.w3.org/2000/svg" xmlns:xlink="http://www.w3.org/1999/xlink" x="0px" y="0px"
	 width="120px" height="80px" viewBox="0 0 120 80" enable-background="new 0 0 120 80" xml:space="preserve">
<g>
	
		<rect x="19.152" y="7.684" fill="none" stroke="#FFFFFF" stroke-width="2.5" stroke-linecap="round" stroke-linejoin="round" stroke-miterlimit="10" width="81.696" height="52.295"/>
	
		<line fill="none" stroke="#FFFFFF" stroke-width="2.5" stroke-linecap="round" stroke-linejoin="round" stroke-miterlimit="10" x1="19.152" y1="5.366" x2="19.152" y2="74.634"/>
	
		<line fill="none" stroke="#FFFFFF" stroke-width="2.5" stroke-linecap="round" stroke-linejoin="round" stroke-miterlimit="10" x1="84.855" y1="59.979" x2="84.855" y2="7.684"/>
	
		<line fill="none" stroke="#FFFFFF" stroke-width="2.5" stroke-linecap="round" stroke-linejoin="round" stroke-miterlimit="10" x1="35.638" y1="59.979" x2="35.638" y2="7.684"/>
	<g>
		
			<polygon fill="none" stroke="#FFFFFF" stroke-width="2.5" stroke-linecap="round" stroke-linejoin="round" stroke-miterlimit="10" points="
			59.887,45.652 50.632,46.286 50.937,43.114 42.761,37.789 45.205,35.685 42.685,30.807 47.994,30.592 48.198,27.187 
			54.068,30.634 53.078,21.693 56.566,22.536 59.887,17.413 63.208,22.536 66.696,21.693 65.707,30.634 71.576,27.187 71.78,30.592 
			77.089,30.807 74.569,35.685 77.014,37.789 68.838,43.114 69.143,46.286 		"/>
		
			<line fill="none" stroke="#FFFFFF" stroke-width="2.5" stroke-linecap="round" stroke-linejoin="round" stroke-miterlimit="10" x1="59.887" y1="50.384" x2="59.887" y2="45.652"/>
	</g>
</g>
</svg>
