<?xml version="1.0" encoding="utf-8"?>
<!-- Generator: Adobe Illustrator 18.0.0, SVG Export Plug-In . SVG Version: 6.00 Build 0)  -->
<!DOCTYPE svg PUBLIC "-//W3C//DTD SVG 1.1//EN" "http://www.w3.org/Graphics/SVG/1.1/DTD/svg11.dtd">
<svg version="1.1" id="Layer_1" xmlns="http://www.w3.org/2000/svg" xmlns:xlink="http://www.w3.org/1999/xlink" x="0px" y="0px"
	 viewBox="0 0 120 80" enable-background="new 0 0 120 80" xml:space="preserve">
<path fill="#FFFFFF" d="M64.7,21.2c0.4,0,0.8-0.2,1.1-0.5c0.3-0.3,0.5-0.7,0.5-1.1c0-0.4-0.2-0.8-0.5-1.1c-0.6-0.6-1.6-0.6-2.2,0
	c-0.3,0.3-0.5,0.7-0.5,1.1c0,0.4,0.2,0.8,0.5,1.1C63.9,21.1,64.3,21.2,64.7,21.2z"/>
<path fill="#FFFFFF" d="M68,24.6c0.4,0,0.8-0.2,1.1-0.5s0.5-0.7,0.5-1.1c0-0.4-0.2-0.8-0.5-1.1c-0.6-0.6-1.6-0.6-2.2,0
	c-0.3,0.3-0.5,0.7-0.5,1.1c0,0.4,0.2,0.8,0.5,1.1S67.6,24.6,68,24.6z"/>
<path fill="#FFFFFF" d="M63,26.3c0.4,0,0.8-0.2,1.1-0.5c0.3-0.3,0.5-0.7,0.5-1.1c0-0.4-0.2-0.8-0.5-1.1c-0.6-0.6-1.6-0.6-2.2,0
	c-0.3,0.3-0.5,0.7-0.5,1.1c0,0.4,0.2,0.8,0.5,1.1C62.2,26.1,62.6,26.3,63,26.3z"/>
<path fill="#FFFFFF" d="M64.8,28c0,0.4,0.2,0.8,0.5,1.1c0.3,0.3,0.7,0.5,1.1,0.5c0.4,0,0.8-0.2,1.1-0.5c0.3-0.3,0.5-0.7,0.5-1.1
	c0-0.4-0.2-0.8-0.5-1.1c-0.6-0.6-1.6-0.6-2.2,0C64.9,27.2,64.8,27.6,64.8,28z"/>
<path fill="#FFFFFF" d="M71.4,28.8c0.4,0,0.8-0.2,1.1-0.5c0.3-0.3,0.5-0.7,0.5-1.1c0-0.4-0.2-0.8-0.5-1.1c-0.6-0.6-1.6-0.6-2.2,0
	c-0.3,0.3-0.5,0.7-0.5,1.1c0,0.4,0.2,0.8,0.5,1.1C70.6,28.6,71,28.8,71.4,28.8z"/>
<path fill="#FFFFFF" d="M34.9,14.6c-12.7,4.7-16,17-16.1,17.5c-0.2,0.8,0.3,1.7,1.1,1.9c0.1,0,0.3,0.1,0.4,0.1
	c0.7,0,1.3-0.5,1.5-1.2c0-0.1,3.1-11.3,14.1-15.3c0.8-0.3,1.2-1.2,0.9-2C36.6,14.7,35.7,14.3,34.9,14.6z"/>
<path fill="#FFFFFF" d="M39.5,16.3c0.4,0,0.8-0.2,1.1-0.5c0.3-0.3,0.5-0.7,0.5-1.1c0-0.4-0.2-0.8-0.5-1.1c-0.6-0.6-1.6-0.6-2.2,0
	c-0.3,0.3-0.5,0.7-0.5,1.1c0,0.4,0.2,0.8,0.5,1.1C38.7,16.1,39.1,16.3,39.5,16.3z"/>
<path fill="#FFFFFF" d="M111.2,50.8c-0.2-0.4-0.6-0.7-1.1-0.8c-0.1,0-6.7-0.6-14.4-1.7c-0.2,0-0.4-0.1-0.6-0.1
	c1-1.3,1.9-2.7,2.6-4.1c0.2-0.4,0.2-0.9-0.1-1.3c-0.3-0.4-0.7-0.6-1.2-0.6c-0.1,0-4.9,0.2-10.7,0.2c-0.1,0-0.3,0-0.4,0
	c-1.3,0-2.7,0.1-4.1,0.1c0,0,0,0,0,0c2.7-0.4,4.9-2.7,4.9-5.6s-2.1-5.2-4.9-5.6c-3-14.1-17.4-24.6-34-24.6c-16.6,0-31,10.5-34,24.6
	c-2.6,0.5-4.6,2.8-4.6,5.5c0,2.8,2,5.1,4.6,5.5c3,14.1,17.4,24.6,34,24.6v0c1.8,0,3.7-0.1,5.4-0.4c4,1.9,9.7,3,16.7,3c0,0,0,0,0,0
	c3.4,0,6.9-0.3,10.5-0.8c19.8-2.8,28.4-12.8,31.3-16.9C111.4,51.7,111.4,51.3,111.2,50.8z M85.5,45.2c3.5,0,6.7-0.1,8.7-0.1
	c-0.6,1-1.4,2-2.3,2.9c-2.3-0.2-5.2-0.4-8.4-0.4c-6.9,0-16.9,0.7-25,4.3c-0.3,0.1-0.6,0.3-0.9,0.4c0.5-0.3,0.9-0.6,1.4-0.9
	C66.1,47.1,77.4,45.2,85.5,45.2z M47.3,64.1L47.3,64.1c-15.6,0-29-10-31.1-23.3c-0.1-0.8-0.8-1.3-1.6-1.3c0,0-0.1,0-0.1,0
	c-0.1,0-0.1,0-0.2,0c-1.4,0-2.5-1.1-2.5-2.5c0-1.4,1.1-2.5,2.5-2.5c0,0,0,0,0,0l0.2,0c0.8,0.1,1.6-0.5,1.7-1.3
	c2.2-13.3,15.5-23.3,31.1-23.3c15.6,0,29,10,31.1,23.3c0.1,0.8,1,1.4,1.9,1.3c0.1,0,0.1,0,0.2,0c1.4,0,2.5,1.1,2.5,2.5
	s-1.1,2.5-2.5,2.5c-0.1,0-0.2,0-0.2,0c-0.8-0.1-1.7,0.4-1.9,1.3c-0.1,0.7-0.3,1.4-0.5,2.1c-6.8,0.8-14.6,2.6-20.3,6.1
	c-6.5,4-8.2,6.8-8.7,8c-0.9,0.7-1.5,1.3-1.8,1.9c-5.2-0.3-6.8-0.9-7.2-1.1c-0.7-0.3-1.5,0-1.7,0.7c-0.3,0.7,0,1.5,0.7,1.7
	c1.6,0.7,5.2,1.1,8.1,1.3c0.3,0.9,0.8,1.7,1.5,2.4C48.2,64.1,47.8,64.1,47.3,64.1z M79.5,66.4c-3.4,0.5-6.8,0.7-10.1,0.7
	c0,0,0,0,0,0c-10.6,0-18.4-2.6-19.8-6.4c1.8,0.1,3.8,0.1,6,0.1c12.6,0,31.8-1.4,47.7-6.7c0.2-0.1,0.3-0.2,0.2-0.4
	c-0.1-0.2-0.2-0.3-0.4-0.2c-18.7,6.2-41.9,7.1-53.5,6.6c0.6-0.8,2.8-2.7,9.9-5.8c7.7-3.4,17.3-4.1,24-4.1c5.2,0,9.3,0.4,11.8,0.8
	c5,0.7,9.5,1.2,12.2,1.5C103.9,56.9,95.7,64.1,79.5,66.4z"/>
</svg>
