<svg width="35" height="45" xmlns="http://www.w3.org/2000/svg"><g fill="#C19E57" fill-rule="evenodd"><path d="M7.267 16.694c.796 0 1.44.86 1.44 1.92 0 1.061-.644 1.921-1.44 1.921-.796 0-1.44-.86-1.44-1.92s.644-1.92 1.44-1.92M27.32 16.694c.796 0 1.44.86 1.44 1.92 0 1.061-.644 1.921-1.44 1.921-.795 0-1.44-.86-1.44-1.92s.645-1.92 1.44-1.92M9.194 23.372c.796 0 1.44.86 1.44 1.921s-.644 1.92-1.44 1.92c-.796 0-1.44-.859-1.44-1.92 0-1.06.644-1.92 1.44-1.92M26.367 23.372c.795 0 1.44.86 1.44 1.921s-.645 1.92-1.44 1.92c-.796 0-1.44-.859-1.44-1.92 0-1.06.644-1.92 1.44-1.92M13.01 29.097c.796 0 1.44.86 1.44 1.92s-.644 1.921-1.44 1.921c-.795 0-1.44-.86-1.44-1.92 0-1.061.645-1.921 1.44-1.921M22.55 29.097c.796 0 1.44.86 1.44 1.92s-.644 1.921-1.44 1.921c-.795 0-1.44-.86-1.44-1.92 0-1.061.645-1.921 1.44-1.921M17.762 32.913c.795 0 1.44.86 1.44 1.92 0 1.061-.645 1.921-1.44 1.921-.796 0-1.44-.86-1.44-1.92s.644-1.921 1.44-1.921M17.762 24.352c.795 0 1.44.86 1.44 1.92s-.645 1.921-1.44 1.921c-.796 0-1.44-.86-1.44-1.92 0-1.061.644-1.921 1.44-1.921M13.964 17.648c.796 0 1.44.86 1.44 1.921 0 1.06-.644 1.92-1.44 1.92-.796 0-1.44-.86-1.44-1.92s.644-1.921 1.44-1.921M20.642 17.648c.796 0 1.44.86 1.44 1.921 0 1.06-.644 1.92-1.44 1.92-.795 0-1.44-.86-1.44-1.92s.645-1.921 1.44-1.921"/><path d="M28.863 1.28c-3.583-.652-6.482-.113-8.655 1.583-.845.66-1.525 1.467-2.096 2.431l-.186.327-.436.797-.44-.795c-.622-1.125-1.373-2.05-2.33-2.79C12.544 1.16 9.67.63 6.143 1.283a.93.93 0 00-.76.841c-.204 2.554.482 4.598 2.037 6.115l.09.082.396.313.73.598-.904.269C3.669 10.707.746 14.258.618 18.214l-.004.27v3.375c0 9.88 8.363 22.04 16.683 22.04 8.231 0 16.505-11.904 16.68-21.724l.003-.316v-3.375c0-3.952-2.648-7.448-6.543-8.81l-.274-.092-.894-.286 1.157-.912c.063-.053.112-.096.163-.146 1.554-1.517 2.24-3.561 2.035-6.115a.934.934 0 00-.76-.843zm-18.2 9.654h3.992c.533.04 1.024.06 1.428.06.541 0 1.003-.022 1.462-.053a16 16 0 001.066.05l.316.002c.322 0 .701-.013 1.131-.038l.333-.021h3.538c4.422 0 8.05 3.25 8.185 7.315l.004.235v3.375c0 8.7-7.55 20.177-14.82 20.177-7.19 0-14.653-11.22-14.82-19.882l-.002-.295v-3.375c0-4.03 3.613-7.42 7.938-7.547l.25-.003zm2.67-6.808l.229.167c1.243.952 2.068 2.29 2.574 3.826l.097.31.191.642-1.788-.001c-2.488-.192-4.566-.846-5.921-2.17-.845-.83-1.33-1.876-1.465-3.153l-.024-.277-.031-.482.48-.048c2.165-.216 3.977.12 5.41 1.021l.248.165zm12.745-1.25c.27 0 .548.01.83.03l.426.036.48.049-.032.481c-.091 1.404-.583 2.543-1.489 3.428-1.29 1.262-3.24 1.915-5.604 2.14l-.358.031h-1.757l.183-.637c.474-1.653 1.307-3.103 2.617-4.118 1.238-.96 2.819-1.44 4.704-1.44z" fill-rule="nonzero"/></g></svg>