<svg width="33" height="41" xmlns="http://www.w3.org/2000/svg"><g fill="#C19E57" fill-rule="evenodd"><path d="M6.575 39.261h19.761l2.671-14.522H3.904l2.67 14.522zM27.137 41H5.863c-.446 0-.802-.26-.89-.696l-2.938-16.26c-.09-.261 0-.522.178-.696.177-.174.445-.348.712-.348h27.15c.267 0 .535.087.712.348.178.174.267.435.178.695l-3.026 16.261c0 .435-.356.696-.802.696z"/><path d="M2.767 24c-.258 0-.518-.087-.691-.35C.778 21.903 0 19.89 0 17.706 0 12.371 4.324 8 9.6 8c2.769 0 5.364 1.224 7.18 3.235.346.35.259.874-.086 1.224-.347.35-.865.263-1.211-.088-1.47-1.66-3.634-2.622-5.882-2.622-4.325 0-7.87 3.585-7.87 7.956 0 1.836.604 3.497 1.642 4.896.26.35.26.962-.172 1.224 0 .088-.26.175-.434.175"/><path d="M16.996 24c-.257 0-.514-.086-.686-.258-1.455-1.72-2.31-3.957-2.31-6.194C14 12.301 18.279 8 23.5 8c5.22 0 9.5 4.3 9.5 9.548 0 2.151-.685 4.13-1.969 5.85-.256.344-.856.43-1.197.172-.343-.258-.428-.86-.172-1.204 1.113-1.377 1.627-3.01 1.627-4.818 0-4.3-3.51-7.828-7.79-7.828-4.278 0-7.788 3.527-7.788 7.828a7.74 7.74 0 001.883 5.076c.343.344.257.86-.085 1.204-.085.086-.343.172-.513.172"/><path d="M27 9h-1.712c0-4.054-3.509-7.379-7.788-7.379-4.28 0-7.789 3.325-7.789 7.379H8c0-4.946 4.28-9 9.5-9S27 4.054 27 9"/></g></svg>