<?xml version="1.0" encoding="utf-8"?>
<!-- Generator: Adobe Illustrator 16.0.0, SVG Export Plug-In . SVG Version: 6.00 Build 0)  -->
<!DOCTYPE svg PUBLIC "-//W3C//DTD SVG 1.1//EN" "http://www.w3.org/Graphics/SVG/1.1/DTD/svg11.dtd">
<svg version="1.1" id="Layer_1" xmlns="http://www.w3.org/2000/svg" xmlns:xlink="http://www.w3.org/1999/xlink" x="0px" y="0px"
	 width="120px" height="80px" viewBox="0 0 120 80" enable-background="new 0 0 120 80" xml:space="preserve">
<g>
	<path fill="none" stroke="#FFFFFF" stroke-width="2.5" stroke-linecap="round" stroke-linejoin="round" stroke-miterlimit="10" d="
		M60,77.882c0.719,0,4.403-8.267,8.178-23.812c2.23-9.191,2.694-15.993,2.694-22.643c0-6.649-4.133-9.885-10.873-9.885
		c-6.739,0-10.873,3.235-10.873,9.885c0,6.65,0.464,13.451,2.695,22.643C55.596,69.615,59.28,77.882,60,77.882z"/>
	
		<line fill="none" stroke="#FFFFFF" stroke-width="2.5" stroke-linecap="round" stroke-linejoin="round" stroke-miterlimit="10" x1="49.847" y1="43.377" x2="60.18" y2="43.377"/>
	
		<line fill="none" stroke="#FFFFFF" stroke-width="2.5" stroke-linecap="round" stroke-linejoin="round" stroke-miterlimit="10" x1="60" y1="33.762" x2="70.693" y2="33.762"/>
	
		<line fill="none" stroke="#FFFFFF" stroke-width="2.5" stroke-linecap="round" stroke-linejoin="round" stroke-miterlimit="10" x1="59.91" y1="53.352" x2="68.268" y2="53.352"/>
	
		<line fill="none" stroke="#FFFFFF" stroke-width="2.5" stroke-linecap="round" stroke-linejoin="round" stroke-miterlimit="10" x1="60" y1="62.966" x2="54.519" y2="62.966"/>
	<path fill="none" stroke="#FFFFFF" stroke-width="2.5" stroke-linecap="round" stroke-linejoin="round" stroke-miterlimit="10" d="
		M60,21.542c0,0,0-12.849,0-15.994c0-3.145,4.942-5.392,7.189-0.899"/>
	<path fill="none" stroke="#FFFFFF" stroke-width="2.5" stroke-linecap="round" stroke-linejoin="round" stroke-miterlimit="10" d="
		M60,18.487c0-3.504,2.606-6.2,5.572-6.56c2.965-0.36,4.224-0.718,4.224-2.336c0,1.707,1.779,2.652,3.504,1.976
		c2.066-0.808,2.066-7.008-3.685-7.008c-5.75,0-9.615,4.942-9.615,8.356"/>
	<path fill="none" stroke="#FFFFFF" stroke-width="2.5" stroke-linecap="round" stroke-linejoin="round" stroke-miterlimit="10" d="
		M60,5.548c0-3.145-4.942-5.392-7.189-0.899"/>
	<path fill="none" stroke="#FFFFFF" stroke-width="2.5" stroke-linecap="round" stroke-linejoin="round" stroke-miterlimit="10" d="
		M60,18.487c0-3.504-2.606-6.2-5.571-6.56s-4.224-0.718-4.224-2.336c0,1.707-1.779,2.652-3.504,1.976
		c-2.066-0.808-2.066-7.008,3.685-7.008S60,9.501,60,12.916"/>
</g>
</svg>
