<svg width="40" height="40" xmlns="http://www.w3.org/2000/svg" xmlns:xlink="http://www.w3.org/1999/xlink"><defs><path id="a" d="M0 .056h23.944V24H0z"/></defs><g fill="none" fill-rule="evenodd"><g transform="translate(8 8.046)"><mask id="b" fill="#fff"><use xlink:href="#a"/></mask><path d="M21.535 16.867a4.723 4.723 0 01-4.724 4.724H7.133a4.723 4.723 0 01-4.724-4.724V7.19a4.723 4.723 0 014.724-4.724h9.678a4.723 4.723 0 014.724 4.724v9.678-.001zM16.811.056H7.133C3.2.056 0 3.256 0 7.189v9.678C0 20.8 3.2 24 7.133 24h9.678c3.933 0 7.133-3.2 7.133-7.133V7.189c0-3.933-3.2-7.133-7.133-7.133z" fill="#F9F9F9" fill-rule="nonzero" mask="url(#b)"/></g><path d="M19.972 23.858a3.784 3.784 0 110-7.568 3.784 3.784 0 010 7.568m0-9.977a6.2 6.2 0 00-6.193 6.193 6.2 6.2 0 006.193 6.193 6.2 6.2 0 006.193-6.193 6.2 6.2 0 00-6.193-6.193m7.688.047a1.483 1.483 0 11-2.967.001 1.483 1.483 0 012.967-.001" fill="#F9F9F9" fill-rule="nonzero"/></g></svg>