<?xml version="1.0" encoding="utf-8"?>
<!-- Generator: Adobe Illustrator 15.0.0, SVG Export Plug-In . SVG Version: 6.00 Build 0)  -->
<!DOCTYPE svg PUBLIC "-//W3C//DTD SVG 1.1//EN" "http://www.w3.org/Graphics/SVG/1.1/DTD/svg11.dtd">
<svg version="1.1" id="Layer_1" xmlns="http://www.w3.org/2000/svg" xmlns:xlink="http://www.w3.org/1999/xlink" x="0px" y="0px"
	 width="120px" height="80px" viewBox="0 0 120 80" enable-background="new 0 0 120 80" xml:space="preserve">
<g>
	<path fill="#FFFFFF" d="M7.426,58.488h9.327V25.533H9.664v-1.866c1.617-0.29,3.057-0.642,4.322-1.057
		c1.264-0.414,2.373-0.891,3.327-1.43h2.238v37.308h8.643v2.426H7.426V58.488z"/>
	<path fill="#FFFFFF" d="M29.872,59.172c3.274-3.315,6.135-6.289,8.581-8.922c2.445-2.633,4.487-5.037,6.125-7.213
		c1.637-2.177,2.86-4.187,3.669-6.032c0.808-1.844,1.212-3.638,1.212-5.379c0-2.487-0.695-4.58-2.083-6.28
		c-1.39-1.7-3.576-2.55-6.56-2.55c-1.825,0-3.524,0.498-5.099,1.493c-1.576,0.995-2.964,2.238-4.167,3.73l-1.803-1.741
		c1.493-1.658,3.14-3.047,4.943-4.166c1.803-1.12,3.927-1.679,6.374-1.679c3.565,0,6.321,1.017,8.27,3.047
		c1.948,2.032,2.922,4.726,2.922,8.083c0,1.99-0.435,3.97-1.306,5.938c-0.871,1.969-2.094,4.042-3.668,6.218
		c-1.576,2.176-3.493,4.498-5.752,6.965c-2.26,2.467-4.757,5.15-7.493,8.052c1.078-0.083,2.186-0.155,3.327-0.218
		c1.14-0.062,2.249-0.094,3.327-0.094h13.555v2.488H29.872V59.172z"/>
	<path fill="#FFFFFF" d="M55.614,54.385c0.58,0.621,1.222,1.223,1.927,1.803c0.705,0.582,1.493,1.1,2.363,1.555
		c0.871,0.457,1.844,0.819,2.923,1.088c1.077,0.271,2.3,0.404,3.669,0.404c1.326,0,2.59-0.258,3.793-0.777
		c1.201-0.518,2.248-1.243,3.14-2.176s1.606-2.053,2.146-3.357c0.538-1.307,0.809-2.768,0.809-4.385
		c0-3.232-0.871-5.751-2.612-7.555c-1.741-1.803-4.104-2.705-7.089-2.705c-1.533,0-2.85,0.239-3.947,0.715
		c-1.1,0.477-2.25,1.13-3.452,1.958l-1.928-1.181l1.43-18.592h18.344v2.425H61.272l-1.244,14.364
		c1.036-0.622,2.114-1.129,3.233-1.523c1.119-0.394,2.404-0.591,3.855-0.591c1.658,0,3.233,0.249,4.727,0.746
		c1.492,0.498,2.775,1.254,3.854,2.27c1.077,1.016,1.938,2.323,2.581,3.917c0.642,1.597,0.963,3.472,0.963,5.628
		c0,2.113-0.363,3.99-1.088,5.627c-0.726,1.638-1.679,3.025-2.86,4.166c-1.181,1.141-2.528,2-4.042,2.58s-3.078,0.871-4.694,0.871
		c-1.575,0-2.995-0.156-4.259-0.467c-1.266-0.311-2.405-0.725-3.42-1.244c-1.016-0.518-1.918-1.098-2.705-1.74
		c-0.788-0.643-1.493-1.275-2.114-1.896L55.614,54.385z"/>
</g>
<g>
	<path fill="#FFFFFF" d="M84.193,64.93c0.193,0.049,0.377,0.072,0.551,0.072c0.812,0,1.474-0.285,1.986-0.855
		c0.512-0.57,0.914-1.29,1.203-2.16l0.319-1.044l-5.655-14.123h2.465l2.871,7.802c0.213,0.619,0.439,1.271,0.682,1.957
		c0.242,0.687,0.469,1.358,0.682,2.016h0.116c0.212-0.639,0.415-1.305,0.608-2.001s0.387-1.353,0.58-1.972l2.523-7.802h2.32
		l-5.307,15.255c-0.252,0.695-0.533,1.343-0.842,1.942c-0.31,0.599-0.677,1.116-1.102,1.552c-0.426,0.435-0.909,0.777-1.45,1.029
		c-0.542,0.251-1.17,0.377-1.886,0.377c-0.328,0-0.628-0.024-0.898-0.072c-0.271-0.049-0.521-0.121-0.754-0.218l0.464-1.885
		C83.826,64.838,84,64.881,84.193,64.93z"/>
	<path fill="#FFFFFF" d="M96.721,46.819h1.973l0.203,2.552h0.086c0.483-0.889,1.068-1.595,1.755-2.117
		c0.687-0.521,1.436-0.782,2.247-0.782c0.561,0,1.063,0.097,1.508,0.29l-0.463,2.088c-0.232-0.077-0.445-0.135-0.639-0.174
		s-0.436-0.059-0.725-0.059c-0.6,0-1.223,0.242-1.871,0.726c-0.647,0.483-1.213,1.324-1.696,2.522v9.049h-2.378V46.819z"/>
	<path fill="#FFFFFF" d="M104.957,57.724c0.618,0.503,1.251,0.909,1.898,1.218c0.648,0.31,1.396,0.465,2.248,0.465
		c0.928,0,1.624-0.213,2.088-0.639c0.465-0.425,0.696-0.947,0.696-1.566c0-0.367-0.097-0.686-0.29-0.957
		c-0.193-0.27-0.439-0.507-0.74-0.71c-0.299-0.203-0.643-0.382-1.029-0.536s-0.773-0.31-1.16-0.465
		c-0.502-0.174-1.005-0.371-1.508-0.594c-0.502-0.223-0.952-0.493-1.348-0.812c-0.396-0.318-0.721-0.691-0.973-1.116
		c-0.251-0.425-0.377-0.938-0.377-1.537c0-0.561,0.111-1.087,0.334-1.581c0.223-0.492,0.541-0.918,0.957-1.275
		s0.924-0.639,1.522-0.842c0.599-0.202,1.276-0.304,2.03-0.304c0.889,0,1.706,0.155,2.45,0.464c0.744,0.31,1.388,0.687,1.929,1.131
		l-1.131,1.508c-0.483-0.367-0.986-0.666-1.508-0.898c-0.522-0.232-1.093-0.348-1.711-0.348c-0.89,0-1.543,0.203-1.958,0.608
		c-0.416,0.406-0.624,0.88-0.624,1.421c0,0.329,0.088,0.614,0.262,0.855c0.174,0.242,0.406,0.455,0.695,0.639
		c0.291,0.184,0.624,0.348,1.001,0.492c0.377,0.146,0.769,0.295,1.175,0.449c0.502,0.193,1.01,0.396,1.522,0.609
		c0.512,0.213,0.972,0.479,1.378,0.798c0.405,0.319,0.738,0.71,1,1.175c0.261,0.463,0.392,1.024,0.392,1.682
		c0,0.58-0.112,1.121-0.333,1.624c-0.223,0.503-0.552,0.947-0.986,1.334c-0.436,0.387-0.977,0.691-1.625,0.913
		c-0.647,0.223-1.387,0.334-2.218,0.334c-1.005,0-1.962-0.184-2.871-0.551s-1.702-0.832-2.378-1.393L104.957,57.724z"/>
</g>
</svg>
