<svg width="34" height="32" xmlns="http://www.w3.org/2000/svg"><path d="M24.461.25l-.312.006a9.094 9.094 0 00-5.875 2.436l-.236.228-.219.226-.783.828-.785-.83a9.065 9.065 0 00-13.281 0 10.197 10.197 0 00-.207 13.637l.205.228 13.365 14.095c.34.358.888.4 1.277.113l.11-.094L31.099 17.01a10.197 10.197 0 000-13.865A9.08 9.08 0 0025.094.273L24.78.257l-.32-.007zM14.251 3.9l.195.174c.097.09.19.18.277.27l1.605 1.693c.362.36.928.387 1.317.087l.094-.081 1.482-1.562a7.132 7.132 0 0110.481-.001c2.896 3.101 2.965 7.848.187 10.989l-.19.207-12.663 13.356L4.37 15.674a8.233 8.233 0 010-11.193 7.132 7.132 0 019.681-.745l.2.165z" fill="#C19E57" fill-rule="nonzero"/></svg>