<svg xmlns="http://www.w3.org/2000/svg" fill="none" viewBox="0 0 233 229" height="229" width="233">
<mask height="101" width="95" y="62" x="67" maskUnits="userSpaceOnUse" style="mask-type:luminance" id="mask0_1670_14568">
<path stroke="white" fill="white" d="M68.05 161.903V62.903H161.157V161.903H68.05Z"></path>
</mask>
<g mask="url(#mask0_1670_14568)">
<path fill="#27463A" d="M151.8 73.34C150.952 72.9788 150.123 72.5742 149.316 72.128C148.194 71.1904 147.281 70.029 146.634 68.718C144.707 65.56 142.014 61.103 135.792 62.763C134.886 62.9915 134.039 63.4106 133.307 63.9925C132.576 64.5743 131.977 65.3054 131.55 66.137C129.106 70.771 131.202 78.466 132.05 81.122C130.45 83.846 124.019 94.234 111.758 106.73C105.27 113.345 85.3081 132.985 85.3501 132.982C84.2408 133.592 83.0163 133.963 81.7551 134.072C80.8251 134.205 79.8391 134.296 78.8551 134.386C77.8011 134.486 76.7411 134.586 75.7321 134.728C73.7111 135.016 68.9811 135.692 67.8141 139.986C66.0871 146.347 73.1751 149.561 77.4081 151.479C78.255 151.84 79.0831 152.244 79.8891 152.689C81.0114 153.628 81.9261 154.791 82.5751 156.103C84.3671 159.044 86.8281 163.072 92.1881 162.308C92.6014 162.247 93.0111 162.163 93.4151 162.057C94.3572 161.825 95.2381 161.392 95.9976 160.788C96.757 160.184 97.3769 159.423 97.8151 158.557C100.005 154.307 98.2531 147.784 97.4081 145.204C100.636 141.056 115.279 122.244 120.196 116.361C127.243 107.838 134.815 99.7622 142.867 92.181C145.183 92.1932 147.496 92.0412 149.79 91.726C156.505 90.771 160.407 88.451 161.39 84.826C163.117 78.469 156.032 75.255 151.799 73.337" clip-rule="evenodd" fill-rule="evenodd"></path>
<path stroke-width="3" stroke="#27463A" d="M151.8 73.34C150.952 72.9788 150.123 72.5742 149.316 72.128C148.194 71.1904 147.281 70.029 146.634 68.718C144.707 65.56 142.014 61.103 135.792 62.763C134.886 62.9915 134.039 63.4106 133.307 63.9925C132.576 64.5743 131.977 65.3054 131.55 66.137C129.106 70.771 131.202 78.466 132.05 81.122C130.45 83.846 124.019 94.234 111.758 106.73C105.27 113.345 85.3081 132.985 85.3501 132.982C84.2408 133.592 83.0163 133.963 81.7551 134.072C80.8251 134.205 79.8391 134.296 78.8551 134.386C77.8011 134.486 76.7411 134.586 75.7321 134.728C73.7111 135.016 68.9811 135.692 67.8141 139.986C66.0871 146.347 73.1751 149.561 77.4081 151.479C78.255 151.84 79.0831 152.244 79.8891 152.689C81.0114 153.628 81.9261 154.791 82.5751 156.103C84.3671 159.044 86.8281 163.072 92.1881 162.308C92.6014 162.247 93.0111 162.163 93.4151 162.057C94.3572 161.825 95.2381 161.392 95.9976 160.788C96.757 160.184 97.3769 159.423 97.8151 158.557C100.005 154.307 98.2531 147.784 97.4081 145.204C100.636 141.056 115.279 122.244 120.196 116.361C127.243 107.838 134.815 99.7622 142.867 92.181C145.183 92.1932 147.496 92.0412 149.79 91.726C156.505 90.771 160.407 88.451 161.39 84.826C163.117 78.469 156.032 75.255 151.799 73.337"></path>
</g>
</svg>
