<?xml version="1.0" encoding="utf-8"?>
<!-- Generator: Adobe Illustrator 16.0.0, SVG Export Plug-In . SVG Version: 6.00 Build 0)  -->
<!DOCTYPE svg PUBLIC "-//W3C//DTD SVG 1.1//EN" "http://www.w3.org/Graphics/SVG/1.1/DTD/svg11.dtd">
<svg version="1.1" id="Layer_1" xmlns="http://www.w3.org/2000/svg" xmlns:xlink="http://www.w3.org/1999/xlink" x="0px" y="0px"
	 width="120px" height="80px" viewBox="0 0 120 80" enable-background="new 0 0 120 80" xml:space="preserve">
<g>
	<g>
		<g>
			
				<path fill="none" stroke="#FFFFFF" stroke-width="2.5" stroke-linecap="round" stroke-linejoin="round" stroke-miterlimit="10" d="
				M82.682,62.038c0,0,6.976-7.06,10.208-10.292c3-3-0.688-7.021-3.958-3.75c-2.25,2.25-11.458,10.792-14.833,14.167
				c-2.581,2.581-2.75,7.55-2.75,11.499c4.125,0,12.36,0,14.833,0c0-4.125,0.59-6.15,1.666-7.456
				c1.326-1.611,5.688-6.293,8.938-9.855c2.383-2.612,2.366-4.688,2.366-7.502c0-4.362-0.054-10.298-0.054-13.058
				c0-4.312-5.7-4.25-5.7,0s0,11.747,0,11.747"/>
		</g>
		<g>
			
				<path fill="none" stroke="#FFFFFF" stroke-width="2.5" stroke-linecap="round" stroke-linejoin="round" stroke-miterlimit="10" d="
				M37.319,62.038c0,0-6.976-7.06-10.208-10.292c-3-3,0.688-7.021,3.958-3.75c2.25,2.25,11.458,10.792,14.833,14.167
				c2.582,2.581,2.75,7.55,2.75,11.499c-4.125,0-12.36,0-14.833,0c0-4.125-0.591-6.15-1.667-7.456
				c-1.327-1.611-5.688-6.293-8.938-9.855c-2.383-2.612-2.366-4.688-2.366-7.502c0-4.362,0.054-10.298,0.054-13.058
				c0-4.312,5.7-4.25,5.7,0s0,11.747,0,11.747"/>
		</g>
	</g>
	<g>
		
			<rect x="36.999" y="30.172" fill="none" stroke="#FFFFFF" stroke-width="2.5" stroke-linecap="round" stroke-linejoin="round" stroke-miterlimit="10" width="46.001" height="16.021"/>
		<g>
			
				<path fill="none" stroke="#FFFFFF" stroke-width="2.5" stroke-linecap="round" stroke-linejoin="round" stroke-miterlimit="10" d="
				M40.521,30.172c0-3.89,3.153-7.042,7.043-7.042c3.889,0,7.042,3.152,7.042,7.042"/>
			
				<path fill="none" stroke="#FFFFFF" stroke-width="2.5" stroke-linecap="round" stroke-linejoin="round" stroke-miterlimit="10" d="
				M54.604,29.647c-0.974-4.344-3.521-13.484-3.671-18.055c-0.15-4.57,5.037-7.618,8.466-2.848
				c3.446,4.795,5.17,13.486,7.042,20.978"/>
			
				<path fill="none" stroke="#FFFFFF" stroke-width="2.5" stroke-linecap="round" stroke-linejoin="round" stroke-miterlimit="10" d="
				M58.201,16.014c1.873,0.823,3.971,2.021,5.769,4.194"/>
			
				<path fill="none" stroke="#FFFFFF" stroke-width="2.5" stroke-linecap="round" stroke-linejoin="round" stroke-miterlimit="10" d="
				M60.149,23.954c1.873,0.824,3.97,2.021,5.769,4.195"/>
			
				<path fill="none" stroke="#FFFFFF" stroke-width="2.5" stroke-linecap="round" stroke-linejoin="round" stroke-miterlimit="10" d="
				M66.367,30.172c0-3.671-0.445-6.783,1.424-9.364c1.573-2.172,2.322-4.121,2.322-5.095c-3.446,0-3.297-4.57-0.075-4.57
				c1.873,0,4.646,0,5.844,0c2.923,0,3.446,4.57-0.3,4.57c0,1.049-0.075,2.848,1.799,5.32c1.873,2.472,2.098,5.393,2.098,8.914"/>
			<path fill="#FFFFFF" d="M45.212,16.308c-1.438-1.438-4.038-1.168-4.038-1.168s-0.27,2.599,1.169,4.037
				c1.438,1.438,4.039,1.168,4.039,1.168S46.651,17.746,45.212,16.308z"/>
		</g>
	</g>
</g>
</svg>
