<svg width="382" height="116" viewBox="0 0 382 116" fill="none" xmlns="http://www.w3.org/2000/svg">
<g clip-path="url(#clip0_9_16)">
<path d="M153.422 39.3832C150.156 59.9981 142.205 79.1385 127.75 96.5565C120.433 105.389 115.265 108.793 104.971 116H126.496C165.865 116 185.46 109.523 198.855 95.1096C222.997 68.7622 222.694 39.0249 227.875 -3.05176e-05H191.524C182.291 -3.05176e-05 159.375 1.47443 153.408 39.3832H153.422Z" fill="#DA291C"/>
<path d="M4.63921 45.3361V69.2307H0.891052V38.3635H4.11557L15.5392 53.6179L26.7423 38.3635H30.0082V69.2307H26.0396V45.4188L15.4565 59.6673L4.65299 45.3361H4.63921ZM55.9559 66.9845C53.5307 69.0102 50.3061 69.8921 46.9576 69.8921C44.1327 69.8921 42.3689 69.3685 41.1424 68.1696C40.0814 67.1085 39.4199 65.5652 39.4199 62.7403C39.4199 60.0945 39.9436 58.4685 41.0046 57.3661C42.2448 56.1259 44.1327 55.4644 47.2194 55.4644C50.3061 55.4644 53.2137 56.2086 55.9559 57.8897V55.2853C55.9559 52.0194 55.7355 50.9584 54.7709 49.9938C53.6685 48.8914 50.94 48.4918 48.2943 48.4918C45.9517 48.4918 43.0027 48.85 40.8393 49.5528V46.3834C42.6858 45.6393 46.0895 45.2397 48.9144 45.2397C52.4007 45.2397 55.9284 45.8184 57.7749 47.665C59.4009 49.291 59.7179 51.2753 59.7179 55.3404V69.2307H55.9697V66.9845H55.9559ZM55.9559 64.5592V60.1496C53.2688 58.8268 50.4853 58.3445 47.8809 58.3445C45.8139 58.3445 44.615 58.7027 43.9949 59.3091C43.3335 59.9292 43.0303 60.9351 43.0303 62.5749C43.0303 64.2147 43.3335 65.1793 43.9949 65.8408C44.615 66.4609 45.8001 66.8054 47.8809 66.8054C50.2648 66.8054 53.131 66.2817 55.9559 64.5592ZM72.5333 57.683V69.2307H68.7851V36.8201H72.5333V55.4231L83.7778 45.9011H88.4492L76.0196 56.4428L88.587 69.2307H83.8742L72.5471 57.683H72.5333ZM103.4 69.8921C100.052 69.8921 96.7034 69.2307 94.8431 67.329C93.0793 65.5652 92.3765 61.8584 92.3765 57.5452C92.3765 53.2321 93.0793 49.6493 94.8431 47.8441C96.6483 45.9976 99.3354 45.2397 102.643 45.2397C105.95 45.2397 108.375 45.8598 110.277 47.8028C112.178 49.6493 112.482 53.2734 112.482 57.7244H96.1246C96.166 61.1694 96.6483 63.8565 97.8472 65.0002C99.0322 66.1853 101.458 66.7227 104.103 66.7227C106.487 66.7227 109.092 66.3644 111.338 65.703V68.7484C109.395 69.4925 106.308 69.8921 103.4 69.8921ZM96.2073 55.0373H108.775C108.692 52.5293 108.416 50.7655 107.452 49.7871C106.391 48.726 104.847 48.2024 102.601 48.2024C100.135 48.2024 98.674 48.8638 97.7507 49.7871C96.8274 50.7103 96.3451 52.5155 96.2073 55.0373ZM133.772 78.0912V74.9218C134.571 75.1836 135.274 75.2801 135.976 75.2801C137.699 75.2801 138.581 74.8391 140.083 72.1107C140.565 71.2701 141.103 70.3055 141.626 69.2031C138.498 63.2088 134.53 54.3069 131.966 45.9287H135.935C137.782 52.1435 140.827 59.5984 143.569 65.1518C145.815 60.1221 148.378 53.5077 150.487 45.9287H154.276C151.272 56.429 147.138 66.0337 143.473 72.7308C141.185 77.0577 140.083 78.5046 136.018 78.5046C135.315 78.5046 134.557 78.3668 133.772 78.105V78.0912ZM170.151 69.8921C166.981 69.8921 163.495 69.1893 161.635 67.2877C159.871 65.4825 159.168 61.7757 159.168 57.5452C159.168 53.3148 159.871 49.6493 161.635 47.8441C163.481 45.9425 166.968 45.2397 170.151 45.2397C173.334 45.2397 176.724 45.9425 178.57 47.8441C180.334 49.6493 181.078 53.3561 181.078 57.5452C181.078 61.7343 180.334 65.4825 178.57 67.2877C176.724 69.1893 173.279 69.8921 170.151 69.8921ZM170.151 66.764C172.755 66.764 174.56 66.0613 175.58 65.0829C176.82 63.8013 177.261 61.1556 177.261 57.5452C177.261 53.9349 176.82 51.2891 175.58 50.0076C174.56 49.043 172.755 48.3815 170.151 48.3815C167.546 48.3815 165.659 49.043 164.639 50.0076C163.399 51.2891 162.958 53.9762 162.958 57.5452C162.958 61.1142 163.399 63.8013 164.639 65.0829C165.659 66.0475 167.505 66.764 170.151 66.764ZM205.51 65.9235C203.347 68.3074 199.819 69.8921 196.512 69.8921C192.984 69.8921 191.482 68.8724 190.6 67.9491C189.539 66.9294 188.795 65.5238 188.795 62.2993V45.9011H192.543V60.8524C192.543 63.2777 192.846 64.6833 193.604 65.4412C194.445 66.2817 195.547 66.6262 197.711 66.6262C200.053 66.6262 203.002 65.4825 205.51 63.6222V45.9011H209.258V69.2307H205.51V65.9235ZM218.422 69.2307V45.9011H222.17V49.4701C224.292 46.783 227.241 45.2397 230.59 45.2397C231.555 45.2397 232.574 45.3775 233.194 45.5428V48.8914C232.395 48.7122 231.651 48.5331 230.108 48.5331C227.283 48.5331 224.458 49.8146 222.17 52.4191V69.2169H218.422V69.2307ZM259.514 69.2307C257.006 63.2777 254.043 54.2794 252.018 45.9011H256.028C257.309 51.5509 259.555 59.3917 261.402 64.7659L267.534 45.9011H271.241L277.373 64.7659C279.22 59.3917 281.479 51.5371 282.747 45.9011H286.757C284.732 54.2794 281.769 63.2777 279.261 69.2307H275.375L269.381 51.3718L263.386 69.2307H259.5H259.514ZM303.073 69.8921C299.903 69.8921 296.417 69.1893 294.557 67.2877C292.793 65.4825 292.09 61.7757 292.09 57.5452C292.09 53.3148 292.793 49.6493 294.557 47.8441C296.403 45.9425 299.89 45.2397 303.073 45.2397C306.256 45.2397 309.646 45.9425 311.492 47.8441C313.256 49.6493 314 53.3561 314 57.5452C314 61.7343 313.256 65.4825 311.492 67.2877C309.646 69.1893 306.201 69.8921 303.073 69.8921ZM303.073 66.764C305.677 66.764 307.482 66.0613 308.502 65.0829C309.742 63.8013 310.183 61.1556 310.183 57.5452C310.183 53.9349 309.742 51.2891 308.502 50.0076C307.482 49.043 305.677 48.3815 303.073 48.3815C300.468 48.3815 298.58 49.043 297.561 50.0076C296.321 51.2891 295.88 53.9762 295.88 57.5452C295.88 61.1142 296.321 63.8013 297.561 65.0829C298.58 66.0475 300.427 66.764 303.073 66.764ZM321.938 69.2307V45.9011H325.686V49.4701C327.808 46.783 330.757 45.2397 334.105 45.2397C335.07 45.2397 336.09 45.3775 336.71 45.5428V48.8914C335.91 48.7122 335.166 48.5331 333.623 48.5331C330.798 48.5331 327.973 49.8146 325.686 52.4191V69.2169H321.938V69.2307ZM348.175 65.6616C348.657 66.1853 349.318 66.5436 350.641 66.5436C351.964 66.5436 353.328 66.1853 354.307 65.7994V68.8862C353.163 69.3685 351.661 69.7267 349.815 69.7267C347.472 69.7267 346.066 69.1066 345.184 68.2247C343.862 66.9018 343.6 64.8762 343.6 60.4252V36.8339H347.389V60.5079C347.389 64.1734 347.527 65.0553 348.188 65.6616H348.175ZM377.361 66.2404C375.156 68.6657 372.207 69.9059 368.982 69.9059C366.199 69.9059 363.732 69.2858 362.065 67.6184C360.384 65.9924 359.557 62.63 359.46 57.559C359.543 52.5293 360.425 49.1808 362.106 47.5547C363.732 45.8736 366.254 45.2672 369.024 45.2672C372.193 45.2672 375.156 46.5074 377.361 48.9327V36.8477H381.109V69.2582H377.361V66.2542V66.2404ZM377.361 63.7738V51.3442C374.853 49.4426 372.29 48.5193 370.002 48.5193C367.715 48.5193 365.992 49.1394 364.973 50.1454C363.953 51.11 363.291 53.2734 363.291 57.559C363.291 61.8446 363.953 64.0356 364.973 65.014C365.992 66.0337 367.618 66.5987 370.002 66.5987C372.386 66.5987 374.811 65.7168 377.361 63.7738Z" fill="white"/>
</g>
<defs>
<clipPath id="clip0_9_16">
<rect width="380.218" height="116" fill="white" transform="translate(0.891052 -3.05176e-05)"/>
</clipPath>
</defs>
</svg>
