<svg xmlns="http://www.w3.org/2000/svg" fill="none" viewBox="0 0 233 229" height="229" width="233">
<mask height="90" width="105" y="68" x="65" maskUnits="userSpaceOnUse" style="mask-type:luminance" id="mask0_1670_14585">
<path fill="white" d="M169.512 68.2598H65.84V157.233H169.512V68.2598Z"></path>
</mask>
<g mask="url(#mask0_1670_14585)">
<path fill="#27463A" d="M124.74 80.3598C123.304 78.176 122.516 75.63 122.468 73.0168C122.408 72.1949 122.041 71.4259 121.438 70.8639C120.836 70.3018 120.043 69.9881 119.219 69.9858H106.695C106.256 69.9868 105.823 70.0761 105.419 70.2482C105.016 70.4203 104.651 70.6718 104.347 70.9877C104.043 71.3036 103.805 71.6774 103.648 72.087C103.491 72.4965 103.419 72.9335 103.434 73.3718C103.767 83.2408 105.768 88.3888 111.92 97.4468C115.312 102.447 117.929 106.296 114.238 112.476C108.221 122.551 100.091 120.585 92.403 118.723C86.295 117.245 80.403 115.823 74.926 118.802C64.86 124.281 65.59 138.82 66.086 148.66L66.207 151.852C66.2349 152.595 66.5161 153.306 67.004 153.867C67.4918 154.428 68.157 154.806 68.889 154.937L81.401 157.18C81.8711 157.265 82.3542 157.246 82.816 157.123C83.2778 157.001 83.7071 156.779 84.0734 156.472C84.4397 156.165 84.7341 155.782 84.9357 155.349C85.1373 154.916 85.2412 154.444 85.24 153.966C85.221 148.53 85.209 140.26 85.229 140.26C85.56 140.26 98.008 148.46 100.891 149.813C121.039 159.248 139.075 154.145 155.821 133.381C170.186 115.566 179.901 78.8448 149.781 69.3738C139.688 66.1978 128.618 69.8098 124.74 80.3598Z" clip-rule="evenodd" fill-rule="evenodd"></path>
</g>
</svg>
