<svg xmlns="http://www.w3.org/2000/svg" fill="none" viewBox="0 0 233 229" height="229" width="233">
<path stroke-width="3" stroke="#27463A" fill="#27463A" d="M114.87 92.5129C115.302 93.0779 115.647 93.5809 116.043 94.0389C120.268 98.9216 124.498 103.801 128.731 108.677C132.909 113.516 137.076 118.365 141.231 123.223C142.443 124.631 143.615 126.079 144.902 127.416C145.361 127.869 145.968 128.142 146.612 128.183C152.888 128.23 159.165 128.249 165.439 128.17C167.426 128.145 169.274 128.27 170.795 129.72C171.68 130.522 172.294 131.579 172.553 132.745C172.811 133.911 172.701 135.128 172.237 136.229C171.817 137.312 171.084 138.245 170.132 138.911C169.18 139.577 168.052 139.945 166.891 139.969C158.439 140.003 149.991 140.012 141.536 139.954C140.02 139.992 138.516 139.675 137.144 139.029C135.773 138.382 134.571 137.424 133.636 136.23C130.436 132.339 126.936 128.704 123.573 124.949C123.089 124.409 122.712 124.496 122.238 124.962C120.282 126.884 118.303 128.782 116.338 130.691C114.166 132.798 112.009 134.921 109.817 137.007C109.532 137.25 109.326 137.571 109.225 137.931C109.123 138.291 109.13 138.673 109.246 139.029C111.099 147.176 112.946 155.329 114.718 163.491C115.028 164.994 114.73 166.558 113.889 167.842C113.048 169.125 111.733 170.023 110.231 170.339C108.737 170.688 107.166 170.439 105.852 169.646C104.539 168.852 103.588 167.578 103.201 166.093C102.362 162.761 101.645 159.398 100.886 156.047C99.3047 149.067 97.726 142.086 96.15 135.104C95.5905 133.383 95.5797 131.531 96.119 129.804C96.4439 128.956 96.9295 128.179 97.549 127.515C101.211 123.774 104.934 120.092 108.635 116.387C109.576 115.446 109.584 115.41 108.71 114.393C104.871 109.926 101.027 105.464 97.18 101.005C96.232 99.9049 96.198 99.9139 95.154 100.958C92.814 103.301 90.396 105.572 88.154 108.006C87.6758 108.589 87.0774 109.063 86.3997 109.394C85.722 109.725 84.9809 109.906 84.2268 109.925C83.4727 109.944 82.7234 109.801 82.0299 109.504C81.3364 109.207 80.715 108.764 80.208 108.206C75.482 103.566 70.821 98.8599 66.164 94.1489C65.4689 93.5124 64.9881 92.6761 64.7879 91.755C64.5877 90.834 64.6779 89.8735 65.046 89.0059C65.3433 88.1471 65.8901 87.3966 66.6164 86.8504C67.3427 86.3042 68.2155 85.9872 69.123 85.9399C69.9294 85.8989 70.7345 86.0438 71.4759 86.3636C72.2173 86.6833 72.8753 87.1693 73.399 87.7839C76.633 91.0179 79.8663 94.2512 83.099 97.4839C84.186 98.5699 84.249 98.5699 85.352 97.4669C89.5013 93.3196 93.6483 89.1702 97.793 85.0189C98.4016 84.358 99.1426 83.8326 99.9677 83.477C100.793 83.1214 101.684 82.9435 102.582 82.9549C109.899 83.0019 117.216 82.9809 124.533 82.9809C125.245 82.9795 125.947 83.1413 126.587 83.4538C127.226 83.7664 127.785 84.2214 128.221 84.7839C130.95 87.9609 133.721 91.1019 136.476 94.2599C138.917 97.0599 141.405 99.8269 143.776 102.686C144.169 103.152 144.465 103.693 144.645 104.276C144.825 104.859 144.886 105.472 144.825 106.079C144.763 106.686 144.58 107.274 144.287 107.809C143.993 108.344 143.595 108.814 143.116 109.192C142.188 109.953 140.996 110.316 139.802 110.202C138.607 110.088 137.506 109.506 136.738 108.584C133.361 104.76 130.038 100.89 126.687 97.0409C125.425 95.5909 124.172 94.1339 122.887 92.7049C122.674 92.4783 122.385 92.3392 122.075 92.3149C119.868 92.2869 117.66 92.3019 115.454 92.3149C115.252 92.3569 115.056 92.4234 114.87 92.5129Z"></path>
<path stroke-width="3" stroke="#27463A" fill="#27463A" d="M91.236 64.749C92.443 64.7214 93.643 64.9396 94.763 65.3905C95.883 65.8413 96.8995 66.5153 97.7508 67.3714C98.6021 68.2275 99.2703 69.2479 99.7147 70.3704C100.159 71.493 100.371 72.6942 100.336 73.901C100.346 75.0929 100.119 76.275 99.6679 77.3782C99.2165 78.4814 98.5499 79.4836 97.707 80.3264C96.864 81.1691 95.8616 81.8355 94.7583 82.2867C93.6551 82.7378 92.4729 82.9647 91.281 82.9541C90.0816 82.9579 88.8931 82.725 87.7837 82.2689C86.6744 81.8128 85.6659 81.1424 84.8159 80.296C83.966 79.4496 83.2914 78.4439 82.8307 77.3364C82.37 76.229 82.1322 75.0415 82.131 73.8421C82.1108 72.6414 82.3326 71.4489 82.7832 70.3358C83.2338 69.2226 83.9039 68.2116 84.7536 67.363C85.6033 66.5145 86.6151 65.8457 87.7289 65.3966C88.8426 64.9475 90.0354 64.7272 91.236 64.749Z"></path>
</svg>
