<svg xmlns="http://www.w3.org/2000/svg" fill="none" viewBox="0 0 233 228" height="228" width="233">
<mask height="76" width="113" y="76" x="60" maskUnits="userSpaceOnUse" style="mask-type:luminance" id="mask0_1670_14608">
<path fill="white" d="M172.687 76.5339H60.3101V151.188H172.687V76.5339Z"></path>
</mask>
<g mask="url(#mask0_1670_14608)">
<path fill="#27463A" d="M116.498 96.111C114.889 96.1141 113.29 96.356 111.752 96.829C113.273 98.452 114.115 100.596 114.106 102.82C114.154 105.037 113.32 107.182 111.787 108.784C110.255 110.386 108.149 111.314 105.932 111.364C104.86 111.36 103.8 111.141 102.815 110.718C101.831 110.295 100.941 109.678 100.2 108.904C99.7465 110.518 99.5154 112.187 99.5131 113.864C99.5131 123.651 107.134 131.616 116.499 131.616C125.864 131.616 133.485 123.651 133.485 113.864C133.485 104.077 125.865 96.111 116.498 96.111Z"></path>
<path fill="#27463A" d="M158.836 92.5409C149.01 84.3839 132.971 76.5339 116.498 76.5339C100.025 76.5339 83.9851 84.3839 74.1631 92.5409C66.3511 99.0339 60.3101 108.854 60.3101 113.863C60.3101 118.872 67.9191 129.399 74.1631 135.504C83.8721 144.996 98.4971 151.188 116.498 151.188C134.499 151.188 149.125 144.995 158.836 135.504C165.076 129.399 172.687 118.872 172.687 113.863C172.687 108.854 166.646 99.0339 158.836 92.5409ZM116.498 140.262C102.549 140.262 91.2391 128.439 91.2391 113.862C91.2391 99.2849 102.549 87.4619 116.498 87.4619C130.447 87.4619 141.76 99.2869 141.76 113.859C141.76 128.431 130.448 140.259 116.499 140.259"></path>
</g>
</svg>
