<svg xmlns="http://www.w3.org/2000/svg" fill="none" viewBox="0 0 233 229" height="229" width="233">
<path stroke-width="2" stroke="#27463A" fill="#27463A" d="M106.318 52.293C94.2721 89.193 129.49 106.153 139.434 129.021C149.211 151.51 125.183 174.36 105.587 172.359C94.5871 171.234 83.487 162.72 71.998 146.949C107.925 194.049 141.753 135.64 126.663 134.006C116.601 132.916 98.546 147.248 100.463 126.106C97.943 124.735 93.8561 121.188 98.7041 120.383C94.6041 119.103 95.2221 117.5 96.4901 113.256C97.0771 108.807 88.2581 107.788 90.1401 106.198C106.174 92.663 85.7251 71.874 106.318 52.293Z" clip-rule="evenodd" fill-rule="evenodd"></path>
<path stroke="#27463A" fill="#27463A" d="M120.968 96.893L120.968 96.893C114.819 89.1526 111.731 83.3108 110.589 76.9632C109.629 71.6321 110.034 65.9072 111.22 58.3415C112.187 68.327 116.267 77.0996 121.484 85.1175C125.408 91.1492 130.007 96.7961 134.417 102.21C136.753 105.077 139.035 107.879 141.136 110.638C147.239 118.655 151.831 126.332 152.123 134.434C152.381 141.558 149.311 149.119 140.747 157.615C142.585 154.668 144.009 151.472 144.972 148.118L144.972 148.116C146.927 141.202 146.411 133.823 143.514 127.248C141.065 121.617 137.292 116.383 133.209 111.388C131.345 109.107 129.411 106.87 127.506 104.666C127.324 104.455 127.142 104.245 126.961 104.035C124.878 101.624 122.842 99.2529 120.968 96.893Z"></path>
<path stroke="#27463A" fill="#27463A" d="M124.506 78.2391L124.505 78.237C120.864 71.4368 119.432 63.6897 120.379 56.0685C124.2 67.1112 130.051 76.4571 136.192 84.7801C139.199 88.8561 142.28 92.6917 145.225 96.3587C145.464 96.6565 145.703 96.9531 145.94 97.2486C149.102 101.188 152.084 104.935 154.642 108.6C159.762 115.938 163.124 122.874 162.837 130.248C162.597 136.425 159.793 142.996 153.136 150.438C154.695 147.76 155.92 144.891 156.777 141.897L156.777 141.895C158.732 134.981 158.216 127.602 155.318 121.027C152.87 115.396 149.097 110.162 145.014 105.167C143.149 102.885 141.214 100.647 139.308 98.4418C139.127 98.2321 138.946 98.0227 138.765 97.8136C136.683 95.4035 134.646 93.0319 132.772 90.672L132.772 90.672L132.767 90.6661C129.606 86.8093 126.839 82.6463 124.506 78.2391Z"></path>
</svg>
