<svg width="41" height="44" xmlns="http://www.w3.org/2000/svg"><path d="M20.168.374c-5.29 0-9.973 3.235-11.926 8.061l-.116.298-.085.228-.233.073C3.26 10.463.103 14.67.103 19.482c0 4.734 3.06 8.869 7.497 10.358l.28.09.353.108v12.401c0 .48.361.874.826.928l.11.007h22c.478 0 .873-.361.927-.826l.006-.109V30.038l.354-.109c4.587-1.406 7.777-5.614 7.777-10.447 0-4.711-3.027-8.843-7.423-10.355l-.282-.093-.233-.073-.085-.228c-1.88-4.99-6.643-8.36-12.042-8.36zM30.233 37.57v3.934h-20.13V37.57h20.13zM20.168 2.243c4.87 0 9.1 3.164 10.52 7.735a.936.936 0 00.685.633 9.112 9.112 0 016.99 8.87 9.08 9.08 0 01-7.37 8.922.935.935 0 00-.754.816l-.006.112v6.37h-20.13v-6.373a.934.934 0 00-.761-.925 9.08 9.08 0 01-7.37-8.921 9.113 9.113 0 016.994-8.872.934.934 0 00.68-.632 11.002 11.002 0 0110.522-7.735zm5.739 11.806c-.48 0-.874.361-.928.826l-.007.11v12.434a.935.935 0 001.864.109l.006-.11V14.985a.935.935 0 00-.935-.935zm-11.478 0a.935.935 0 00-.929.826l-.006.11v12.434a.936.936 0 001.863.109l.007-.11V14.985a.935.935 0 00-.935-.935zm5.74-5.739c-.48 0-.876.361-.93.826l-.006.11v18.173a.935.935 0 001.863.109l.006-.11V9.246a.935.935 0 00-.934-.935z" fill="#C19E57" fill-rule="nonzero"/></svg>