<svg xmlns="http://www.w3.org/2000/svg" fill="none" viewBox="0 0 233 228" height="228" width="233">
<mask height="84" width="137" y="72" x="52" maskUnits="userSpaceOnUse" style="mask-type:luminance" id="mask0_1670_14631">
<path fill="white" d="M188.093 72.2828H52.9041V155.882H188.093V72.2828Z"></path>
</mask>
<g mask="url(#mask0_1670_14631)">
<path fill="#27463A" d="M141.569 119.184C142.101 120.026 142.928 120.64 143.888 120.905C144.848 121.169 145.873 121.066 146.761 120.616C147.264 120.293 147.691 119.865 148.014 119.363L147.298 151.763C147.299 152.824 147.709 153.844 148.442 154.611C149.175 155.378 150.176 155.832 151.236 155.881C152.278 155.872 153.274 155.454 154.011 154.717C154.747 153.981 155.165 152.984 155.174 151.943L155.711 127.243H158.58L159.117 151.943C159.129 152.472 159.245 152.993 159.458 153.477C159.671 153.962 159.978 154.399 160.361 154.765C160.743 155.13 161.194 155.417 161.687 155.609C162.18 155.8 162.706 155.893 163.235 155.881C163.764 155.869 164.286 155.753 164.77 155.54C165.254 155.326 165.691 155.02 166.057 154.637C166.423 154.255 166.709 153.804 166.901 153.311C167.092 152.818 167.185 152.292 167.173 151.763L166.278 107.547L168.247 109.516L172.18 118.826C172.449 119.509 172.917 120.096 173.523 120.511C174.129 120.926 174.846 121.15 175.58 121.153C176.078 121.141 176.567 121.018 177.012 120.795C177.905 120.404 178.61 119.68 178.978 118.778C179.346 117.875 179.346 116.864 178.98 115.961L174.68 106.115C174.501 105.757 174.143 105.22 173.964 104.862L168.062 98.9608C167.107 97.9856 165.964 97.2134 164.703 96.6905C163.442 96.1676 162.088 95.9048 160.723 95.9178H153.562C151.1 95.9354 148.689 96.6155 146.581 97.8868L136.914 103.974C136.494 104.212 136.126 104.533 135.834 104.918C135.541 105.303 135.33 105.743 135.213 106.212C135.096 106.681 135.075 107.168 135.152 107.645C135.229 108.122 135.402 108.579 135.661 108.987L141.569 119.184ZM148.193 105.761L148.014 115.428L143.896 108.447L148.193 105.761Z"></path>
<path fill="#27463A" d="M148.372 84.6348C148.347 85.7948 148.553 86.9482 148.977 88.0283C149.401 89.1083 150.035 90.0935 150.843 90.9268C151.65 91.7601 152.615 92.4249 153.681 92.8828C154.747 93.3407 155.893 93.5826 157.054 93.5944C158.214 93.6063 159.365 93.3878 160.44 92.9518C161.515 92.5157 162.493 91.8707 163.318 91.0541C164.142 90.2374 164.796 89.2654 165.242 88.1942C165.688 87.1231 165.917 85.9741 165.916 84.8138C163.016 85.2831 160.082 85.5226 157.144 85.5298C153.564 85.1718 150.521 84.9928 148.372 84.6348Z"></path>
<path fill="#27463A" d="M157.144 83.0238C163.944 83.0238 169.496 81.9498 169.496 80.5178C169.496 79.8018 167.885 79.0858 165.196 78.7278L163.767 74.2518C163.575 73.6882 163.214 73.1971 162.734 72.8448C162.254 72.4925 161.677 72.296 161.082 72.2818H153.382C152.779 72.2622 152.187 72.4458 151.702 72.8031C151.216 73.1603 150.864 73.6706 150.703 74.2518L149.271 78.7278C146.765 79.0858 144.971 79.8018 144.971 80.5178C144.793 81.9498 150.343 83.0238 157.144 83.0238Z"></path>
<path fill="#27463A" d="M64.4831 151.765C64.4831 152.62 64.8226 153.439 65.4269 154.043C66.0313 154.648 66.8509 154.987 67.7056 154.987C68.5602 154.987 69.3799 154.648 69.9842 154.043C70.5886 153.439 70.9281 152.62 70.9281 151.765V137.623H75.7611V151.765C75.776 152.61 76.122 153.415 76.7247 154.007C77.3275 154.599 78.1386 154.931 78.9836 154.931C79.8285 154.931 80.6397 154.599 81.2424 154.007C81.8451 153.415 82.1912 152.61 82.2061 151.765V124.555L92.7681 112.203C93.3383 111.538 93.6211 110.674 93.5544 109.801C93.4876 108.928 93.0767 108.117 92.4121 107.547C91.7474 106.977 90.8835 106.694 90.0103 106.761C89.1372 106.827 88.3263 107.238 87.7561 107.903L79.8801 117.032C79.4534 117.518 78.9316 117.912 78.3468 118.189C77.7621 118.466 77.1268 118.621 76.4801 118.643H70.0321C69.3816 118.642 68.7394 118.497 68.1516 118.218C67.5638 117.94 67.0449 117.535 66.6321 117.032L58.7541 107.907C58.4802 107.566 58.1392 107.285 57.7523 107.08C57.3654 106.876 56.9408 106.754 56.5046 106.72C56.0684 106.687 55.63 106.743 55.2165 106.885C54.8029 107.028 54.4229 107.254 54.1001 107.549C53.759 107.823 53.4778 108.164 53.2736 108.551C53.0695 108.938 52.9469 109.362 52.9134 109.798C52.8798 110.234 52.936 110.673 53.0786 111.086C53.2211 111.5 53.4469 111.88 53.7421 112.203L64.3041 124.555V151.765H64.4831Z"></path>
<path fill="#27463A" d="M81.4891 107.365C81.4891 108.958 81.0166 110.516 80.1314 111.841C79.2462 113.165 77.988 114.198 76.516 114.808C75.0439 115.417 73.4241 115.577 71.8614 115.266C70.2987 114.955 68.8633 114.188 67.7366 113.061C66.61 111.935 65.8427 110.499 65.5319 108.936C65.221 107.374 65.3806 105.754 65.9903 104.282C66.6 102.81 67.6326 101.552 68.9574 100.667C70.2822 99.7813 71.8398 99.3088 73.4331 99.3088C75.5697 99.3088 77.6187 100.158 79.1295 101.668C80.6403 103.179 81.4891 105.228 81.4891 107.365Z"></path>
<path fill="#27463A" d="M94.3861 120.612C95.0008 121.086 95.7578 121.338 96.5341 121.328C97.1828 121.348 97.8248 121.193 98.3921 120.877C98.9594 120.562 99.4308 120.099 99.7561 119.538L105.126 111.838V151.758C105.126 152.802 105.541 153.804 106.28 154.542C107.018 155.281 108.02 155.696 109.064 155.696C110.109 155.696 111.11 155.281 111.849 154.542C112.587 153.804 113.002 152.802 113.002 151.758V127.24H116.761V151.765C116.761 152.809 117.176 153.811 117.915 154.549C118.653 155.288 119.655 155.703 120.699 155.703C121.744 155.703 122.745 155.288 123.484 154.549C124.222 153.811 124.637 152.809 124.637 151.765V111.845L130.007 119.545C130.62 120.375 131.53 120.937 132.547 121.112C133.564 121.287 134.61 121.062 135.465 120.484C136.32 119.906 136.919 119.02 137.136 118.011C137.353 117.002 137.172 115.948 136.63 115.07L126.25 99.8508C125.364 98.5279 124.165 97.4437 122.76 96.6937C121.355 95.9438 119.788 95.5513 118.195 95.5508H111.572C109.979 95.5511 108.411 95.9436 107.006 96.6935C105.601 97.4434 104.403 98.5278 103.516 99.8508L93.1331 115.068C92.619 115.984 92.4626 117.058 92.694 118.083C92.9254 119.108 93.5282 120.01 94.3861 120.617V120.612Z"></path>
<path fill="#27463A" d="M123.745 84.6348C123.745 86.3697 123.231 88.0657 122.267 89.5083C121.303 90.9508 119.933 92.0751 118.33 92.7391C116.727 93.403 114.963 93.5767 113.262 93.2382C111.56 92.8998 109.997 92.0643 108.77 90.8375C107.544 89.6107 106.708 88.0477 106.37 86.3461C106.031 84.6445 106.205 82.8808 106.869 81.2779C107.533 79.675 108.657 78.305 110.1 77.3411C111.542 76.3773 113.238 75.8628 114.973 75.8628C117.3 75.8628 119.531 76.787 121.176 78.4321C122.821 80.0771 123.745 82.3083 123.745 84.6348Z"></path>
</g>
</svg>
