<svg width="137" height="20" viewBox="0 0 137 20" fill="none" xmlns="http://www.w3.org/2000/svg">
<path fill-rule="evenodd" clip-rule="evenodd" d="M31.9482 11.2957C31.9482 11.2194 31.9987 11.1677 32.0756 11.1677H33.2419C33.3424 11.1677 33.4054 11.2063 33.4571 11.2957L36.9683 17.2898H37.0183V11.2957C37.0183 11.2194 37.0692 11.1677 37.1452 11.1677H38.2481C38.3242 11.1677 38.3755 11.2194 38.3755 11.2957V19.73C38.3755 19.8058 38.3242 19.8575 38.2481 19.8575H37.0948C36.9935 19.8575 36.9301 19.8185 36.8783 19.73L33.3554 13.7495H33.305V19.73C33.305 19.8058 33.2541 19.8575 33.1785 19.8575H32.0756C31.9987 19.8575 31.9482 19.8058 31.9482 19.73V11.2957Z" fill="black"/>
<path fill-rule="evenodd" clip-rule="evenodd" d="M39.6291 18.2857C39.5026 17.8895 39.4131 17.4171 39.4131 16.7772C39.4131 16.1391 39.4887 15.6527 39.6157 15.2569C39.9587 14.184 40.8968 13.5573 42.1131 13.5573C43.3677 13.5573 44.2814 14.2103 44.6231 15.2569C44.7627 15.6912 44.8253 16.1137 44.8253 17.109C44.8253 17.1866 44.7757 17.2378 44.6866 17.2378H40.9224C40.8716 17.2378 40.8455 17.2628 40.8455 17.3141C40.8455 17.4933 40.8833 17.6481 40.9342 17.787C41.1367 18.3874 41.6197 18.72 42.3035 18.72C42.9877 18.72 43.4307 18.465 43.7359 18.1319C43.7985 18.0688 43.8624 18.0552 43.925 18.1069L44.6736 18.7704C44.7357 18.8217 44.7357 18.8861 44.6866 18.9493C44.1667 19.5628 43.3042 19.9989 42.1774 19.9989C40.8833 19.9989 39.9713 19.3581 39.6291 18.2857ZM43.3177 15.5632C43.1521 15.0658 42.6969 14.7726 42.1261 14.7726C41.5419 14.7726 41.0863 15.0658 40.9224 15.5632C40.8716 15.7162 40.8455 15.8705 40.8455 16.0892C40.8455 16.1391 40.8716 16.1632 40.9224 16.1632H43.3177C43.3677 16.1632 43.3938 16.1391 43.3938 16.0892C43.3938 15.8705 43.3677 15.7162 43.3177 15.5632Z" fill="black"/>
<path fill-rule="evenodd" clip-rule="evenodd" d="M45.4714 19.0273C45.421 18.976 45.421 18.8976 45.4714 18.8481L46.1939 18.082C46.2443 18.0289 46.3204 18.0289 46.3713 18.082C46.8142 18.49 47.5237 18.7836 48.1584 18.7836C48.9061 18.7836 49.286 18.4782 49.286 18.0552C49.286 17.6853 49.0721 17.4553 48.2727 17.379L47.6141 17.3141C46.3713 17.1862 45.7379 16.5481 45.7379 15.5002C45.7379 14.3116 46.5865 13.5587 48.1079 13.5587C49.0582 13.5587 49.8572 13.8773 50.4019 14.3116C50.4658 14.3629 50.4658 14.4396 50.4263 14.4904L49.8051 15.2438C49.7555 15.3078 49.6916 15.3078 49.6281 15.2701C49.2478 15.0028 48.64 14.7595 48.0314 14.7595C47.4228 14.7595 47.1059 15.0277 47.1059 15.3972C47.1059 15.7552 47.3211 15.9731 48.1079 16.0493L48.7665 16.1124C50.0463 16.24 50.6554 16.9048 50.6554 17.9163C50.6554 19.1417 49.7686 19.9989 48.0949 19.9989C46.8399 19.9989 45.9779 19.4997 45.4714 19.0273Z" fill="black"/>
<path fill-rule="evenodd" clip-rule="evenodd" d="M53.4315 19.9342C52.2012 19.9342 51.7322 19.3337 51.7322 18.132V14.8858C51.7322 14.8354 51.7065 14.8105 51.6557 14.8105H51.2505C51.174 14.8105 51.124 14.7592 51.124 14.6812V13.8257C51.124 13.7494 51.174 13.6981 51.2505 13.6981H51.6557C51.7065 13.6981 51.7322 13.6732 51.7322 13.6214V11.9337C51.7322 11.8574 51.7822 11.8066 51.8587 11.8066H53.0255C53.1011 11.8066 53.1528 11.8574 53.1528 11.9337V13.6214C53.1528 13.6732 53.1772 13.6981 53.2272 13.6981H54.0396C54.1162 13.6981 54.1653 13.7494 54.1653 13.8257V14.6812C54.1653 14.7592 54.1162 14.8105 54.0396 14.8105H53.2272C53.1772 14.8105 53.1528 14.8354 53.1528 14.8858V18.0808C53.1528 18.5146 53.3285 18.6558 53.7219 18.6558H54.0396C54.1162 18.6558 54.1653 18.707 54.1653 18.7837V19.8057C54.1653 19.8824 54.1162 19.9342 54.0396 19.9342H53.4315Z" fill="black"/>
<path fill-rule="evenodd" clip-rule="evenodd" d="M56.9155 19.9342C55.7244 19.9342 55.2432 19.3583 55.2432 18.1702V11.2956C55.2432 11.2193 55.2936 11.1676 55.3692 11.1676H56.5351C56.6121 11.1676 56.6625 11.2193 56.6625 11.2956V18.0935C56.6625 18.5146 56.8273 18.6558 57.1937 18.6558H57.4737C57.5493 18.6558 57.6002 18.707 57.6002 18.7837V19.8058C57.6002 19.8825 57.5493 19.9342 57.4737 19.9342H56.9155Z" fill="black"/>
<path fill-rule="evenodd" clip-rule="evenodd" d="M64.6982 11.2957C64.6982 11.2194 64.7491 11.1677 64.8252 11.1677H66.0667C66.1437 11.1677 66.1932 11.2194 66.1932 11.2957V14.7211C66.1932 14.7724 66.2197 14.7974 66.2697 14.7974H69.5531C69.6022 14.7974 69.6283 14.7724 69.6283 14.7211V11.2957C69.6283 11.2194 69.6779 11.1677 69.7557 11.1677H70.9972C71.0733 11.1677 71.1246 11.2194 71.1246 11.2957V19.73C71.1246 19.8058 71.0733 19.8575 70.9972 19.8575H69.7557C69.6779 19.8575 69.6283 19.8058 69.6283 19.73V16.2283C69.6283 16.1783 69.6022 16.152 69.5531 16.152H66.2697C66.2197 16.152 66.1932 16.1783 66.1932 16.2283V19.73C66.1932 19.8058 66.1437 19.8575 66.0667 19.8575H64.8252C64.7491 19.8575 64.6982 19.8058 64.6982 19.73V11.2957Z" fill="black"/>
<path fill-rule="evenodd" clip-rule="evenodd" d="M72.3773 18.2857C72.2521 17.8895 72.1621 17.4171 72.1621 16.7772C72.1621 16.1391 72.2378 15.6527 72.3656 15.2569C72.7072 14.184 73.6462 13.5573 74.8621 13.5573C76.1163 13.5573 77.0296 14.2103 77.3713 15.2569C77.5117 15.6912 77.5752 16.1137 77.5752 17.109C77.5752 17.1866 77.5234 17.2378 77.4352 17.2378H73.6706C73.6201 17.2378 73.5945 17.2628 73.5945 17.3141C73.5945 17.4933 73.6336 17.6481 73.6836 17.787C73.8858 18.3874 74.3683 18.72 75.053 18.72C75.7368 18.72 76.1793 18.465 76.4845 18.1319C76.5475 18.0688 76.6114 18.0552 76.6749 18.1069L77.4217 18.7704C77.4856 18.8217 77.4856 18.8861 77.4352 18.9493C76.9153 19.5628 76.0532 19.9989 74.9251 19.9989C73.6336 19.9989 72.7212 19.3581 72.3773 18.2857ZM76.0663 15.5632C75.9015 15.0658 75.4446 14.7726 74.8752 14.7726C74.2913 14.7726 73.8362 15.0658 73.6706 15.5632C73.6201 15.7162 73.5945 15.8705 73.5945 16.0892C73.5945 16.1391 73.6201 16.1632 73.6706 16.1632H76.0663C76.1163 16.1632 76.1423 16.1391 76.1423 16.0892C76.1423 15.8705 76.1163 15.7162 76.0663 15.5632Z" fill="black"/>
<path fill-rule="evenodd" clip-rule="evenodd" d="M82.2254 19.8577C82.1497 19.8577 82.0993 19.806 82.0993 19.7302V19.2827H82.0863C81.7954 19.7034 81.2247 19.9988 80.3622 19.9988C79.2467 19.9988 78.3086 19.4102 78.3086 18.1187C78.3086 16.7772 79.2467 16.1636 80.756 16.1636H81.9976C82.0489 16.1636 82.0736 16.139 82.0736 16.0873V15.7941C82.0736 15.0925 81.7441 14.7708 80.7173 14.7708C80.0331 14.7708 79.6145 14.9645 79.3237 15.1937C79.2602 15.2437 79.1828 15.2323 79.1463 15.1674L78.6764 14.3246C78.6394 14.2602 78.6511 14.1971 78.7029 14.1577C79.1967 13.8009 79.8688 13.5586 80.8695 13.5586C82.734 13.5586 83.4182 14.1971 83.4182 15.7043V19.7302C83.4182 19.806 83.3665 19.8577 83.29 19.8577H82.2254ZM82.0736 17.7869V17.3145C82.0736 17.2627 82.0489 17.2378 81.9976 17.2378H80.9834C80.0709 17.2378 79.6653 17.4933 79.6653 18.0687C79.6653 18.5793 80.0331 18.8352 80.7173 18.8352C81.5924 18.8352 82.0736 18.4899 82.0736 17.7869Z" fill="black"/>
<path fill-rule="evenodd" clip-rule="evenodd" d="M86.3578 19.9342C85.1658 19.9342 84.6846 19.3583 84.6846 18.1702V11.2956C84.6846 11.2193 84.735 11.1676 84.8111 11.1676H85.977C86.0535 11.1676 86.1043 11.2193 86.1043 11.2956V18.0935C86.1043 18.5146 86.2678 18.6558 86.6364 18.6558H86.9155C86.992 18.6558 87.0416 18.707 87.0416 18.7837V19.8058C87.0416 19.8825 86.992 19.9342 86.9155 19.9342H86.3578Z" fill="black"/>
<path fill-rule="evenodd" clip-rule="evenodd" d="M89.7407 19.9342C88.5105 19.9342 88.0423 19.3337 88.0423 18.132V14.8858C88.0423 14.8354 88.0167 14.8105 87.9662 14.8105H87.5606C87.4846 14.8105 87.4346 14.7592 87.4346 14.6812V13.8257C87.4346 13.7494 87.4846 13.6981 87.5606 13.6981H87.9662C88.0167 13.6981 88.0423 13.6732 88.0423 13.6214V11.9337C88.0423 11.8574 88.0932 11.8066 88.1692 11.8066H89.3351C89.4108 11.8066 89.4629 11.8574 89.4629 11.9337V13.6214C89.4629 13.6732 89.4886 13.6981 89.5368 13.6981H90.3489C90.4258 13.6981 90.4758 13.7494 90.4758 13.8257V14.6812C90.4758 14.7592 90.4258 14.8105 90.3489 14.8105H89.5368C89.4886 14.8105 89.4629 14.8354 89.4629 14.8858V18.0808C89.4629 18.5146 89.6394 18.6558 90.0324 18.6558H90.3489C90.4258 18.6558 90.4758 18.707 90.4758 18.7837V19.8057C90.4758 19.8824 90.4258 19.9342 90.3489 19.9342H89.7407Z" fill="black"/>
<path fill-rule="evenodd" clip-rule="evenodd" d="M95.445 19.8577C95.3694 19.8577 95.3172 19.806 95.3172 19.7301V16.1767C95.3172 15.3857 94.9247 14.8357 94.1643 14.8357C93.4297 14.8357 92.998 15.3857 92.998 16.1767V19.7301C92.998 19.806 92.9485 19.8577 92.8719 19.8577H91.706C91.6304 19.8577 91.5791 19.806 91.5791 19.7301V11.2958C91.5791 11.2196 91.6304 11.1678 91.706 11.1678H92.8719C92.9485 11.1678 92.998 11.2196 92.998 11.2958V14.2734H93.0124C93.2775 13.8903 93.8088 13.5586 94.6208 13.5586C95.9267 13.5586 96.7378 14.5289 96.7378 15.845V19.7301C96.7378 19.806 96.687 19.8577 96.6113 19.8577H95.445Z" fill="black"/>
<path fill-rule="evenodd" clip-rule="evenodd" d="M97.5864 18.8482C97.5355 18.7969 97.5099 18.7202 97.5612 18.6558L98.3467 17.7372C98.3976 17.6723 98.4728 17.6723 98.5236 17.7236C99.0814 18.1702 99.9065 18.6439 100.869 18.6439C101.896 18.6439 102.492 18.1198 102.492 17.3909C102.492 16.766 102.11 16.3558 100.919 16.1901L100.462 16.1257C98.8032 15.8969 97.8651 15.0909 97.8651 13.6469C97.8651 12.0753 99.0049 11.0274 100.78 11.0274C101.857 11.0274 102.883 11.3723 103.569 11.8973C103.632 11.9469 103.645 11.9986 103.594 12.0753L102.986 13.0215C102.935 13.0846 102.872 13.0977 102.809 13.06C102.11 12.5999 101.465 12.3834 100.742 12.3834C99.8673 12.3834 99.387 12.8672 99.387 13.5456C99.387 14.1456 99.8047 14.5541 100.971 14.7211L101.426 14.7842C103.086 15.0147 104 15.8071 104 17.3028C104 18.8482 102.898 19.9986 100.755 19.9986C99.4874 19.9986 98.2567 19.4867 97.5864 18.8482Z" fill="black"/>
<path fill-rule="evenodd" clip-rule="evenodd" d="M104.937 18.2991C104.811 17.9148 104.747 17.4288 104.747 16.7771C104.747 16.1258 104.811 15.6411 104.937 15.2567C105.292 14.1576 106.23 13.5572 107.46 13.5572C108.372 13.5572 109.094 13.9284 109.576 14.5156C109.615 14.5669 109.627 14.6432 109.564 14.6949L108.765 15.3974C108.702 15.4491 108.639 15.436 108.587 15.3729C108.283 15.028 107.967 14.8356 107.46 14.8356C106.914 14.8356 106.496 15.1042 106.319 15.6411C106.218 15.9466 106.192 16.3051 106.192 16.7771C106.192 17.2508 106.218 17.6207 106.319 17.9275C106.496 18.4517 106.914 18.7203 107.46 18.7203C107.967 18.7203 108.283 18.5297 108.587 18.1834C108.639 18.1199 108.702 18.1199 108.765 18.1703L109.564 18.8733C109.627 18.9245 109.615 18.989 109.576 19.0534C109.094 19.6271 108.372 19.9987 107.46 19.9987C106.23 19.9987 105.292 19.3983 104.937 18.2991Z" fill="black"/>
<path fill-rule="evenodd" clip-rule="evenodd" d="M110.717 12.5361C110.641 12.5361 110.59 12.4844 110.59 12.4068V11.2958C110.59 11.2196 110.641 11.1678 110.717 11.1678H111.882C111.959 11.1678 112.009 11.2196 112.009 11.2958V12.4068C112.009 12.4844 111.959 12.5361 111.882 12.5361H110.717ZM110.717 19.8577C110.641 19.8577 110.59 19.806 110.59 19.7301V13.8259C110.59 13.7496 110.641 13.6979 110.717 13.6979H111.882C111.959 13.6979 112.009 13.7496 112.009 13.8259V19.7301C112.009 19.806 111.959 19.8577 111.882 19.8577H110.717Z" fill="black"/>
<path fill-rule="evenodd" clip-rule="evenodd" d="M113.239 18.2857C113.113 17.8895 113.023 17.4171 113.023 16.7772C113.023 16.1391 113.099 15.6527 113.226 15.2569C113.567 14.184 114.507 13.5573 115.723 13.5573C116.978 13.5573 117.89 14.2103 118.232 15.2569C118.372 15.6912 118.435 16.1137 118.435 17.109C118.435 17.1866 118.384 17.2378 118.297 17.2378H114.531C114.481 17.2378 114.455 17.2628 114.455 17.3141C114.455 17.4933 114.493 17.6481 114.545 17.787C114.747 18.3874 115.229 18.72 115.914 18.72C116.597 18.72 117.04 18.465 117.345 18.1319C117.408 18.0688 117.472 18.0552 117.535 18.1069L118.283 18.7704C118.346 18.8217 118.346 18.8861 118.297 18.9493C117.777 19.5628 116.915 19.9989 115.786 19.9989C114.493 19.9989 113.581 19.3581 113.239 18.2857ZM116.928 15.5632C116.762 15.0658 116.306 14.7726 115.735 14.7726C115.153 14.7726 114.697 15.0658 114.531 15.5632C114.481 15.7162 114.455 15.8705 114.455 16.0892C114.455 16.1391 114.481 16.1632 114.531 16.1632H116.928C116.978 16.1632 117.003 16.1391 117.003 16.0892C117.003 15.8705 116.978 15.7162 116.928 15.5632Z" fill="black"/>
<path fill-rule="evenodd" clip-rule="evenodd" d="M123.314 19.8577C123.238 19.8577 123.188 19.806 123.188 19.7302V16.1767C123.188 15.3857 122.793 14.8357 122.034 14.8357C121.298 14.8357 120.867 15.3857 120.867 16.1767V19.7302C120.867 19.806 120.817 19.8577 120.742 19.8577H119.575C119.5 19.8577 119.448 19.806 119.448 19.7302V13.8259C119.448 13.7496 119.5 13.6979 119.575 13.6979H120.742C120.817 13.6979 120.867 13.7496 120.867 13.8259V14.2734H120.881C121.147 13.8903 121.679 13.5586 122.49 13.5586C123.796 13.5586 124.607 14.5289 124.607 15.845V19.7302C124.607 19.806 124.556 19.8577 124.48 19.8577H123.314Z" fill="black"/>
<path fill-rule="evenodd" clip-rule="evenodd" d="M125.748 18.2991C125.621 17.9148 125.558 17.4288 125.558 16.7771C125.558 16.1258 125.621 15.6411 125.748 15.2567C126.103 14.1576 127.04 13.5572 128.27 13.5572C129.182 13.5572 129.905 13.9284 130.386 14.5156C130.425 14.5669 130.437 14.6432 130.374 14.6949L129.576 15.3974C129.512 15.4491 129.449 15.436 129.398 15.3729C129.093 15.028 128.777 14.8356 128.27 14.8356C127.725 14.8356 127.307 15.1042 127.13 15.6411C127.028 15.9466 127.002 16.3051 127.002 16.7771C127.002 17.2508 127.028 17.6207 127.13 17.9275C127.307 18.4517 127.725 18.7203 128.27 18.7203C128.777 18.7203 129.093 18.5297 129.398 18.1834C129.449 18.1199 129.512 18.1199 129.576 18.1703L130.374 18.8733C130.437 18.9245 130.425 18.989 130.386 19.0534C129.905 19.6271 129.182 19.9987 128.27 19.9987C127.04 19.9987 126.103 19.3983 125.748 18.2991Z" fill="black"/>
<path fill-rule="evenodd" clip-rule="evenodd" d="M131.286 18.2857C131.16 17.8895 131.071 17.4171 131.071 16.7772C131.071 16.1391 131.147 15.6527 131.274 15.2569C131.616 14.184 132.554 13.5573 133.77 13.5573C135.025 13.5573 135.939 14.2103 136.28 15.2569C136.42 15.6912 136.484 16.1137 136.484 17.109C136.484 17.1866 136.432 17.2378 136.344 17.2378H132.579C132.528 17.2378 132.503 17.2628 132.503 17.3141C132.503 17.4933 132.541 17.6481 132.592 17.787C132.794 18.3874 133.276 18.72 133.961 18.72C134.645 18.72 135.09 18.465 135.394 18.1319C135.457 18.0688 135.52 18.0552 135.584 18.1069L136.33 18.7704C136.394 18.8217 136.394 18.8861 136.344 18.9493C135.824 19.5628 134.963 19.9989 133.833 19.9989C132.541 19.9989 131.629 19.3581 131.286 18.2857ZM134.975 15.5632C134.81 15.0658 134.354 14.7726 133.783 14.7726C133.2 14.7726 132.744 15.0658 132.579 15.5632C132.528 15.7162 132.503 15.8705 132.503 16.0892C132.503 16.1391 132.528 16.1632 132.579 16.1632H134.975C135.025 16.1632 135.051 16.1391 135.051 16.0892C135.051 15.8705 135.025 15.7162 134.975 15.5632Z" fill="black"/>
<path fill-rule="evenodd" clip-rule="evenodd" d="M58.3344 18.2857C58.2092 17.8895 58.1201 17.4171 58.1201 16.779C58.1201 16.1391 58.1962 15.6527 58.3236 15.2569C58.6648 14.184 59.6034 13.5573 60.8197 13.5573C62.0743 13.5573 62.9867 14.209 63.3293 15.2569C63.4701 15.6925 63.5332 16.1137 63.5332 17.109C63.5332 17.1866 63.4819 17.2378 63.3932 17.2378H59.629C59.5773 17.2378 59.5521 17.2628 59.5521 17.3141C59.5521 17.4933 59.5908 17.6481 59.6407 17.787C59.8438 18.3874 60.3254 18.72 61.0101 18.72C61.6939 18.72 62.1377 18.465 62.4416 18.1319C62.5064 18.0688 62.5694 18.0552 62.6329 18.1069L63.3801 18.7704C63.4436 18.8217 63.4436 18.8861 63.3932 18.9506C62.8724 19.5628 62.0117 19.9989 60.8827 19.9989C59.5908 19.9989 58.677 19.3581 58.3344 18.2857ZM62.0243 15.5632C61.8595 15.0658 61.4031 14.7726 60.8332 14.7726C60.2493 14.7726 59.7933 15.0658 59.629 15.5632C59.5773 15.7162 59.5521 15.8705 59.5521 16.0892C59.5521 16.1391 59.5773 16.1632 59.629 16.1632H62.0243C62.0743 16.1632 62.0999 16.1391 62.0999 16.0892C62.0999 15.8705 62.0743 15.7162 62.0243 15.5632Z" fill="black"/>
<path fill-rule="evenodd" clip-rule="evenodd" d="M58.8916 12.3832V11.8091C58.8916 11.7315 58.942 11.6903 59.0177 11.6803L62.8949 11.2459C62.9714 11.2459 63.0214 11.2972 63.0214 11.3735V12.3832C63.0214 12.4595 62.9714 12.5108 62.8949 12.5108H59.0177C58.942 12.5108 58.8916 12.4595 58.8916 12.3832Z" fill="black"/>
<path fill-rule="evenodd" clip-rule="evenodd" d="M14.9752 19.8577H10.2273C10.1573 19.8577 10.0929 19.8196 10.0573 19.7578L7.68201 15.6118C7.64766 15.5496 7.64766 15.4755 7.68201 15.4137L10.0573 11.2665C10.0929 11.206 10.1573 11.1678 10.2273 11.1678H14.9752C15.0452 11.1678 15.1104 11.206 15.1452 11.2665L17.52 15.4137C17.5548 15.4755 17.5548 15.5496 17.52 15.6118L15.1452 19.7578C15.1104 19.8196 15.0452 19.8577 14.9752 19.8577Z" fill="black" fill-opacity="0.6"/>
<g opacity="0.4">
<mask id="mask0_162_46" style="mask-type:luminance" maskUnits="userSpaceOnUse" x="19" y="0" width="11" height="10">
<g opacity="0.4">
<path d="M29.5841 0.438477H19.6914V9.12809H29.5841V0.438477Z" fill="white"/>
</g>
</mask>
<g mask="url(#mask0_162_46)">
<path fill-rule="evenodd" clip-rule="evenodd" d="M27.0119 9.1281H22.2626C22.1935 9.1281 22.1283 9.09085 22.0931 9.02905L19.7178 4.88223C19.6826 4.82175 19.6826 4.74593 19.7178 4.68457L22.0931 0.536872C22.1283 0.475953 22.1935 0.438263 22.2626 0.438263H27.0119C27.0823 0.438263 27.1471 0.475953 27.1823 0.536872L29.558 4.68457C29.5928 4.74593 29.5928 4.82175 29.558 4.88223L27.1823 9.02905C27.1471 9.09085 27.0823 9.1281 27.0119 9.1281Z" fill="black"/>
</g>
</g>
<path fill-rule="evenodd" clip-rule="evenodd" d="M22.4623 17.0692H14.7683C14.697 17.0692 14.631 17.0298 14.5949 16.9667L10.7481 10.249C10.7103 10.1877 10.7103 10.1101 10.7481 10.047L14.5949 3.32845C14.631 3.2649 14.697 3.22678 14.7683 3.22678H22.4623C22.5332 3.22678 22.5997 3.2649 22.6349 3.32845L26.4843 10.047C26.5199 10.1101 26.5199 10.1877 26.4843 10.249L22.6349 16.9667C22.5992 17.0298 22.5332 17.0692 22.4623 17.0692Z" fill="black"/>
<path fill-rule="evenodd" clip-rule="evenodd" d="M8.6828 18.6263H5.33769C5.26987 18.6263 5.20553 18.5886 5.17206 18.5294L3.49841 15.6106C3.46407 15.5497 3.46407 15.4734 3.49841 15.4151L5.17206 12.4945C5.20553 12.4345 5.26987 12.3977 5.33769 12.3977H8.6828C8.75062 12.3977 8.81365 12.4345 8.84887 12.4945L10.5221 15.4151C10.5564 15.4734 10.5564 15.5497 10.5221 15.6106L8.84887 18.5294C8.81365 18.5886 8.75062 18.6263 8.6828 18.6263Z" fill="black" fill-opacity="0.4"/>
<path fill-rule="evenodd" clip-rule="evenodd" d="M1.66801 12.2244C1.60107 12.2244 1.53934 12.188 1.5063 12.1306L0.425169 10.2435C0.392131 10.1843 0.392131 10.1115 0.425169 10.0537L1.5063 8.16523C1.53934 8.10738 1.60107 8.07144 1.66801 8.07144H3.82897C3.89636 8.07144 3.95852 8.10738 3.99156 8.16523L5.07226 10.0537C5.1066 10.1115 5.1066 10.1843 5.07226 10.2435L3.99156 12.1306C3.95765 12.188 3.89636 12.2244 3.82897 12.2244H1.66801Z" fill="black" fill-opacity="0.4"/>
<path fill-rule="evenodd" clip-rule="evenodd" d="M22.6352 3.32827C22.6 3.26516 22.5326 3.22704 22.4622 3.22704H20.5525L19.7178 4.68425C19.6826 4.74561 19.6826 4.82187 19.7178 4.88322L22.0922 9.02917C22.1274 9.09009 22.1935 9.12778 22.2631 9.12778H25.9577L22.6352 3.32827Z" fill="black"/>
<path fill-rule="evenodd" clip-rule="evenodd" d="M15.145 11.2676C15.1115 11.2063 15.045 11.1677 14.975 11.1677H11.2734L14.5951 16.9681C14.6307 17.0299 14.6959 17.0693 14.7681 17.0693H16.6856L17.5198 15.6117C17.5559 15.5499 17.5559 15.4754 17.5198 15.414L15.145 11.2676Z" fill="black"/>
<path fill-rule="evenodd" clip-rule="evenodd" d="M9.10211 12.9351L7.68233 15.4139C7.64886 15.4752 7.64886 15.5498 7.68233 15.612L9.10211 18.0895L10.5232 15.6107C10.5575 15.5498 10.5575 15.4752 10.5232 15.4152L9.10211 12.9351Z" fill="black"/>
</svg>
