<svg xmlns="http://www.w3.org/2000/svg" fill="none" viewBox="0 0 233 229" height="229" width="233">
<path fill="#27463A" d="M177.627 128.726H135.051C134.364 128.726 133.69 128.534 133.105 128.173C132.52 127.811 132.048 127.294 131.741 126.679L129.066 121.314L121.466 141.749C121.203 142.456 120.73 143.065 120.11 143.496C119.491 143.927 118.754 144.157 118 144.158C117.976 144.158 117.954 144.158 117.932 144.158C117.167 144.142 116.425 143.89 115.81 143.436C115.194 142.981 114.734 142.347 114.494 141.621L106.194 116.446L102.194 126.41C101.919 127.095 101.445 127.682 100.833 128.095C100.221 128.509 99.5002 128.73 98.762 128.73H84.904C84.407 128.748 83.9114 128.666 83.4468 128.488C82.9823 128.311 82.5583 128.041 82.2002 127.696C81.8421 127.351 81.5573 126.937 81.3628 126.48C81.1683 126.022 81.068 125.53 81.068 125.032C81.068 124.535 81.1683 124.043 81.3628 123.585C81.5573 123.127 81.8421 122.714 82.2002 122.368C82.5583 122.023 82.9823 121.754 83.4468 121.576C83.9114 121.399 84.407 121.317 84.904 121.335H96.256L103.101 104.301C103.396 103.606 103.891 103.015 104.523 102.602C105.155 102.189 105.895 101.974 106.65 101.983C107.408 102.007 108.139 102.264 108.746 102.718C109.353 103.172 109.806 103.801 110.044 104.521L118.214 129.292L125.104 110.75C125.356 110.075 125.8 109.488 126.38 109.061C126.961 108.635 127.654 108.387 128.374 108.349C129.093 108.31 129.808 108.483 130.431 108.845C131.054 109.208 131.558 109.744 131.88 110.389L137.337 121.335H165.076C166.993 116.622 167.985 111.584 167.999 106.496C167.926 92.7028 160.031 81.4218 145.447 78.7028C123.091 74.5338 116.553 97.3468 116.553 97.3468C116.553 97.3468 110.016 74.5338 87.66 78.7028C73.078 81.4218 65.181 92.7028 65.11 106.496C64.927 142.058 116.553 167.411 116.553 167.411C116.553 167.411 142.698 154.559 157.709 134.331H177.434C178.177 134.357 178.899 134.086 179.442 133.579C179.986 133.072 180.305 132.37 180.331 131.628C180.357 130.885 180.086 130.163 179.579 129.619C179.073 129.076 178.371 128.757 177.628 128.731"></path>
</svg>
