<svg width="40" height="40" xmlns="http://www.w3.org/2000/svg"><path d="M17.5 24.394v-8.22l7.197 4.205-7.197 4.015zm13.41-9.129s-.228-1.629-.872-2.348c-.834-.947-1.78-.947-2.197-.985-3.068-.227-7.69-.265-7.69-.265s-4.62.038-7.689.265c-.417.038-1.364.076-2.197.985-.682.72-.871 2.348-.871 2.348s-.227 1.932-.227 3.864v1.78c0 1.932.227 3.826.227 3.826s.227 1.629.871 2.348c.833.947 1.932.91 2.424 1.023 1.743.19 7.463.227 7.463.227s4.62 0 7.689-.265c.417-.038 1.363-.076 2.197-.985.644-.72.871-2.348.871-2.348s.227-1.932.227-3.826v-1.78c0-1.932-.227-3.864-.227-3.864h.001z" fill="#FFF" fill-rule="nonzero"/></svg>