<svg xmlns="http://www.w3.org/2000/svg" fill="none" viewBox="0 0 233 229" height="229" width="233">
<mask height="110" width="95" y="67" x="70" maskUnits="userSpaceOnUse" style="mask-type:luminance" id="mask0_1670_14656">
<path fill="white" d="M164.241 67.8218H70.7571V176.872H164.241V67.8218Z"></path>
</mask>
<g mask="url(#mask0_1670_14656)">
<path fill="#27463A" d="M127.64 110.315H137.104C137.599 110.315 138.089 110.412 138.546 110.602C139.003 110.791 139.418 111.069 139.768 111.418C140.118 111.768 140.395 112.184 140.585 112.641C140.774 113.098 140.871 113.588 140.871 114.083V119.296C140.871 120.295 140.474 121.253 139.768 121.959C139.061 122.666 138.103 123.063 137.104 123.063H127.64C126.641 123.063 125.682 123.46 124.976 124.166C124.269 124.873 123.872 125.831 123.872 126.831V136.293C123.872 137.292 123.475 138.25 122.768 138.956C122.061 139.663 121.103 140.06 120.104 140.06H114.893C114.398 140.06 113.908 139.963 113.451 139.773C112.994 139.584 112.578 139.306 112.228 138.956C111.878 138.607 111.601 138.191 111.412 137.734C111.222 137.277 111.125 136.787 111.125 136.292V126.831C111.125 125.831 110.728 124.873 110.021 124.166C109.315 123.46 108.356 123.063 107.357 123.063H97.8961C97.4012 123.063 96.9112 122.966 96.4539 122.776C95.9967 122.587 95.5813 122.309 95.2314 121.959C94.8815 121.61 94.6039 121.194 94.4146 120.737C94.2253 120.28 94.1279 119.79 94.1281 119.295V114.083C94.1279 113.588 94.2253 113.098 94.4146 112.641C94.6039 112.183 94.8815 111.768 95.2314 111.418C95.5813 111.068 95.9967 110.791 96.4539 110.601C96.9112 110.412 97.4012 110.315 97.8961 110.315H107.358C108.357 110.314 109.315 109.917 110.022 109.211C110.728 108.504 111.125 107.546 111.125 106.547V97.0858C111.125 96.5909 111.222 96.1009 111.412 95.6436C111.601 95.1864 111.878 94.771 112.228 94.4211C112.578 94.0712 112.994 93.7936 113.451 93.6043C113.908 93.415 114.398 93.3176 114.893 93.3177H120.104C121.103 93.3177 122.062 93.7147 122.768 94.4214C123.475 95.128 123.872 96.0864 123.872 97.0858V106.547C123.872 107.546 124.269 108.504 124.976 109.211C125.682 109.918 126.641 110.315 127.64 110.315Z"></path>
<path fill="#27463A" d="M146.448 67.8218H88.5481C87.727 67.8272 86.9297 68.0985 86.2757 68.595C85.6217 69.0914 85.1461 69.7864 84.9201 70.5758C84.1119 73.2738 82.6464 75.7288 80.6551 77.7205C78.6637 79.7122 76.2089 81.1782 73.5111 81.9868C72.7217 82.2128 72.0267 82.6884 71.5303 83.3424C71.0338 83.9964 70.7625 84.7937 70.7571 85.6148V108.955C70.7849 119.588 73.2966 130.069 78.0919 139.56C82.8872 149.051 89.8335 157.291 98.3771 163.622L115.257 176.131C115.906 176.612 116.692 176.871 117.5 176.871C118.308 176.871 119.094 176.612 119.743 176.131L136.621 163.622C145.165 157.291 152.111 149.051 156.906 139.56C161.702 130.069 164.213 119.588 164.241 108.955V85.6148C164.236 84.7937 163.964 83.9964 163.468 83.3424C162.971 82.6884 162.276 82.2128 161.487 81.9868C158.789 81.1784 156.334 79.7126 154.342 77.7209C152.35 75.7292 150.884 73.274 150.076 70.5758C149.85 69.7864 149.374 69.0914 148.72 68.595C148.066 68.0985 147.269 67.8272 146.448 67.8218ZM145.119 123.544C145.119 124.543 144.722 125.502 144.015 126.208C143.309 126.915 142.35 127.312 141.351 127.312H131.89C131.395 127.312 130.905 127.409 130.448 127.598C129.991 127.788 129.575 128.065 129.225 128.415C128.875 128.765 128.598 129.18 128.409 129.638C128.219 130.095 128.122 130.585 128.122 131.08V140.542C128.122 141.54 127.725 142.498 127.019 143.204C126.313 143.911 125.356 144.308 124.357 144.309H110.644C110.149 144.309 109.659 144.212 109.202 144.022C108.745 143.833 108.329 143.555 107.979 143.205C107.629 142.856 107.352 142.44 107.163 141.983C106.973 141.526 106.876 141.036 106.876 140.541V131.079C106.876 130.079 106.479 129.121 105.772 128.414C105.066 127.708 104.107 127.311 103.108 127.311H93.6461C92.6467 127.311 91.6883 126.914 90.9817 126.207C90.2751 125.501 89.8781 124.542 89.8781 123.543V109.833C89.8781 108.833 90.2751 107.875 90.9817 107.168C91.6883 106.462 92.6467 106.065 93.6461 106.065H103.108C104.107 106.065 105.066 105.668 105.772 104.961C106.479 104.255 106.876 103.296 106.876 102.297V92.8358C106.876 92.3409 106.973 91.8509 107.163 91.3937C107.352 90.9365 107.629 90.521 107.979 90.1711C108.329 89.8212 108.745 89.5436 109.202 89.3543C109.659 89.165 110.149 89.0676 110.644 89.0678H124.357C125.356 89.0678 126.315 89.4648 127.021 90.1714C127.728 90.878 128.125 91.8364 128.125 92.8358V102.298C128.125 102.793 128.222 103.283 128.412 103.74C128.601 104.197 128.878 104.613 129.228 104.962C129.578 105.312 129.994 105.59 130.451 105.779C130.908 105.969 131.398 106.066 131.893 106.066H141.355C142.354 106.066 143.313 106.463 144.019 107.169C144.726 107.876 145.123 108.834 145.123 109.834L145.119 123.544Z"></path>
</g>
</svg>
