<svg xmlns="http://www.w3.org/2000/svg" fill="none" viewBox="0 0 233 228" height="228" width="233">
<path fill="#27463A" d="M107.466 74.685C107.467 77.1994 108.213 79.657 109.611 81.7473C111.008 83.8375 112.994 85.4665 115.317 86.4282C117.64 87.3899 120.196 87.6413 122.662 87.1504C125.128 86.6595 127.393 85.4485 129.171 83.6705C130.949 81.8924 132.159 79.6272 132.65 77.1612C133.14 74.6951 132.889 72.1391 131.926 69.8161C130.964 67.4931 129.335 65.5075 127.245 64.1104C125.154 62.7133 122.696 61.9674 120.182 61.967C116.809 61.9676 113.575 63.3077 111.19 65.6928C108.806 68.0778 107.466 71.3124 107.466 74.685Z"></path>
<path fill="#27463A" d="M94.886 113.366L108.259 105.89L110.194 125.827L109.805 128.572C112.767 128.683 128.72 126.384 134.933 123.384L134.579 120.275C138.916 121.121 140.997 122.302 141.068 123.058C141.098 123.387 140.493 124.306 138.217 125.627C130.117 130.327 112.593 132.327 101.829 132.327C88.797 132.327 82.922 129.805 82.8 128.519C82.649 126.891 90.439 122.535 106.132 120.381L105.784 116.909C91.852 118.809 78.792 123.052 79.336 128.844C79.924 135.129 95.262 135.808 101.83 135.808C104.095 135.808 106.442 135.708 108.82 135.561L104.874 163.531C105.006 165.058 105.7 166.481 106.823 167.524C107.946 168.567 109.416 169.156 110.948 169.175C112.481 169.194 113.965 168.643 115.114 167.629C116.263 166.614 116.993 165.209 117.163 163.686L122.518 133.972L121.07 163.687C121.24 165.21 121.97 166.615 123.119 167.63C124.268 168.644 125.752 169.195 127.285 169.176C128.817 169.157 130.287 168.568 131.41 167.525C132.533 166.482 133.227 165.059 133.359 163.532L135.142 130.762C141.648 128.418 144.813 125.718 144.533 122.734C144.211 119.293 139.467 117.534 134.164 116.646L132.388 101.035L141.371 102.373L140.22 113.026C140.098 114.303 140.484 115.576 141.294 116.57C142.105 117.565 143.275 118.199 144.55 118.337C145.825 118.474 147.103 118.104 148.107 117.306C149.111 116.507 149.76 115.345 149.913 114.072L151.562 98.773C151.697 97.5219 151.343 96.2669 150.574 95.271C149.804 94.2751 148.68 93.6154 147.435 93.43L126.179 90.256C120.646 89.432 115.679 89.845 111.586 91.79L98.442 99.708L99.6 90.621C99.7437 89.3479 99.3805 88.0694 98.589 87.0619C97.7975 86.0545 96.6413 85.399 95.3703 85.2373C94.0994 85.0755 92.8158 85.4205 91.7972 86.1976C90.7786 86.9747 90.1068 88.1215 89.927 89.39L87.481 108.609C87.3579 109.523 87.4998 110.453 87.8898 111.289C88.2798 112.124 88.9015 112.83 89.681 113.323C90.4582 113.815 91.3576 114.08 92.2774 114.087C93.1972 114.095 94.1007 113.845 94.886 113.366Z"></path>
<path fill="#27463A" d="M78.624 132.899C78.3588 132.641 78.0021 132.5 77.6324 132.505C77.2626 132.51 76.9102 132.662 76.6525 132.928C76.3948 133.193 76.2531 133.55 76.2584 133.919C76.2638 134.289 76.4158 134.641 76.681 134.899C79.1016 136.979 82.0502 138.35 85.201 138.86C85.3829 138.899 85.5708 138.901 85.7535 138.867C85.9362 138.832 86.1102 138.761 86.265 138.658C86.4198 138.554 86.5524 138.421 86.6549 138.266C86.7574 138.111 86.8277 137.937 86.8617 137.754C86.8957 137.571 86.8928 137.383 86.853 137.201C86.8132 137.02 86.7373 136.848 86.63 136.696C86.5226 136.544 86.3859 136.415 86.2279 136.317C86.0699 136.219 85.8938 136.153 85.71 136.124C83.1035 135.698 80.6576 134.585 78.624 132.899Z"></path>
<path fill="#27463A" d="M147.668 121.708C147.486 121.723 147.308 121.773 147.145 121.856C146.982 121.94 146.837 122.054 146.719 122.193C146.6 122.333 146.51 122.494 146.454 122.668C146.398 122.842 146.376 123.026 146.391 123.208C146.418 124.095 146.233 124.975 145.85 125.776C145.467 126.576 144.899 127.273 144.191 127.808C144.042 127.915 143.916 128.049 143.819 128.204C143.722 128.36 143.657 128.532 143.627 128.713C143.597 128.893 143.603 129.078 143.644 129.256C143.686 129.434 143.762 129.602 143.868 129.751C143.974 129.9 144.109 130.026 144.264 130.123C144.419 130.22 144.592 130.285 144.773 130.315C144.953 130.345 145.138 130.339 145.316 130.298C145.494 130.257 145.662 130.181 145.811 130.074C146.905 129.256 147.782 128.182 148.366 126.948C148.951 125.713 149.224 124.354 149.163 122.989C149.133 122.622 148.959 122.281 148.679 122.041C148.399 121.802 148.036 121.682 147.668 121.708Z"></path>
</svg>
