<?xml version="1.0" encoding="UTF-8"?><svg id="Layer_1" xmlns="http://www.w3.org/2000/svg" viewBox="0 0 467.29 73.97"><path d="m460.43,50.21c2.48,0,4.69,1.79,4.69,4.56s-2.21,4.6-4.69,4.6-4.71-1.8-4.71-4.6,2.22-4.56,4.71-4.56Zm0,8.18c1.89,0,3.45-1.52,3.45-3.62s-1.56-3.58-3.45-3.58-3.45,1.5-3.45,3.58,1.52,3.62,3.45,3.62Zm-1.82-6.18h1.93c1.29,0,2.01.4,2.01,1.52,0,.93-.59,1.3-1.33,1.37l1.36,2.25h-1.07l-1.26-2.2h-.63v2.2h-1.02v-5.13Zm1.02,2.13h.9c.56,0,1.01-.09,1.01-.7,0-.55-.6-.65-1.05-.65h-.87v1.35Z" style="fill:#fff; stroke-width:0px;"/><polygon points="35.35 44.39 18.08 15.61 9.82 15.61 9.82 58.35 17.69 58.35 17.69 29.92 35.49 58.35 43.22 58.35 43.22 15.61 35.35 15.61 35.35 44.39" style="fill:#fff; stroke-width:0px;"/><path d="m60.46,20.99l-13.01,37.45h7.9l2.55-7.85h13.76l2.56,7.85h8.16l-13.1-37.45h-8.83Zm8.97,22.71h-9.25l4.65-14.11,4.6,14.11Z" style="fill:#fff; stroke-width:0px;"/><polygon points="79.78 28.38 89.98 28.38 89.98 58.43 97.4 58.43 97.4 28.38 107.59 28.38 107.59 20.99 79.78 20.99 79.78 28.38" style="fill:#fff; stroke-width:0px;"/><path d="m133.43,51.45c-1.73.32-3.37.53-5.63.53-4.72,0-6.83-2.58-6.83-8.34v-22.65h-7.52v24.27c0,11.41,7.8,13.81,14.35,13.81,4.2,0,10.03-.82,12.99-1.83l.15-.05V20.99h-7.51v30.47Z" style="fill:#fff; stroke-width:0px;"/><path d="m173.89,33.05c0-8.19-4.98-12.69-14.04-12.69-3.15,0-7.13.32-9.46.75l-.18.03v37.29h7.46v-12.45h2.73l7.93,12.45h8.9l-9.52-14.33c3.88-2.08,6.18-6.18,6.18-11.05Zm-16.22-5.26c.6-.05,1.6-.11,2.18-.11,2.92,0,6.41.98,6.41,5.61,0,3.8-2.15,5.72-6.41,5.72h-2.18v-11.23Z" style="fill:#fff; stroke-width:0px;"/><polygon points="188.84 43.25 201.85 43.25 201.85 35.98 188.84 35.98 188.84 28.38 203.01 28.38 203.01 20.99 181.45 20.99 181.45 58.43 203.34 58.43 203.34 51.04 188.84 51.04 188.84 43.25" style="fill:#fff; stroke-width:0px;"/><path d="m228.06,35.81c-3.79-1.16-5.57-2.15-5.57-4.62,0-2.26,1.55-3.61,4.16-3.61,2.98,0,5.58,1.15,8.45,3.75l.36.32v-8.42l-.11-.07c-2.64-1.89-5.47-2.78-8.93-2.78-6.73,0-11.25,4.5-11.25,11.2,0,6.24,2.67,9.5,9.52,11.62,3.56,1.15,5.38,2.2,5.38,4.74,0,3.54-3.59,3.93-5.15,3.93-3.88,0-6.65-1.89-8.84-3.74l-.35-.3v8.46l.11.08c2.34,1.72,5.66,2.72,9.09,2.72,7.82,0,12.48-4.26,12.48-11.39,0-6.39-2.61-9.72-9.36-11.86Z" style="fill:#fff; stroke-width:0px;"/><path d="m274.65,36.42c4-.71,7.09-4.24,7.09-9.35,0-8.71-6.06-12.02-14.9-12.02-3.22,0-7.8.51-10.7,1.01v42.25c2.57.43,6.37.86,9.72.86,12.45,0,17.66-4.69,17.66-12.45,0-6.19-3.72-9.72-8.88-10.29Zm-10.64-13.46c.9-.14,2.39-.28,3.55-.28,3.8,0,6.2,1.65,6.2,5.11,0,3.66-2.19,5.61-6.78,5.61h-2.96v-10.44Zm3.22,28.71c-.77,0-2.2-.07-3.22-.22v-10.72h4.27c4.25,0,7.02,1.43,7.02,5.32s-3.1,5.61-8.06,5.61Z" style="fill:#fff; stroke-width:0px;"/><path d="m305.14,20.36c-9.94,0-17.45,8.32-17.45,19.36s7.51,19.35,17.45,19.35,17.45-8.32,17.45-19.35-7.5-19.36-17.45-19.36Zm0,31.11c-5.74,0-9.77-4.83-9.77-11.76s4.02-11.77,9.77-11.77,9.77,4.84,9.77,11.77-4.03,11.76-9.77,11.76Z" style="fill:#fff; stroke-width:0px;"/><path d="m347.3,51.45c-1.73.32-3.37.53-5.64.53-4.7,0-6.81-2.58-6.81-8.34v-22.65h-7.52v24.27c0,11.41,7.81,13.81,14.33,13.81,4.2,0,10.04-.82,13-1.83l.15-.05V20.99h-7.51v30.47Z" style="fill:#fff; stroke-width:0px;"/><polygon points="385.04 45.32 370.44 20.99 362.97 20.99 362.97 58.43 370.2 58.43 370.2 34.38 385.28 58.43 392.29 58.43 392.29 20.99 385.04 20.99 385.04 45.32" style="fill:#fff; stroke-width:0px;"/><polygon points="396.48 28.38 406.68 28.38 406.68 58.43 414.11 58.43 414.11 28.38 424.29 28.38 424.29 20.99 396.48 20.99 396.48 28.38" style="fill:#fff; stroke-width:0px;"/><polygon points="457.47 20.99 449.15 20.99 441.69 36.46 434.09 20.99 425.83 20.99 437.87 44.44 437.87 58.43 445.31 58.43 445.29 44.55 457.47 20.99" style="fill:#fff; stroke-width:0px;"/><path d="m207.6,28.09c6.98-1.75,9.08-9.55,8.82-16.99-6.52,1.57-10.38,7.71-8.82,16.99Z" style="fill:#fff; stroke-width:0px;"/><rect width="467.29" height="2.43" style="fill:#fff; stroke-width:0px;"/><rect y="71.53" width="467.29" height="2.44" style="fill:#fff; stroke-width:0px;"/></svg>