<?xml version="1.0" encoding="utf-8"?>
<!-- Generator: Adobe Illustrator 16.0.0, SVG Export Plug-In . SVG Version: 6.00 Build 0)  -->
<!DOCTYPE svg PUBLIC "-//W3C//DTD SVG 1.1//EN" "http://www.w3.org/Graphics/SVG/1.1/DTD/svg11.dtd">
<svg version="1.1" id="Layer_1" xmlns="http://www.w3.org/2000/svg" xmlns:xlink="http://www.w3.org/1999/xlink" x="0px" y="0px"
	 width="120px" height="80px" viewBox="0 0 120 80" enable-background="new 0 0 120 80" xml:space="preserve">
<g>
	
		<circle fill="none" stroke="#FFFFFF" stroke-width="2.5" stroke-linecap="round" stroke-linejoin="round" stroke-miterlimit="10" cx="48.058" cy="48.672" r="24.797"/>
	
		<line fill="none" stroke="#FFFFFF" stroke-width="2.5" stroke-linecap="round" stroke-linejoin="round" stroke-miterlimit="10" x1="47.297" y1="27.068" x2="47.297" y2="13.225"/>
	
		<line fill="none" stroke="#FFFFFF" stroke-width="2.5" stroke-linecap="round" stroke-linejoin="round" stroke-miterlimit="10" x1="74.225" y1="12.008" x2="74.225" y2="6.531"/>
	<path fill="none" stroke="#FFFFFF" stroke-width="2.5" stroke-linecap="round" stroke-linejoin="round" stroke-miterlimit="10" d="
		M60.165,16.033c3.862-3.861,4.482-9.502,4.482-9.502s-5.641,0.621-9.501,4.482c-3.862,3.862-4.482,9.502-4.482,9.502
		S56.303,19.896,60.165,16.033z"/>
	<path fill="none" stroke="#FFFFFF" stroke-width="2.5" stroke-linecap="round" stroke-linejoin="round" stroke-miterlimit="10" d="
		M74.225,12.921c4.26,0,7.758,0,8.975,4.564c1.217,4.563,0.913,7.15,1.522,9.736c0.607,2.586,1.978,4.411,4.563,7.15
		c4.574,4.121,7.454,9.939,7.454,16.582c0,12.436-10.08,22.516-22.515,22.516c-4.705,0-9.073-1.443-12.686-3.91"/>
	<path fill="none" stroke="#FFFFFF" stroke-width="2.5" stroke-linecap="round" stroke-linejoin="round" stroke-miterlimit="10" d="
		M74.225,12.921c-4.26,0-7.759,0-8.976,4.564c-1.218,4.563-0.913,7.15-1.522,9.736c-0.148,0.627-0.34,1.21-0.583,1.771"/>
	<path fill="none" stroke="#FFFFFF" stroke-width="2.5" stroke-linecap="round" stroke-linejoin="round" stroke-miterlimit="10" d="
		M41.212,29.97c1.176,2.246,3.526,3.78,6.238,3.78c2.711,0,5.061-1.535,6.237-3.78"/>
</g>
</svg>
