<?xml version="1.0" encoding="utf-8"?>
<!-- Generator: Adobe Illustrator 16.0.0, SVG Export Plug-In . SVG Version: 6.00 Build 0)  -->
<!DOCTYPE svg PUBLIC "-//W3C//DTD SVG 1.1//EN" "http://www.w3.org/Graphics/SVG/1.1/DTD/svg11.dtd">
<svg version="1.1" id="Layer_1" xmlns="http://www.w3.org/2000/svg" xmlns:xlink="http://www.w3.org/1999/xlink" x="0px" y="0px"
	 width="120px" height="80px" viewBox="0 0 120 80" enable-background="new 0 0 120 80" xml:space="preserve">
<path fill="none" stroke="#FFFFFF" stroke-width="2.5" stroke-linecap="round" stroke-linejoin="round" stroke-miterlimit="10" d="
	M35.896,15.895c-6.439,6.438-9.984,15-9.984,24.104s3.545,17.665,9.984,24.105c6.439,6.438,14.999,9.984,24.105,9.984
	c9.104,0,17.663-3.546,24.104-9.984c6.439-6.44,9.983-15.001,9.983-24.105s-3.544-17.667-9.983-24.104
	c-6.438-6.438-15-9.984-24.104-9.984C50.895,5.911,42.335,9.457,35.896,15.895z"/>
<g>
	<path fill="none" stroke="#FFFFFF" stroke-width="2.5" stroke-linecap="round" stroke-linejoin="round" stroke-miterlimit="10" d="
		M62.451,36.324c-0.007,0.003-0.014,0.011-0.02,0.018c-6.954-6.279-13.763-12.388-15.968-14.253
		c-1.91-1.614-2.312-2.638-2.312-3.211c0-0.541,0.38-0.772,0.39-0.78l0.043-0.026c4.444-3.197,9.418-4.754,15.201-4.754
		c7.184,0,13.939,2.797,19.023,7.877c5.078,5.08,7.877,11.834,7.877,19.019c0,5.117-0.579,9.1-3.458,13.154
		c-0.159,0.223-0.349,0.337-0.595,0.364c-0.746,0.079-1.779-0.694-2.113-1.005c-0.157-0.143-8.754-7.959-17.361-15.73L62.451,36.324
		z"/>
	<path fill="none" stroke="#FFFFFF" stroke-width="2.5" stroke-linecap="round" stroke-linejoin="round" stroke-miterlimit="10" d="
		M60.01,44.977l15.262,14.699l0.033,0.024c0.006,0.005,0.615,0.493,0.615,1.132c0,0.531-0.424,1.057-1.248,1.565
		c-4.936,3.045-9.123,4.286-14.459,4.286c-7.186,0-13.938-2.798-19.021-7.879c-5.081-5.08-7.877-11.832-7.877-19.017
		c0-5.928,1.17-10.182,3.912-14.224l0.029-0.051c0.001-0.003,0.108-0.192,0.395-0.247c0.351-0.067,1.173,0.025,2.72,1.43
		c1.906,1.733,7.951,7.335,12.221,11.295L60.01,44.977z"/>
</g>
</svg>
