<?xml version="1.0" encoding="utf-8"?>
<!-- Generator: Adobe Illustrator 15.0.0, SVG Export Plug-In . SVG Version: 6.00 Build 0)  -->
<!DOCTYPE svg PUBLIC "-//W3C//DTD SVG 1.1//EN" "http://www.w3.org/Graphics/SVG/1.1/DTD/svg11.dtd">
<svg version="1.1" id="Layer_1" xmlns="http://www.w3.org/2000/svg" xmlns:xlink="http://www.w3.org/1999/xlink" x="0px" y="0px"
	 width="120px" height="80px" viewBox="0 0 120 80" enable-background="new 0 0 120 80" xml:space="preserve">
<g>
	<path fill="#FFFFFF" d="M5.603,51.446c0.506,0.579,1.065,1.13,1.68,1.653c0.614,0.524,1.31,0.994,2.087,1.409
		c0.776,0.416,1.644,0.751,2.602,1.003c0.957,0.253,2.033,0.379,3.225,0.379c1.156,0,2.23-0.18,3.225-0.542
		c0.994-0.36,1.852-0.875,2.575-1.544c0.722-0.669,1.282-1.473,1.68-2.412c0.397-0.939,0.596-1.987,0.596-3.144
		c0-1.192-0.226-2.276-0.678-3.252c-0.452-0.976-1.165-1.816-2.141-2.521c-0.976-0.705-2.222-1.256-3.74-1.653
		c-1.518-0.397-3.36-0.596-5.529-0.596v-2.114c1.987,0,3.677-0.198,5.068-0.596c1.391-0.397,2.511-0.93,3.36-1.599
		c0.849-0.668,1.463-1.463,1.843-2.385s0.569-1.905,0.569-2.954c0-1.951-0.633-3.514-1.897-4.688
		c-1.265-1.174-2.963-1.762-5.095-1.762c-1.626,0-3.108,0.371-4.445,1.111c-1.337,0.741-2.512,1.635-3.523,2.683l-1.409-1.626
		c1.192-1.156,2.547-2.149,4.065-2.981c1.518-0.831,3.288-1.247,5.312-1.247c1.336,0,2.583,0.19,3.74,0.569
		c1.156,0.379,2.159,0.921,3.008,1.626c0.849,0.705,1.518,1.572,2.006,2.602c0.488,1.03,0.731,2.214,0.731,3.55
		c0,2.276-0.623,4.111-1.87,5.501c-1.247,1.392-2.828,2.412-4.742,3.062v0.217c1.084,0.217,2.095,0.588,3.035,1.111
		c0.939,0.523,1.77,1.165,2.493,1.924c0.722,0.759,1.292,1.636,1.708,2.629c0.415,0.994,0.623,2.105,0.623,3.333
		c0,1.518-0.271,2.882-0.813,4.093s-1.292,2.24-2.25,3.089c-0.958,0.85-2.078,1.5-3.36,1.951c-1.283,0.451-2.665,0.678-4.146,0.678
		c-1.374,0-2.621-0.145-3.74-0.434c-1.12-0.289-2.123-0.668-3.008-1.139c-0.886-0.469-1.68-0.993-2.385-1.571
		c-0.705-0.577-1.328-1.156-1.87-1.734L5.603,51.446z"/>
	<path fill="#FFFFFF" d="M26.794,55.565c0-0.794,0.235-1.409,0.705-1.843c0.469-0.434,1.011-0.65,1.626-0.65
		c0.614,0,1.147,0.217,1.599,0.65c0.451,0.434,0.677,1.049,0.677,1.843c0,0.759-0.226,1.355-0.677,1.789
		c-0.452,0.434-0.985,0.65-1.599,0.65c-0.615,0-1.157-0.217-1.626-0.65C27.029,56.921,26.794,56.324,26.794,55.565z"/>
	<path fill="#FFFFFF" d="M35.086,51.663c0.506,0.542,1.065,1.066,1.68,1.572c0.614,0.506,1.301,0.958,2.06,1.354
		c0.759,0.398,1.607,0.714,2.547,0.949c0.939,0.235,2.006,0.352,3.198,0.352c1.156,0,2.258-0.225,3.306-0.677
		c1.047-0.452,1.959-1.084,2.737-1.897c0.777-0.812,1.4-1.788,1.87-2.927c0.469-1.138,0.705-2.412,0.705-3.821
		c0-2.818-0.759-5.014-2.276-6.585c-1.518-1.572-3.577-2.358-6.179-2.358c-1.337,0-2.485,0.208-3.442,0.624
		c-0.958,0.416-1.96,0.985-3.008,1.707l-1.68-1.03l1.247-16.206H53.84v2.114H40.019l-1.084,12.521
		c0.903-0.542,1.843-0.984,2.818-1.328c0.976-0.343,2.095-0.515,3.361-0.515c1.445,0,2.818,0.217,4.119,0.65s2.42,1.093,3.36,1.979
		c0.939,0.886,1.688,2.024,2.25,3.414c0.56,1.392,0.84,3.027,0.84,4.905c0,1.843-0.317,3.479-0.948,4.905
		c-0.633,1.428-1.463,2.638-2.494,3.632c-1.03,0.994-2.204,1.743-3.523,2.249c-1.319,0.506-2.683,0.759-4.092,0.759
		c-1.374,0-2.611-0.136-3.713-0.406c-1.103-0.271-2.096-0.632-2.981-1.084c-0.886-0.451-1.672-0.957-2.358-1.518
		c-0.687-0.561-1.301-1.111-1.843-1.653L35.086,51.663z"/>
	<path fill="#FFFFFF" d="M57.796,55.837c2.854-2.891,5.347-5.482,7.479-7.777c2.131-2.295,3.912-4.391,5.34-6.288
		c1.426-1.896,2.492-3.649,3.197-5.257c0.705-1.607,1.057-3.17,1.057-4.688c0-2.168-0.605-3.992-1.816-5.474
		c-1.211-1.481-3.115-2.223-5.717-2.223c-1.592,0-3.072,0.434-4.445,1.301c-1.373,0.868-2.583,1.952-3.631,3.252l-1.572-1.518
		c1.301-1.445,2.737-2.656,4.309-3.632c1.572-0.976,3.424-1.463,5.557-1.463c3.107,0,5.51,0.886,7.207,2.656
		c1.699,1.771,2.549,4.12,2.549,7.046c0,1.734-0.379,3.46-1.139,5.176c-0.76,1.716-1.824,3.523-3.197,5.42
		c-1.375,1.896-3.045,3.921-5.014,6.07c-1.971,2.15-4.146,4.49-6.531,7.019c0.939-0.071,1.904-0.135,2.898-0.189
		c0.994-0.054,1.961-0.081,2.9-0.081h11.816v2.168H57.796V55.837z"/>
	<path fill="#FFFFFF" d="M92.158,21.636h9.647c3.612,0,6.485,0.696,8.618,2.087c2.131,1.392,3.197,3.586,3.197,6.585
		c0,1.879-0.533,3.515-1.599,4.905c-1.066,1.392-2.647,2.358-4.743,2.9v0.217c2.638,0.398,4.716,1.31,6.233,2.737
		c1.518,1.428,2.276,3.388,2.276,5.881c0,1.734-0.316,3.252-0.948,4.553c-0.633,1.301-1.527,2.385-2.683,3.252
		c-1.157,0.867-2.548,1.518-4.174,1.951s-3.451,0.65-5.475,0.65H92.158V21.636z M100.83,37.354c3.686,0,6.322-0.587,7.913-1.762
		c1.59-1.173,2.385-2.954,2.385-5.338c0-2.312-0.85-3.984-2.547-5.014c-1.699-1.03-4.192-1.545-7.48-1.545h-6.449v13.659H100.83z
		 M101.859,55.295c3.577,0,6.387-0.668,8.429-2.006c2.041-1.336,3.062-3.45,3.062-6.341c0-2.565-0.994-4.472-2.981-5.718
		c-1.987-1.247-4.824-1.871-8.51-1.871h-7.208v15.935H101.859z"/>
</g>
</svg>
