<?xml version="1.0" encoding="utf-8"?>
<!-- Generator: Adobe Illustrator 16.0.0, SVG Export Plug-In . SVG Version: 6.00 Build 0)  -->
<!DOCTYPE svg PUBLIC "-//W3C//DTD SVG 1.1//EN" "http://www.w3.org/Graphics/SVG/1.1/DTD/svg11.dtd">
<svg version="1.1" id="Layer_1" xmlns="http://www.w3.org/2000/svg" xmlns:xlink="http://www.w3.org/1999/xlink" x="0px" y="0px"
	 width="120px" height="80px" viewBox="0 0 120 80" enable-background="new 0 0 120 80" xml:space="preserve">
<g>
	<path fill="none" stroke="#FFFFFF" stroke-width="2.5" stroke-linecap="round" stroke-linejoin="round" stroke-miterlimit="10" d="
		M57.304,15.558l-1.653,3.566c0,0-4.523-0.262-7.481,2.174c-2.958,2.436-2.697,6.981-2.697,6.981h5.916l-0.522,12.847v28.188h6.176
		L60,46.698"/>
	<path fill="none" stroke="#FFFFFF" stroke-width="2.5" stroke-linecap="round" stroke-linejoin="round" stroke-miterlimit="10" d="
		M46.43,28.452c0,0-0.695,8.155,0.174,13.462c-1.131,4.001,0.872,7.045,4.177,7.133"/>
	<path fill="none" stroke="#FFFFFF" stroke-width="2.5" stroke-linecap="round" stroke-linejoin="round" stroke-miterlimit="10" d="
		M51.476,69.313v4.437c0,0-4.697,0.479-4.437,4.958c2.609,0,9.133,0,9.133,0l0.348-9.22"/>
	
		<line fill="none" stroke="#FFFFFF" stroke-width="2.5" stroke-linecap="round" stroke-linejoin="round" stroke-miterlimit="10" x1="51.389" y1="28.279" x2="51.584" y2="20.385"/>
	
		<polyline fill="none" stroke="#FFFFFF" stroke-width="2.5" stroke-linecap="round" stroke-linejoin="round" stroke-miterlimit="10" points="
		54.52,19.537 55.694,25.408 60,25.408 	"/>
	<circle fill="#FFFFFF" cx="54.977" cy="29.408" r="1"/>
	
		<polyline fill="none" stroke="#FFFFFF" stroke-width="2.5" stroke-linecap="round" stroke-linejoin="round" stroke-miterlimit="10" points="
		70.873,7.468 60,7.468 49.127,7.468 	"/>
	
		<polyline fill="none" stroke="#FFFFFF" stroke-width="2.5" stroke-linecap="round" stroke-linejoin="round" stroke-miterlimit="10" points="
		65.566,7.468 64.61,1.292 60,1.292 55.39,1.292 54.434,7.468 	"/>
	<path fill="none" stroke="#FFFFFF" stroke-width="2.5" stroke-linecap="round" stroke-linejoin="round" stroke-miterlimit="10" d="
		M65.559,7.468c0.061,0.424,0.096,0.858,0.096,1.305c0,3.987-2.531,7.22-5.654,7.22c-3.123,0-5.655-3.232-5.655-7.22
		c0-0.446,0.036-0.881,0.097-1.305"/>
	<path fill="none" stroke="#FFFFFF" stroke-width="2.5" stroke-linecap="round" stroke-linejoin="round" stroke-miterlimit="10" d="
		M62.697,15.558l1.652,3.566c0,0,4.523-0.262,7.481,2.174s2.696,6.981,2.696,6.981h-5.916l0.522,12.847v28.188h-6.177L60,46.698"/>
	<path fill="none" stroke="#FFFFFF" stroke-width="2.5" stroke-linecap="round" stroke-linejoin="round" stroke-miterlimit="10" d="
		M73.57,28.452c0,0,0.695,8.155-0.174,13.462c1.131,4.001-0.871,7.045-4.176,7.133"/>
	<path fill="none" stroke="#FFFFFF" stroke-width="2.5" stroke-linecap="round" stroke-linejoin="round" stroke-miterlimit="10" d="
		M68.525,69.313v4.437c0,0,4.697,0.479,4.436,4.958c-2.609,0-9.133,0-9.133,0l-0.35-9.22"/>
	
		<line fill="none" stroke="#FFFFFF" stroke-width="2.5" stroke-linecap="round" stroke-linejoin="round" stroke-miterlimit="10" x1="68.611" y1="28.279" x2="68.416" y2="20.385"/>
	
		<polyline fill="none" stroke="#FFFFFF" stroke-width="2.5" stroke-linecap="round" stroke-linejoin="round" stroke-miterlimit="10" points="
		65.48,19.537 64.306,25.408 60,25.408 	"/>
	<circle fill="#FFFFFF" cx="65.024" cy="29.408" r="1"/>
	<path fill="none" stroke="#FFFFFF" stroke-width="2.5" stroke-linecap="round" stroke-linejoin="round" stroke-miterlimit="10" d="
		M64.176,19.146c0,0-1.936,1.414-4.175,1.414s-4.175-1.414-4.175-1.414"/>
</g>
</svg>
