<?xml version="1.0" encoding="utf-8"?>
<!-- Generator: Adobe Illustrator 16.0.0, SVG Export Plug-In . SVG Version: 6.00 Build 0)  -->
<!DOCTYPE svg PUBLIC "-//W3C//DTD SVG 1.1//EN" "http://www.w3.org/Graphics/SVG/1.1/DTD/svg11.dtd">
<svg version="1.1" id="Layer_1" xmlns="http://www.w3.org/2000/svg" xmlns:xlink="http://www.w3.org/1999/xlink" x="0px" y="0px"
	 width="120px" height="80px" viewBox="0 0 120 80" enable-background="new 0 0 120 80" xml:space="preserve">
<g>
	<path fill="none" stroke="#FFFFFF" stroke-width="2.5" stroke-linecap="round" stroke-linejoin="round" stroke-miterlimit="10" d="
		M54.253,65.91c-11.422,0-21.598,0-22.964,0c-4.154,0-7.054-3.556-4.267-8.421c1.021-1.783,5.676-9.856,11.173-19.386"/>
	<path fill="none" stroke="#FFFFFF" stroke-width="2.5" stroke-linecap="round" stroke-linejoin="round" stroke-miterlimit="10" d="
		M81.838,38.38c5.692,9.858,10.489,18.169,11.352,19.679c2.316,4.055-0.114,7.852-4.722,7.852c-1.926,0-11.667,0-22.591,0"/>
	<path fill="none" stroke="#FFFFFF" stroke-width="2.5" stroke-linecap="round" stroke-linejoin="round" stroke-miterlimit="10" d="
		M43.603,28.733c3.907-6.771,7.794-13.507,10.785-18.693c3.222-5.583,7.785-5.704,10.981-0.17
		c3.012,5.212,6.949,12.028,10.913,18.893"/>
	
		<polyline fill="none" stroke="#FFFFFF" stroke-width="2.5" stroke-linecap="round" stroke-linejoin="round" stroke-miterlimit="10" points="
		74.186,74.215 65.881,65.91 74.186,57.604 	"/>
	
		<polyline fill="none" stroke="#FFFFFF" stroke-width="2.5" stroke-linecap="round" stroke-linejoin="round" stroke-miterlimit="10" points="
		26.763,40.883 38.176,38.107 40.949,49.521 	"/>
	
		<polyline fill="none" stroke="#FFFFFF" stroke-width="2.5" stroke-linecap="round" stroke-linejoin="round" stroke-miterlimit="10" points="
		79.212,17.375 76.275,28.748 64.902,25.809 	"/>
</g>
</svg>
