<?xml version="1.0" encoding="utf-8"?>
<!-- Generator: Adobe Illustrator 16.0.0, SVG Export Plug-In . SVG Version: 6.00 Build 0)  -->
<!DOCTYPE svg PUBLIC "-//W3C//DTD SVG 1.1//EN" "http://www.w3.org/Graphics/SVG/1.1/DTD/svg11.dtd">
<svg version="1.1" id="Layer_1" xmlns="http://www.w3.org/2000/svg" xmlns:xlink="http://www.w3.org/1999/xlink" x="0px" y="0px"
	 width="120px" height="80px" viewBox="0 0 120 80" enable-background="new 0 0 120 80" xml:space="preserve">
<g>
	<path fill="none" stroke="#FFFFFF" stroke-width="2.5" stroke-linecap="round" stroke-linejoin="round" stroke-miterlimit="10" d="
		M74.142,18.09l14.606,14.607c0,0-29.735,29.735-31.706,31.706c-2.608,2.608-3.468,9.505-5.873,9.013s-1.541-4.621-3.879-6.96
		c-2.338-2.338-4.837-0.481-7.143-2.786c-2.305-2.305-0.725-5.081-2.58-6.938c-1.855-1.854-6.482-2.124-7.12-4.038
		c-0.638-1.912,5.154-2.709,9.099-5.786"/>
	<path fill="none" stroke="#FFFFFF" stroke-width="2.5" stroke-linecap="round" stroke-linejoin="round" stroke-miterlimit="10" d="
		M88.748,32.697c2.608-2.608,9.506-3.469,9.014-5.873s-4.623-1.541-6.961-3.879c-2.338-2.337-0.48-4.837-2.785-7.143
		c-2.305-2.305-5.082-0.725-6.938-2.58s-2.125-6.482-4.037-7.12c-1.914-0.637-2.71,5.154-5.787,9.1V15.2L39.547,46.908
		l14.609,14.609"/>
</g>
</svg>
