<?xml version="1.0" encoding="utf-8"?>
<!-- Generator: Adobe Illustrator 23.0.1, SVG Export Plug-In . SVG Version: 6.00 Build 0)  -->
<svg version="1.1" id="Layer_1" xmlns="http://www.w3.org/2000/svg" xmlns:xlink="http://www.w3.org/1999/xlink" x="0px" y="0px"
	 viewBox="0 0 120 80" style="enable-background:new 0 0 120 80;" xml:space="preserve">
<style type="text/css">
	.st0{fill:none;stroke:#292A2A;stroke-width:2.5;stroke-linecap:round;stroke-linejoin:round;stroke-miterlimit:10;}
	.st1{fill:none;stroke:#292A2A;stroke-miterlimit:10;}
</style>
<g>
	<g>
		<g>
			<path class="st0" d="M82.7,62c0,0,7-7.1,10.2-10.3c3-3-0.7-7-4-3.8c-2.2,2.2-11.5,10.8-14.8,14.2c-2.6,2.6-2.8,7.5-2.8,11.5
				c4.1,0,12.4,0,14.8,0c0-4.1,0.6-6.2,1.7-7.5c1.3-1.6,5.7-6.3,8.9-9.9c2.4-2.6,2.4-4.7,2.4-7.5c0-4.4-0.1-10.3-0.1-13.1
				c0-4.3-5.7-4.2-5.7,0s0,11.7,0,11.7"/>
		</g>
		<g>
			<path class="st0" d="M37.3,62c0,0-7-7.1-10.2-10.3c-3-3,0.7-7,4-3.8c2.2,2.2,11.5,10.8,14.8,14.2c2.6,2.6,2.8,7.5,2.8,11.5
				c-4.1,0-12.4,0-14.8,0c0-4.1-0.6-6.2-1.7-7.5c-1.3-1.6-5.7-6.3-8.9-9.9c-2.4-2.6-2.4-4.7-2.4-7.5c0-4.4,0.1-10.3,0.1-13.1
				c0-4.3,5.7-4.2,5.7,0s0,11.7,0,11.7"/>
		</g>
	</g>
	<g>
		<rect x="37" y="30.2" class="st0" width="46" height="16"/>
		<g>
			<path class="st0" d="M40.5,30.2c0-3.9,3.2-7,7-7c3.9,0,7,3.2,7,7"/>
			<path class="st0" d="M54.6,29.6c-1-4.3-3.5-13.5-3.7-18.1C50.8,7,56,4,59.4,8.7c3.4,4.8,5.2,13.5,7,21"/>
			<path class="st0" d="M58.2,16c1.9,0.8,4,2,5.8,4.2"/>
			<path class="st0" d="M60.1,24c1.9,0.8,4,2,5.8,4.2"/>
			<path class="st0" d="M66.4,30.2c0-3.7-0.4-6.8,1.4-9.4c1.6-2.2,2.3-4.1,2.3-5.1c-3.4,0-3.3-4.6-0.1-4.6c1.9,0,4.6,0,5.8,0
				c2.9,0,3.4,4.6-0.3,4.6c0,1-0.1,2.8,1.8,5.3c1.9,2.5,2.1,5.4,2.1,8.9"/>
			<path class="st1" d="M45.2,16.3c-1.4-1.4-4-1.2-4-1.2s-0.3,2.6,1.2,4c1.4,1.4,4,1.2,4,1.2S46.7,17.7,45.2,16.3z"/>
		</g>
	</g>
</g>
</svg>
