<?xml version="1.0" encoding="utf-8"?>
<!-- Generator: Adobe Illustrator 16.0.0, SVG Export Plug-In . SVG Version: 6.00 Build 0)  -->
<!DOCTYPE svg PUBLIC "-//W3C//DTD SVG 1.1//EN" "http://www.w3.org/Graphics/SVG/1.1/DTD/svg11.dtd">
<svg version="1.1" id="Layer_1" xmlns="http://www.w3.org/2000/svg" xmlns:xlink="http://www.w3.org/1999/xlink" x="0px" y="0px"
	 width="120px" height="80px" viewBox="0 0 120 80" enable-background="new 0 0 120 80" xml:space="preserve">
<g>
	
		<circle fill="none" stroke="#FFFFFF" stroke-width="2.5" stroke-linecap="round" stroke-linejoin="round" stroke-miterlimit="10" cx="38.938" cy="16.357" r="10.69"/>
	<path fill="none" stroke="#FFFFFF" stroke-width="2.5" stroke-linecap="round" stroke-linejoin="round" stroke-miterlimit="10" d="
		M51.482,39.591c0-6.928-5.617-12.544-12.545-12.544s-12.544,5.617-12.544,12.544v15.281h25.089V39.591z"/>
	<g>
		
			<path fill="none" stroke="#FFFFFF" stroke-width="2.5" stroke-linecap="round" stroke-linejoin="round" stroke-miterlimit="10" d="
			M84.574,23.156c-0.01,0.127-0.012,0.229-0.012,0.291c0,4.659,6.688,4.509,9.043,3.146c-0.84-1.354-2.59-6.438-5.854-6.337
			c-0.675,0.02-1.188,0.181-1.606,0.404"/>
		
			<path fill="none" stroke="#FFFFFF" stroke-width="2.5" stroke-linecap="round" stroke-linejoin="round" stroke-miterlimit="10" d="
			M67.9,23.156c0.011,0.127,0.014,0.229,0.014,0.291c0,4.659-6.691,4.509-9.044,3.146c0.839-1.354,2.591-6.438,5.856-6.337
			c0.674,0.02,1.188,0.181,1.604,0.404"/>
		
			<circle fill="none" stroke="#FFFFFF" stroke-width="2.5" stroke-linecap="round" stroke-linejoin="round" stroke-miterlimit="10" cx="76.225" cy="16.357" r="10.691"/>
		
			<path fill="none" stroke="#FFFFFF" stroke-width="2.5" stroke-linecap="round" stroke-linejoin="round" stroke-miterlimit="10" d="
			M76.225,5.854c0,5.904-4.787,10.689-10.688,10.689"/>
		
			<path fill="none" stroke="#FFFFFF" stroke-width="2.5" stroke-linecap="round" stroke-linejoin="round" stroke-miterlimit="10" d="
			M86.914,16.543c-5.903,0-10.689-4.786-10.689-10.689"/>
	</g>
	<path fill="none" stroke="#FFFFFF" stroke-width="2.5" stroke-linecap="round" stroke-linejoin="round" stroke-miterlimit="10" d="
		M65.548,48.621L61.854,64.6h28.771L86.93,48.621V37.737c0-5.904-4.785-10.69-10.688-10.69c-5.904,0-10.69,4.786-10.69,10.69v10.884
		H65.548z"/>
	<g>
		<g>
			
				<path fill="none" stroke="#FFFFFF" stroke-width="2.5" stroke-linecap="round" stroke-linejoin="round" stroke-miterlimit="10" d="
				M36.293,54.872v16.702c0,1.523-1.236,2.759-2.759,2.759c-1.524,0-2.76-1.235-2.76-2.759V54.872"/>
		</g>
		<g>
			
				<path fill="none" stroke="#FFFFFF" stroke-width="2.5" stroke-linecap="round" stroke-linejoin="round" stroke-miterlimit="10" d="
				M47.1,54.872v16.702c0,1.523-1.235,2.759-2.759,2.759c-1.524,0-2.759-1.235-2.759-2.759V54.872"/>
		</g>
	</g>
	<g>
		<g>
			
				<path fill="none" stroke="#FFFFFF" stroke-width="2.5" stroke-linecap="round" stroke-linejoin="round" stroke-miterlimit="10" d="
				M73.594,64.602v6.976c0,1.521-1.236,2.759-2.76,2.759s-2.758-1.232-2.758-2.759v-6.976"/>
		</g>
		<g>
			
				<path fill="none" stroke="#FFFFFF" stroke-width="2.5" stroke-linecap="round" stroke-linejoin="round" stroke-miterlimit="10" d="
				M84.4,64.602v6.976c0,1.521-1.234,2.759-2.758,2.759c-1.524,0-2.763-1.232-2.763-2.759v-6.976"/>
		</g>
	</g>
</g>
</svg>
