<?xml version="1.0" encoding="utf-8"?>
<!-- Generator: Adobe Illustrator 16.0.0, SVG Export Plug-In . SVG Version: 6.00 Build 0)  -->
<!DOCTYPE svg PUBLIC "-//W3C//DTD SVG 1.1//EN" "http://www.w3.org/Graphics/SVG/1.1/DTD/svg11.dtd">
<svg version="1.1" id="Layer_1" xmlns="http://www.w3.org/2000/svg" xmlns:xlink="http://www.w3.org/1999/xlink" x="0px" y="0px"
	 width="120px" height="80px" viewBox="0 0 120 80" enable-background="new 0 0 120 80" xml:space="preserve">
<g>
	
		<rect x="19.152" y="7.684" fill="none" stroke="#FFFFFF" stroke-width="2.5" stroke-linecap="round" stroke-linejoin="round" stroke-miterlimit="10" width="81.696" height="52.295"/>
	
		<line fill="none" stroke="#FFFFFF" stroke-width="2.5" stroke-linecap="round" stroke-linejoin="round" stroke-miterlimit="10" x1="19.152" y1="5.366" x2="19.152" y2="74.634"/>
	<g>
		
			<polyline fill="none" stroke="#FFFFFF" stroke-width="2.5" stroke-linecap="round" stroke-linejoin="round" stroke-miterlimit="10" points="
			27.275,7.684 52.35,23.579 52.35,7.684 		"/>
		
			<polyline fill="none" stroke="#FFFFFF" stroke-width="2.5" stroke-linecap="round" stroke-linejoin="round" stroke-miterlimit="10" points="
			19.243,11.383 41.399,24.853 47.531,24.853 20.407,7.684 		"/>
		
			<polyline fill="none" stroke="#FFFFFF" stroke-width="2.5" stroke-linecap="round" stroke-linejoin="round" stroke-miterlimit="10" points="
			19.243,24.853 35.31,24.853 19.243,14.72 		"/>
		
			<polyline fill="none" stroke="#FFFFFF" stroke-width="2.5" stroke-linecap="round" stroke-linejoin="round" stroke-miterlimit="10" points="
			55.927,7.684 55.927,28.402 19.243,28.402 		"/>
		
			<line fill="none" stroke="#FFFFFF" stroke-width="2.5" stroke-linecap="round" stroke-linejoin="round" stroke-miterlimit="10" x1="19.243" y1="28.402" x2="19.152" y2="28.402"/>
	</g>
	<g>
		
			<polyline fill="none" stroke="#FFFFFF" stroke-width="2.5" stroke-linecap="round" stroke-linejoin="round" stroke-miterlimit="10" points="
			67.65,7.684 67.65,23.579 92.725,7.684 		"/>
		
			<polyline fill="none" stroke="#FFFFFF" stroke-width="2.5" stroke-linecap="round" stroke-linejoin="round" stroke-miterlimit="10" points="
			99.593,7.684 72.469,24.853 78.601,24.853 100.757,11.383 		"/>
		
			<polyline fill="none" stroke="#FFFFFF" stroke-width="2.5" stroke-linecap="round" stroke-linejoin="round" stroke-miterlimit="10" points="
			100.757,14.72 84.69,24.853 100.757,24.853 		"/>
		
			<polyline fill="none" stroke="#FFFFFF" stroke-width="2.5" stroke-linecap="round" stroke-linejoin="round" stroke-miterlimit="10" points="
			100.757,28.402 64.072,28.402 64.072,7.684 		"/>
		
			<line fill="none" stroke="#FFFFFF" stroke-width="2.5" stroke-linecap="round" stroke-linejoin="round" stroke-miterlimit="10" x1="100.848" y1="28.402" x2="100.757" y2="28.402"/>
	</g>
	<g>
		
			<polyline fill="none" stroke="#FFFFFF" stroke-width="2.5" stroke-linecap="round" stroke-linejoin="round" stroke-miterlimit="10" points="
			92.725,59.979 67.65,44.083 67.65,59.979 		"/>
		
			<polyline fill="none" stroke="#FFFFFF" stroke-width="2.5" stroke-linecap="round" stroke-linejoin="round" stroke-miterlimit="10" points="
			100.757,56.279 78.601,42.81 72.469,42.81 99.593,59.979 		"/>
		
			<polyline fill="none" stroke="#FFFFFF" stroke-width="2.5" stroke-linecap="round" stroke-linejoin="round" stroke-miterlimit="10" points="
			100.757,42.81 84.69,42.81 100.757,52.942 		"/>
		
			<polyline fill="none" stroke="#FFFFFF" stroke-width="2.5" stroke-linecap="round" stroke-linejoin="round" stroke-miterlimit="10" points="
			64.072,59.979 64.072,39.26 100.757,39.26 		"/>
		
			<line fill="none" stroke="#FFFFFF" stroke-width="2.5" stroke-linecap="round" stroke-linejoin="round" stroke-miterlimit="10" x1="100.757" y1="39.26" x2="100.848" y2="39.26"/>
	</g>
	<g>
		
			<polyline fill="none" stroke="#FFFFFF" stroke-width="2.5" stroke-linecap="round" stroke-linejoin="round" stroke-miterlimit="10" points="
			52.35,59.979 52.35,44.083 27.275,59.979 		"/>
		
			<polyline fill="none" stroke="#FFFFFF" stroke-width="2.5" stroke-linecap="round" stroke-linejoin="round" stroke-miterlimit="10" points="
			20.407,59.979 47.531,42.81 41.399,42.81 19.243,56.279 		"/>
		
			<polyline fill="none" stroke="#FFFFFF" stroke-width="2.5" stroke-linecap="round" stroke-linejoin="round" stroke-miterlimit="10" points="
			19.243,52.942 35.31,42.81 19.243,42.81 		"/>
		
			<polyline fill="none" stroke="#FFFFFF" stroke-width="2.5" stroke-linecap="round" stroke-linejoin="round" stroke-miterlimit="10" points="
			19.243,39.26 55.927,39.26 55.927,59.979 		"/>
		
			<line fill="none" stroke="#FFFFFF" stroke-width="2.5" stroke-linecap="round" stroke-linejoin="round" stroke-miterlimit="10" x1="19.152" y1="39.26" x2="19.243" y2="39.26"/>
	</g>
</g>
</svg>
