<?xml version="1.0" encoding="utf-8"?>
<!-- Generator: Adobe Illustrator 16.0.0, SVG Export Plug-In . SVG Version: 6.00 Build 0)  -->
<!DOCTYPE svg PUBLIC "-//W3C//DTD SVG 1.1//EN" "http://www.w3.org/Graphics/SVG/1.1/DTD/svg11.dtd">
<svg version="1.1" id="Layer_1" xmlns="http://www.w3.org/2000/svg" xmlns:xlink="http://www.w3.org/1999/xlink" x="0px" y="0px"
	 width="120px" height="80px" viewBox="0 0 120 80" enable-background="new 0 0 120 80" xml:space="preserve">
<g>
	<path fill="none" stroke="#FFFFFF" stroke-width="2.5" stroke-linecap="round" stroke-linejoin="round" stroke-miterlimit="10" d="
		M76.556,39.967H33.835c0,0,2.304,15.961,2.755,18.707c0.92,5.588,4.595,8.88,10.795,8.88c6.202,0,12.404,0,16.539,0
		c5.512,0,8.767-3.194,9.8-8.88C74.948,51.936,76.556,39.967,76.556,39.967z"/>
	
		<line fill="none" stroke="#FFFFFF" stroke-width="2.5" stroke-linecap="round" stroke-linejoin="round" stroke-miterlimit="10" x1="60.378" y1="35.883" x2="60.378" y2="14.855"/>
	
		<line fill="none" stroke="#FFFFFF" stroke-width="2.5" stroke-linecap="round" stroke-linejoin="round" stroke-miterlimit="10" x1="64.563" y1="27.205" x2="67.319" y2="27.205"/>
	
		<line fill="none" stroke="#FFFFFF" stroke-width="2.5" stroke-linecap="round" stroke-linejoin="round" stroke-miterlimit="10" x1="64.563" y1="15.263" x2="71.098" y2="15.263"/>
	<path fill="none" stroke="#FFFFFF" stroke-width="2.5" stroke-linecap="round" stroke-linejoin="round" stroke-miterlimit="10" d="
		M89.556,7.11c-0.105,0-65.824,0-65.824,0c-4.068,0-5.73,2.881-3.697,6.403l5.773,6.993c3.281,22.583,5.958,40.168,5.958,40.168
		c1.408,7.518,8.237,12.217,15.504,12.217h15.929c7.265,0,14.095-4.699,15.505-12.217c0,0,3.075-20.201,6.676-45.105h1.358
		c3.114,0,5.637,2.524,5.637,5.637V43.29c0,2.335,1.894,4.229,4.229,4.229c2.337,0,4.23-1.894,4.23-4.229c0,0,0-24.608,0-24.902
		C100.834,12.158,95.785,7.11,89.556,7.11L89.556,7.11z"/>
</g>
</svg>
