<?xml version="1.0" encoding="utf-8"?>
<!-- Generator: Adobe Illustrator 16.0.0, SVG Export Plug-In . SVG Version: 6.00 Build 0)  -->
<!DOCTYPE svg PUBLIC "-//W3C//DTD SVG 1.1//EN" "http://www.w3.org/Graphics/SVG/1.1/DTD/svg11.dtd">
<svg version="1.1" id="Layer_1" xmlns="http://www.w3.org/2000/svg" xmlns:xlink="http://www.w3.org/1999/xlink" x="0px" y="0px"
	 width="120px" height="80px" viewBox="0 0 120 80" enable-background="new 0 0 120 80" xml:space="preserve">
<g>
	
		<circle fill="none" stroke="#FFFFFF" stroke-width="2.5" stroke-linecap="round" stroke-linejoin="round" stroke-miterlimit="10" cx="33.589" cy="16.657" r="6.995"/>
	
		<circle fill="none" stroke="#FFFFFF" stroke-width="2.5" stroke-linecap="round" stroke-linejoin="round" stroke-miterlimit="10" cx="86.496" cy="16.657" r="6.996"/>
	
		<circle fill="none" stroke="#FFFFFF" stroke-width="2.5" stroke-linecap="round" stroke-linejoin="round" stroke-miterlimit="10" cx="60.195" cy="39.708" r="5.734"/>
	<path fill="none" stroke="#FFFFFF" stroke-width="2.5" stroke-linecap="round" stroke-linejoin="round" stroke-miterlimit="10" d="
		M33.589,67.46c0,2.28-1.849,4.128-4.129,4.128s-4.128-1.848-4.128-4.128V34.241c0,0-3.708,9.174-4.396,10.933
		s-2.597,2.522-4.154,1.683c-1.56-0.842-2.027-2.511-1.312-4.32s6.039-14.794,6.039-14.794c1.071-2.445,2.905-4.09,5.275-4.09
		c1.425,0,6.805,0,6.805,0"/>
	<path fill="none" stroke="#FFFFFF" stroke-width="2.5" stroke-linecap="round" stroke-linejoin="round" stroke-miterlimit="10" d="
		M79.157,34.241c0,0-3.939,17.163-4.513,19.801s-0.151,5.047,3.594,5.047v8.371c0,2.28,1.849,4.128,4.129,4.128
		s4.129-1.848,4.129-4.128"/>
	<path fill="none" stroke="#FFFFFF" stroke-width="2.5" stroke-linecap="round" stroke-linejoin="round" stroke-miterlimit="10" d="
		M86.496,59.089v8.371c0,2.28,1.848,4.128,4.128,4.128s4.128-1.848,4.128-4.128v-8.371"/>
	<path fill="none" stroke="#FFFFFF" stroke-width="2.5" stroke-linecap="round" stroke-linejoin="round" stroke-miterlimit="10" d="
		M93.834,34.241c0,0,3.939,17.163,4.513,19.801s0.151,5.047-3.595,5.047"/>
	
		<line fill="none" stroke="#FFFFFF" stroke-width="2.5" stroke-linecap="round" stroke-linejoin="round" stroke-miterlimit="10" x1="51.939" y1="43.339" x2="57.596" y2="44.868"/>
	<path fill="none" stroke="#FFFFFF" stroke-width="2.5" stroke-linecap="round" stroke-linejoin="round" stroke-miterlimit="10" d="
		M49.722,47.391l5.657,1.529v11.659v8.63c0,1.313,1.064,2.379,2.379,2.379s2.38-1.065,2.38-2.379"/>
	<path fill="none" stroke="#FFFFFF" stroke-width="2.5" stroke-linecap="round" stroke-linejoin="round" stroke-miterlimit="10" d="
		M71.357,47.162l-6.461,1.758v11.659v8.63c0,1.313-1.065,2.379-2.379,2.379c-1.314,0-2.38-1.065-2.38-2.379v-10.12"/>
	
		<line fill="none" stroke="#FFFFFF" stroke-width="2.5" stroke-linecap="round" stroke-linejoin="round" stroke-miterlimit="10" x1="69.14" y1="43.034" x2="62.832" y2="44.868"/>
	<path fill="none" stroke="#FFFFFF" stroke-width="2.5" stroke-linecap="round" stroke-linejoin="round" stroke-miterlimit="10" d="
		M33.589,23.652c0,0,5.38,0,6.805,0c2.369,0,4.204,1.645,5.274,4.09c0,0,5.324,12.984,6.04,14.794s0.248,3.479-1.312,4.32
		c-1.559,0.84-3.467,0.076-4.154-1.683c-0.688-1.759-4.396-10.933-4.396-10.933V67.46c0,2.28-1.849,4.128-4.129,4.128
		s-4.128-1.848-4.128-4.128V48.079"/>
	<path fill="none" stroke="#FFFFFF" stroke-width="2.5" stroke-linecap="round" stroke-linejoin="round" stroke-miterlimit="10" d="
		M25.332,34.241c0,0-3.708,9.174-4.396,10.933s-2.597,2.522-4.154,1.683c-1.56-0.842-2.027-2.511-1.312-4.32
		s6.039-14.794,6.039-14.794c1.071-2.445,2.905-4.09,5.275-4.09c1.425,0,6.805,0,6.805,0"/>
	<path fill="none" stroke="#FFFFFF" stroke-width="2.5" stroke-linecap="round" stroke-linejoin="round" stroke-miterlimit="10" d="
		M79.157,34.241c0,0-3.708,9.174-4.396,10.933s-2.597,2.522-4.154,1.683c-1.56-0.842-2.027-2.511-1.312-4.32
		s6.039-14.794,6.039-14.794c1.07-2.445,2.906-4.09,5.275-4.09c1.425,0,5.887,0,5.887,0"/>
	<path fill="none" stroke="#FFFFFF" stroke-width="2.5" stroke-linecap="round" stroke-linejoin="round" stroke-miterlimit="10" d="
		M93.834,34.241c0,0,3.708,9.174,4.396,10.933c0.688,1.759,2.597,2.522,4.154,1.683c1.56-0.842,2.027-2.511,1.312-4.32
		s-6.039-14.794-6.039-14.794c-1.071-2.445-2.905-4.09-5.275-4.09c-1.425,0-5.886,0-5.886,0"/>
</g>
</svg>
