<?xml version="1.0" encoding="utf-8"?>
<!-- Generator: Adobe Illustrator 23.0.1, SVG Export Plug-In . SVG Version: 6.00 Build 0)  -->
<svg version="1.1" id="Layer_1" xmlns="http://www.w3.org/2000/svg" xmlns:xlink="http://www.w3.org/1999/xlink" x="0px" y="0px"
	 viewBox="0 0 120 80" style="enable-background:new 0 0 120 80;" xml:space="preserve">
<style type="text/css">
	.st0{fill:none;stroke:#292A2A;stroke-width:2.5;stroke-linecap:round;stroke-miterlimit:10;}
	.st1{fill:#292A2A;stroke:#292A2A;stroke-miterlimit:10;}
</style>
<path class="st0" d="M34.1,13.5C27.2,20.2,23,29.6,23,40c0,20.5,16.6,37,37,37c7.4,0,14.3-2.2,20-5.9"/>
<path class="st0" d="M84.9,67.4C92.4,60.7,97,50.9,97,40C97,19.5,80.5,3,60,3c-7.9,0-15.2,2.5-21.2,6.7"/>
<circle class="st0" cx="60" cy="40" r="24.7"/>
<path class="st0" d="M44.4,21c0.9,0.2,4.4,0.5,3.3,2.7s-1.7,3.6,0.3,3.9c2.1,0.2,4-3.3,5.2-3.3s4.8-0.6,5,2.5c0.2,3.1-2.5,4-5.6,4
	s-2.1,2.3-2.1,3.4c0.1,1.1,0.8,4.2-1.4,3.3c-2.2-1-3.2-4.7-5.5-3.8s-1.2,4.5,0,5.9c2.4,2.9,6.7,1.6,9.3,4.5c1.5,1.8,1.4,5.5-1.3,6.3
	c-1.7,0.6-0.1,6-2.1,6.9c-1.1,0.5-2.7-0.8-3.3-4.4s-2.6-2.8-4.7-6.3c-1.1-1.9-1.9-4.9-2.4-7.6c-0.5-2.7-2.7-5.4-2.7-5.4"/>
<path class="st0" d="M69.7,33c-3.1-0.9-8.8,0.3-9.8,3.7c-1,3.4-0.5,7,3.3,6.7c3.7-0.3,6.2,2.5,5.9,5.7c-0.3,3.3,2.3,7.9,5.5,4.4
	s2.9-8.7,2.5-12.5C76.7,37.1,72.5,33.8,69.7,33z"/>
<path class="st0" d="M75.2,20.7c-1.8-1-8.1-0.7-9.9-0.6c-1.8,0.2-2.1,2.1,0,3.4c2.1,1.3-0.8,3.1,0.6,4.3s4.5,1.8,5.9-0.7
	c1.3-2.5,3.7-1.8,4.9,0.5c1.3,2.3,0.2,3.7,1,4.9c1.2,1.7,3.3,1.8,5.8,0.6"/>
<path class="st1" d="M34.3,17.3c0.3,0.3,0.8,0.2,0.8-0.2v-3.9v0c0-0.3-0.2-0.6-0.6-0.6h-3.9c-0.4,0-0.6,0.4-0.2,0.8L34.3,17.3z"/>
<path class="st1" d="M84.8,63.6c-0.3-0.3-0.8-0.2-0.8,0.2v3.9h0c0,0.3,0.2,0.6,0.6,0.6h3.9c0.4,0,0.6-0.4,0.2-0.8L84.8,63.6z"/>
</svg>
