<?xml version="1.0" encoding="utf-8"?>
<!-- Generator: Adobe Illustrator 23.0.1, SVG Export Plug-In . SVG Version: 6.00 Build 0)  -->
<svg version="1.1" id="Layer_1" xmlns="http://www.w3.org/2000/svg" xmlns:xlink="http://www.w3.org/1999/xlink" x="0px" y="0px"
	 viewBox="0 0 120 80" style="enable-background:new 0 0 120 80;" xml:space="preserve">
<style type="text/css">
	.st0{fill:none;stroke:#292A2A;stroke-width:2.5;stroke-linecap:round;stroke-miterlimit:10;}
</style>
<g>
	<circle class="st0" cx="60" cy="40" r="34.1"/>
	<path class="st0" d="M38.5,13.8c1.2,0.2,6.1,0.7,4.5,3.7c-1.6,3.1-2.4,5,0.4,5.4s5.6-4.5,7.2-4.5s6.7-0.9,6.9,3.4
		c0.2,4.3-3.4,5.6-7.8,5.6s-3,3.2-2.8,4.7c0.1,1.5,1.1,5.8-2,4.5c-3.1-1.3-4.4-6.5-7.6-5.3c-3.2,1.2-1.6,6.2,0,8.1
		c3.4,4,9.3,2.2,12.8,6.2c2.1,2.4,1.9,7.5-1.8,8.8c-2.3,0.8-0.1,8.3-2.8,9.5c-1.5,0.7-3.7-1.1-4.6-6c-0.9-4.9-3.6-3.9-6.5-8.8
		c-1.5-2.6-2.6-6.8-3.3-10.5c-0.7-3.7-3.7-7.5-3.7-7.5"/>
	<path class="st0" d="M73.4,30.4c-4.3-1.2-12.2,0.4-13.5,5.2c-1.3,4.7-0.7,9.6,4.5,9.2c5.2-0.4,8.6,3.4,8.1,7.9
		c-0.4,4.5,3.2,10.9,7.6,6.1c4.4-4.7,4.1-11.9,3.5-17.3C83,36.1,77.3,31.4,73.4,30.4z"/>
	<path class="st0" d="M80.9,13.4c-2.5-1.3-11.2-1-13.7-0.8c-2.5,0.2-2.8,3,0,4.7c2.8,1.8-1.1,4.3,0.9,5.9s6.2,2.5,8.1-1
		s5-2.5,6.8,0.7c1.8,3.2,0.2,5.1,1.4,6.8c1.6,2.3,4.6,2.5,8,0.8"/>
</g>
</svg>
