<?xml version="1.0" encoding="utf-8"?>
<!-- Generator: Adobe Illustrator 16.0.0, SVG Export Plug-In . SVG Version: 6.00 Build 0)  -->
<!DOCTYPE svg PUBLIC "-//W3C//DTD SVG 1.1//EN" "http://www.w3.org/Graphics/SVG/1.1/DTD/svg11.dtd">
<svg version="1.1" id="Layer_1" xmlns="http://www.w3.org/2000/svg" xmlns:xlink="http://www.w3.org/1999/xlink" x="0px" y="0px"
	 width="120px" height="80px" viewBox="0 0 120 80" enable-background="new 0 0 120 80" xml:space="preserve">
<g>
	<g>
		
			<line fill="none" stroke="#FFFFFF" stroke-width="2.5" stroke-linecap="round" stroke-linejoin="round" stroke-miterlimit="10" x1="31.167" y1="43.228" x2="30.931" y2="47.087"/>
		
			<line fill="none" stroke="#FFFFFF" stroke-width="2.5" stroke-linecap="round" stroke-linejoin="round" stroke-miterlimit="10" x1="38.172" y1="48.964" x2="34.434" y2="49.957"/>
		
			<line fill="none" stroke="#FFFFFF" stroke-width="2.5" stroke-linecap="round" stroke-linejoin="round" stroke-miterlimit="10" x1="34.935" y1="57.422" x2="32.814" y2="54.186"/>
		
			<line fill="none" stroke="#FFFFFF" stroke-width="2.5" stroke-linecap="round" stroke-linejoin="round" stroke-miterlimit="10" x1="25.888" y1="57.012" x2="28.292" y2="53.98"/>
		
			<line fill="none" stroke="#FFFFFF" stroke-width="2.5" stroke-linecap="round" stroke-linejoin="round" stroke-miterlimit="10" x1="23.427" y1="48.298" x2="27.06" y2="49.623"/>
	</g>
	<g>
		
			<line fill="none" stroke="#FFFFFF" stroke-width="2.5" stroke-linecap="round" stroke-linejoin="round" stroke-miterlimit="10" x1="81.719" y1="12.694" x2="81.695" y2="15.677"/>
		
			<line fill="none" stroke="#FFFFFF" stroke-width="2.5" stroke-linecap="round" stroke-linejoin="round" stroke-miterlimit="10" x1="87.344" y1="16.826" x2="84.506" y2="17.741"/>
		
			<line fill="none" stroke="#FFFFFF" stroke-width="2.5" stroke-linecap="round" stroke-linejoin="round" stroke-miterlimit="10" x1="85.195" y1="23.465" x2="83.434" y2="21.062"/>
		
			<line fill="none" stroke="#FFFFFF" stroke-width="2.5" stroke-linecap="round" stroke-linejoin="round" stroke-miterlimit="10" x1="78.217" y1="23.518" x2="79.943" y2="21.087"/>
		
			<line fill="none" stroke="#FFFFFF" stroke-width="2.5" stroke-linecap="round" stroke-linejoin="round" stroke-miterlimit="10" x1="75.967" y1="16.911" x2="78.818" y2="17.784"/>
	</g>
	<path fill="none" stroke="#FFFFFF" stroke-width="2.5" stroke-linecap="round" stroke-linejoin="round" stroke-miterlimit="10" d="
		M72.045,28.226c0,11.603-4.352,13.9-9.721,13.9c-5.368,0-9.719-2.298-9.719-13.9s9.719-21.009,9.719-21.009
		S72.045,16.623,72.045,28.226z"/>
	<path fill="none" stroke="#FFFFFF" stroke-width="2.5" stroke-linecap="round" stroke-linejoin="round" stroke-miterlimit="10" d="
		M77.87,48.901c-11.378,2.268-14.484-1.552-15.532-6.815c-1.051-5.265,0.354-9.983,11.734-12.25
		c11.377-2.268,22.501,5.429,22.501,5.429S89.25,46.635,77.87,48.901z"/>
	<path fill="none" stroke="#FFFFFF" stroke-width="2.5" stroke-linecap="round" stroke-linejoin="round" stroke-miterlimit="10" d="
		M60.975,60.378c-6.28-9.755-3.867-14.043,0.65-16.948c4.512-2.906,9.416-3.33,15.695,6.426c6.28,9.755,3.197,22.928,3.197,22.928
		S67.255,70.133,60.975,60.378z"/>
	<path fill="none" stroke="#FFFFFF" stroke-width="2.5" stroke-linecap="round" stroke-linejoin="round" stroke-miterlimit="10" d="
		M45.085,48.214c7.224-9.079,12.065-8.169,16.26-4.827c4.203,3.342,6.18,7.851-1.043,16.929
		c-7.223,9.082-20.688,10.391-20.688,10.391S37.864,57.295,45.085,48.214z"/>
	<path fill="none" stroke="#FFFFFF" stroke-width="2.5" stroke-linecap="round" stroke-linejoin="round" stroke-miterlimit="10" d="
		M52.297,27.431c10.66,4.581,11.054,9.489,8.938,14.419c-2.121,4.931-5.952,8.023-16.612,3.443
		c-10.66-4.581-15.462-17.226-15.462-17.226S41.639,22.851,52.297,27.431z"/>
</g>
</svg>
