<?xml version="1.0" encoding="utf-8"?>
<!-- Generator: Adobe Illustrator 16.0.0, SVG Export Plug-In . SVG Version: 6.00 Build 0)  -->
<!DOCTYPE svg PUBLIC "-//W3C//DTD SVG 1.1//EN" "http://www.w3.org/Graphics/SVG/1.1/DTD/svg11.dtd">
<svg version="1.1" id="Layer_1" xmlns="http://www.w3.org/2000/svg" xmlns:xlink="http://www.w3.org/1999/xlink" x="0px" y="0px"
	 width="120px" height="80px" viewBox="0 0 120 80" enable-background="new 0 0 120 80" xml:space="preserve">
<g>
	<path fill="#FFFFFF" d="M23.173,56.086h8.411V26.369h-6.392v-1.682c1.458-0.261,2.756-0.579,3.897-0.954
		c1.14-0.373,2.14-0.803,3-1.29h2.019v33.643h7.794v2.188H23.173V56.086z"/>
	<path fill="#FFFFFF" d="M58.722,58.946c-3.44,0-6.084-1.616-7.935-4.851c-1.85-3.232-2.775-7.858-2.775-13.877
		c0-5.98,0.925-10.55,2.775-13.709c1.851-3.159,4.495-4.738,7.935-4.738c3.438,0,6.083,1.58,7.934,4.738
		c1.85,3.159,2.775,7.729,2.775,13.709c0,6.019-0.926,10.645-2.775,13.877C64.806,57.33,62.16,58.946,58.722,58.946z M58.722,56.815
		c2.504,0,4.495-1.392,5.971-4.177s2.215-6.926,2.215-12.42c0-5.495-0.738-9.588-2.215-12.28s-3.467-4.037-5.971-4.037
		c-2.467,0-4.449,1.346-5.944,4.037c-1.496,2.691-2.243,6.785-2.243,12.28c0,5.495,0.747,9.635,2.243,12.42
		C54.273,55.424,56.255,56.815,58.722,56.815z"/>
	<path fill="#FFFFFF" d="M85.58,58.946c-3.439,0-6.084-1.616-7.935-4.851c-1.851-3.232-2.775-7.858-2.775-13.877
		c0-5.98,0.925-10.55,2.775-13.709c1.851-3.159,4.495-4.738,7.935-4.738c3.438,0,6.084,1.58,7.934,4.738
		c1.851,3.159,2.775,7.729,2.775,13.709c0,6.019-0.925,10.645-2.775,13.877C91.664,57.33,89.019,58.946,85.58,58.946z M85.58,56.815
		c2.504,0,4.494-1.392,5.972-4.177c1.476-2.785,2.215-6.926,2.215-12.42c0-5.495-0.739-9.588-2.215-12.28
		c-1.478-2.691-3.468-4.037-5.972-4.037c-2.467,0-4.449,1.346-5.943,4.037c-1.496,2.691-2.243,6.785-2.243,12.28
		c0,5.495,0.747,9.635,2.243,12.42C81.131,55.424,83.113,56.815,85.58,56.815z"/>
</g>
</svg>
