<svg xmlns="http://www.w3.org/2000/svg" fill="none" viewBox="0 0 233 229" height="229" width="233">
<path fill="#27463A" d="M87.1231 117.819L86.849 118.008C86.765 117.948 86.6801 117.876 86.5961 117.819L85.647 118.467C85.647 118.467 87.1851 120.305 92.9721 129.253C95.9284 134.125 98.2959 139.331 100.025 144.762C93.2559 141.207 87.4087 136.122 82.9481 129.913C75.8571 119.78 73.5821 112.033 75.9481 105.574C79.3601 106.874 100.255 116.166 113.522 152.318L113.749 151.527C113.849 151.794 113.949 152.048 114.049 152.318L114.729 149.941C99.892 100.084 70.8761 98.0405 70.8761 98.0405C70.8681 98.0575 70.8621 98.0765 70.8531 98.0935C70.6711 98.0665 70.5211 98.0495 70.4431 98.0405H70.3551C66.1311 106.734 68.1311 120.05 77.7271 133.2C87.3411 146.4 103.882 149.114 103.882 149.114V149.108L103.782 148.995C103.786 148.993 103.79 148.993 103.794 148.995L103.885 149.095C103.885 149.068 103.885 149.039 103.885 149.013C104.196 149.076 104.404 149.113 104.404 149.113C104.404 137.026 94.9611 123.187 87.1281 117.818"></path>
<path stroke="#27463A" d="M87.1231 117.819L86.849 118.008C86.765 117.948 86.6801 117.876 86.5961 117.819L85.647 118.467C85.647 118.467 87.1851 120.305 92.9721 129.253C95.9284 134.125 98.2959 139.331 100.025 144.762C93.2559 141.207 87.4087 136.122 82.9481 129.913C75.8571 119.78 73.5821 112.033 75.9481 105.574C79.3601 106.874 100.255 116.166 113.522 152.318L113.749 151.527C113.849 151.794 113.949 152.048 114.049 152.318L114.729 149.941C99.892 100.084 70.8761 98.0405 70.8761 98.0405C70.8681 98.0575 70.8621 98.0765 70.8531 98.0935C70.6711 98.0665 70.5211 98.0495 70.4431 98.0405H70.3551C66.1311 106.734 68.1311 120.05 77.7271 133.2C87.3411 146.4 103.882 149.114 103.882 149.114V149.108L103.782 148.995C103.786 148.993 103.79 148.993 103.794 148.995L103.885 149.095C103.885 149.068 103.885 149.039 103.885 149.013C104.196 149.076 104.404 149.113 104.404 149.113C104.404 137.026 94.9611 123.187 87.1281 117.818"></path>
<path fill="#27463A" d="M118.837 62.2374C110.022 67.0654 102.586 82.8374 103.1 100.216C103.323 110.567 107.602 120.417 115.016 127.643C115.085 127.543 115.144 127.431 115.216 127.328C115.416 127.52 115.555 127.643 115.555 127.643C123.512 116.127 123.43 97.8704 117.799 82.8944H116.131C117.25 89.742 117.652 96.6875 117.331 103.618C117.062 109.562 116.065 115.449 114.365 121.15C111.165 114.69 109.551 107.559 109.654 100.35C109.614 87.2604 113.254 76.1275 119.154 71.8725C121.318 73.5635 135.748 86.9464 123.836 136.055C120.756 148.416 116.676 160.506 111.636 172.205L111.785 172.072L116.285 168.393C117.485 164.649 123.674 150.493 126.653 142.666C138.566 111.401 156.86 103.976 160.033 102.9C161.981 108.682 159.267 115.672 152.999 124.345C149.213 129.505 144.251 133.688 138.524 136.545C140.112 131.81 142.285 127.292 144.992 123.095C150.114 115.416 151.384 113.836 151.384 113.836L150.658 113.246C150.564 113.306 150.469 113.381 150.375 113.446L150.134 113.246C143.185 117.659 134.762 129.577 134.611 140.274H134.617C134.637 140.274 134.841 140.245 135.151 140.199C135.151 140.224 135.145 140.25 135.145 140.274C135.145 140.274 149.015 138.793 157.582 127.474C166.112 116.198 168.542 104.305 165.02 96.4104C164.334 96.302 163.639 96.2592 162.944 96.2824C158.256 96.1914 143.578 98.2315 130.605 124.682C142.211 74.1565 119.415 62.2104 119.415 62.2104C119.327 62.2584 119.243 62.3225 119.158 62.3735C118.979 62.2645 118.88 62.2104 118.88 62.2104C118.866 62.2173 118.854 62.2272 118.845 62.2394"></path>
<path stroke="#27463A" d="M118.837 62.2374C110.022 67.0654 102.586 82.8374 103.1 100.216C103.323 110.567 107.602 120.417 115.016 127.643C115.085 127.543 115.144 127.431 115.216 127.328C115.416 127.52 115.555 127.643 115.555 127.643C123.512 116.127 123.43 97.8704 117.799 82.8944H116.131C117.25 89.742 117.652 96.6875 117.331 103.618C117.062 109.562 116.065 115.449 114.365 121.15C111.165 114.69 109.551 107.559 109.654 100.35C109.614 87.2604 113.254 76.1275 119.154 71.8725C121.318 73.5635 135.748 86.9464 123.836 136.055C120.756 148.416 116.676 160.506 111.636 172.205L111.785 172.072L116.285 168.393C117.485 164.649 123.674 150.493 126.653 142.666C138.566 111.401 156.86 103.976 160.033 102.9C161.981 108.682 159.267 115.672 152.999 124.345C149.213 129.505 144.251 133.688 138.524 136.545C140.112 131.81 142.285 127.292 144.992 123.095C150.114 115.416 151.384 113.836 151.384 113.836L150.658 113.246C150.564 113.306 150.469 113.381 150.375 113.446L150.134 113.246C143.185 117.659 134.762 129.577 134.611 140.274H134.617C134.637 140.274 134.841 140.245 135.151 140.199C135.151 140.224 135.145 140.25 135.145 140.274C135.145 140.274 149.015 138.793 157.582 127.474C166.112 116.198 168.542 104.305 165.02 96.4104C164.334 96.302 163.639 96.2592 162.944 96.2824C158.256 96.1914 143.578 98.2315 130.605 124.682C142.211 74.1565 119.415 62.2104 119.415 62.2104C119.327 62.2584 119.243 62.3225 119.158 62.3735C118.979 62.2645 118.88 62.2104 118.88 62.2104C118.866 62.2173 118.854 62.2272 118.845 62.2394M137.912 136.829C137.923 136.824 137.935 136.819 137.947 136.815"></path>
</svg>
