<svg xmlns="http://www.w3.org/2000/svg" fill="none" viewBox="0 0 233 228" height="228" width="233">
<path fill="#27463A" d="M119.297 67.154C123.396 67.082 127.484 67.6134 131.429 68.731C135.517 69.8756 139.413 71.6199 142.99 73.907C146.064 75.8664 148.88 78.2041 151.372 80.865C153.872 83.5335 156.041 86.4947 157.83 89.684C159.277 92.2554 160.482 94.9557 161.43 97.75C162.671 101.342 163.464 105.074 163.792 108.86C163.956 110.843 164.055 112.839 164.046 114.827C164.016 117.394 163.779 119.954 163.337 122.483C162.653 126.573 161.5 130.57 159.902 134.396C157.945 139.086 155.324 143.471 152.121 147.417C148.99 151.298 145.311 154.702 141.199 157.524C136.197 160.985 130.586 163.469 124.661 164.843C122.264 165.394 119.827 165.75 117.373 165.908C112.337 166.249 107.281 165.712 102.429 164.322C97.4184 162.903 92.7115 160.575 88.543 157.453C86.996 156.296 85.483 155.092 83.992 153.862C83.4862 153.41 83.0284 152.908 82.626 152.362C82.315 151.972 82.438 151.649 82.934 151.562C83.3674 151.483 83.8098 151.466 84.248 151.511C86.62 151.767 88.984 152.1 91.36 152.311C93.49 152.488 95.6314 152.48 97.76 152.286C100.724 152.031 103.648 151.432 106.473 150.502C111.319 148.913 115.823 146.426 119.751 143.173C122.019 141.234 124.138 139.128 126.092 136.873C127.616 135.019 128.931 133.003 130.011 130.86C131.325 128.557 132.445 126.149 133.359 123.66C133.786 122.382 134.148 121.082 134.442 119.767C134.887 118.205 135.194 116.607 135.361 114.992C135.439 113.897 135.581 112.804 135.593 111.709C135.614 109.742 135.633 107.769 135.517 105.809C135.328 102.912 134.815 100.045 133.987 97.262C133.288 94.8278 132.366 92.4632 131.233 90.198C129.733 87.2072 127.863 84.4161 125.669 81.8901C122.892 78.6593 119.57 75.941 115.853 73.859C113.896 72.771 111.83 71.8771 109.814 70.8941C109.107 70.5491 108.388 70.223 107.699 69.845C107.379 69.669 106.97 69.461 107.037 69.002C107.096 68.593 107.523 68.5151 107.837 68.4471C108.955 68.2021 110.078 67.9601 111.211 67.8121C113.138 67.5591 115.073 67.356 117.011 67.179C117.763 67.096 118.533 67.154 119.297 67.154Z"></path>
<path fill="#27463A" d="M93.861 67.882L97.3019 74.855C97.3315 74.9148 97.3751 74.9665 97.4291 75.0057C97.4832 75.0449 97.5459 75.0704 97.6119 75.08L105.312 76.198C105.387 76.2095 105.458 76.2416 105.516 76.291C105.575 76.3404 105.618 76.4051 105.642 76.4777C105.665 76.5503 105.668 76.6281 105.65 76.7023C105.632 76.7765 105.594 76.8442 105.54 76.8979L99.972 82.3259C99.9241 82.3724 99.8883 82.4299 99.8676 82.4933C99.8469 82.5567 99.8418 82.6242 99.8529 82.6899L101.168 90.3529C101.181 90.4289 101.173 90.5072 101.144 90.5787C101.115 90.6502 101.066 90.7121 101.004 90.7573C100.941 90.8026 100.867 90.8294 100.79 90.8346C100.713 90.8398 100.636 90.8233 100.568 90.787L93.6859 87.1689C93.627 87.1376 93.5612 87.1212 93.4944 87.1212C93.4277 87.1212 93.3619 87.1376 93.3029 87.1689L86.421 90.787C86.3529 90.8233 86.2759 90.8398 86.1989 90.8346C86.1219 90.8294 86.0479 90.8026 85.9854 90.7573C85.9228 90.7121 85.8743 90.6502 85.8452 90.5787C85.8161 90.5072 85.8077 90.4289 85.821 90.3529L87.136 82.6899C87.1471 82.6242 87.142 82.5567 87.1213 82.4933C87.1006 82.4299 87.0648 82.3724 87.0169 82.3259L81.4489 76.8979C81.3947 76.8442 81.3564 76.7765 81.3385 76.7023C81.3205 76.6281 81.3235 76.5503 81.3472 76.4777C81.3708 76.4051 81.4142 76.3404 81.4724 76.291C81.5306 76.2416 81.6015 76.2095 81.6769 76.198L89.377 75.08C89.443 75.0704 89.5057 75.0449 89.5598 75.0057C89.6138 74.9665 89.6574 74.9148 89.687 74.855L93.128 67.882C93.1626 67.8146 93.2151 67.758 93.2797 67.7185C93.3444 67.679 93.4187 67.6582 93.4944 67.6582C93.5702 67.6582 93.6445 67.679 93.7092 67.7185C93.7738 67.758 93.8264 67.8146 93.861 67.882Z"></path>
<path fill="#27463A" d="M109.235 95.5022L110.8 98.6732C110.811 98.6947 110.826 98.7133 110.846 98.7274C110.865 98.7415 110.887 98.7508 110.911 98.7543L114.411 99.2622C114.438 99.2662 114.464 99.2777 114.485 99.2954C114.506 99.3131 114.521 99.3364 114.53 99.3625C114.538 99.3887 114.539 99.4166 114.532 99.4432C114.526 99.4699 114.512 99.4942 114.492 99.5133L111.96 101.981C111.943 101.998 111.93 102.019 111.923 102.042C111.915 102.064 111.914 102.089 111.918 102.112L112.518 105.596C112.523 105.623 112.52 105.651 112.509 105.677C112.499 105.702 112.482 105.724 112.459 105.741C112.437 105.757 112.411 105.766 112.383 105.768C112.356 105.77 112.328 105.764 112.304 105.751L109.175 104.106C109.154 104.095 109.13 104.089 109.106 104.089C109.082 104.089 109.058 104.095 109.037 104.106L105.908 105.751C105.884 105.764 105.856 105.769 105.829 105.767C105.802 105.765 105.775 105.756 105.753 105.74C105.731 105.724 105.714 105.702 105.703 105.676C105.693 105.651 105.69 105.623 105.694 105.596L106.294 102.112C106.298 102.089 106.297 102.064 106.289 102.042C106.282 102.019 106.269 101.998 106.252 101.981L103.72 99.5133C103.7 99.4942 103.686 99.4699 103.68 99.4432C103.673 99.4166 103.674 99.3887 103.682 99.3625C103.691 99.3364 103.706 99.3131 103.727 99.2954C103.748 99.2777 103.774 99.2662 103.801 99.2622L107.301 98.7543C107.325 98.7506 107.347 98.7413 107.366 98.7272C107.386 98.7131 107.401 98.6946 107.412 98.6732L108.977 95.5022C108.99 95.4793 109.009 95.4603 109.031 95.447C109.054 95.4338 109.08 95.4268 109.106 95.4268C109.132 95.4268 109.158 95.4338 109.181 95.447C109.203 95.4603 109.222 95.4793 109.235 95.5022Z"></path>
<path fill="#27463A" d="M117.478 80.2258L118.32 81.9319C118.33 81.951 118.344 81.9675 118.361 81.9799C118.379 81.9922 118.399 82.0001 118.42 82.0028L120.303 82.2759C120.327 82.2794 120.35 82.2896 120.369 82.3054C120.387 82.3212 120.401 82.342 120.409 82.3654C120.416 82.3887 120.417 82.4137 120.411 82.4375C120.405 82.4613 120.393 82.4829 120.375 82.4999L119.013 83.8279C118.998 83.8428 118.987 83.8611 118.98 83.8813C118.974 83.9016 118.972 83.923 118.976 83.9438L119.298 85.8188C119.302 85.8429 119.299 85.8676 119.29 85.8903C119.281 85.9129 119.266 85.9325 119.246 85.9469C119.226 85.9613 119.203 85.9698 119.178 85.9716C119.154 85.9733 119.13 85.9683 119.108 85.9569L117.423 85.0719C117.404 85.0617 117.383 85.0563 117.362 85.0563C117.341 85.0563 117.32 85.0617 117.301 85.0719L115.617 85.9569C115.595 85.9683 115.571 85.9733 115.547 85.9716C115.522 85.9698 115.499 85.9613 115.479 85.9469C115.459 85.9325 115.444 85.9129 115.435 85.8903C115.426 85.8676 115.423 85.8429 115.427 85.8188L115.748 83.9438C115.752 83.923 115.75 83.9016 115.744 83.8813C115.737 83.8611 115.726 83.8428 115.711 83.8279L114.349 82.4999C114.331 82.4828 114.319 82.4611 114.313 82.4373C114.307 82.4134 114.308 82.3884 114.315 82.365C114.323 82.3416 114.337 82.3209 114.356 82.3052C114.375 82.2894 114.398 82.2793 114.422 82.2759L116.304 82.0028C116.325 82 116.345 81.9921 116.363 81.9797C116.38 81.9674 116.394 81.951 116.404 81.9319L117.246 80.2258C117.257 80.2047 117.274 80.1869 117.294 80.1746C117.315 80.1622 117.338 80.1558 117.362 80.1558C117.386 80.1558 117.409 80.1622 117.43 80.1746C117.45 80.1869 117.467 80.2047 117.478 80.2258Z"></path>
</svg>
