<svg xmlns="http://www.w3.org/2000/svg" fill="none" viewBox="0 0 233 228" height="228" width="233">
<mask height="118" width="118" y="47" x="57" maskUnits="userSpaceOnUse" style="mask-type:luminance" id="mask0_1670_14757">
<path fill="white" d="M174.869 47.6118H57.854V164.264H174.869V47.6118Z"></path>
</mask>
<g mask="url(#mask0_1670_14757)">
<path fill="#27463A" d="M131.428 62.4358C131.428 65.3677 130.559 68.2338 128.93 70.6716C127.301 73.1094 124.986 75.0094 122.277 76.1314C119.568 77.2534 116.588 77.547 113.712 76.975C110.836 76.403 108.195 74.9911 106.122 72.918C104.049 70.8448 102.637 68.2034 102.065 65.3278C101.493 62.4523 101.786 59.4716 102.908 56.7629C104.03 54.0542 105.93 51.739 108.368 50.1101C110.806 48.4812 113.672 47.6118 116.604 47.6118C120.536 47.6118 124.306 49.1736 127.086 51.9537C129.866 54.7337 131.428 58.5042 131.428 62.4358Z"></path>
<path fill="#27463A" d="M170.884 121.205C167.284 120.478 158.554 118.555 157.104 118.012C154.723 117.118 152.589 115.669 150.881 113.785C148.007 110.91 144.112 98.1846 143.447 96.3146C142.782 94.4446 140.726 87.3706 136.979 84.8326C135.169 83.7051 133.128 83.0018 131.008 82.7756C130.119 82.6551 129.224 82.592 128.327 82.5866C120.272 82.1546 107.203 82.5026 104.245 82.5866C104.133 82.5866 104.012 82.5956 103.882 82.5986L103.602 82.6076C100.834 82.6489 98.1257 83.4147 95.746 84.8286C91.996 87.3666 89.946 94.4366 89.278 96.3106C88.61 98.1846 84.713 110.91 81.842 113.785C80.1335 115.67 77.9993 117.121 75.617 118.016C74.169 118.56 65.443 120.483 61.84 121.209C55.611 122.464 56.627 129.64 65.285 129.075C73.185 128.559 76.043 128.653 83.595 125.575C91.147 122.497 96.832 115.842 98.04 111.675L98.052 111.625L100.217 131.725C100.217 131.725 104.476 135.81 116.029 136.242C127.582 136.674 132.882 131.812 132.882 131.812L134.848 112.085C136.286 116.269 141.807 122.585 149.125 125.57C156.68 128.652 159.535 128.558 167.438 129.07C176.096 129.635 177.112 122.459 170.883 121.204"></path>
<path fill="#27463A" d="M161.44 138.064C161.44 132.656 156.793 128.272 151.058 128.272C149.944 128.283 148.838 128.468 147.781 128.819C147.7 128.841 147.623 128.862 147.542 128.887C147.287 128.974 147.029 129.055 146.784 129.16C145.84 129.541 144.936 130.013 144.084 130.57C140.994 132.56 137.75 134.301 134.384 135.776C128.705 138.285 122.564 139.581 116.355 139.581C110.147 139.581 104.006 138.285 98.327 135.776C94.9606 134.301 91.717 132.56 88.627 130.57C88.562 130.527 88.5 130.495 88.434 130.455C86.5771 129.039 84.3069 128.272 81.972 128.271C76.241 128.271 71.59 132.654 71.59 138.063C71.6 139.411 71.8965 140.741 72.46 141.965C73.0234 143.189 73.8408 144.279 74.858 145.163V145.182C74.858 145.182 75.004 145.294 75.265 145.482C75.7098 145.842 76.1838 146.164 76.682 146.445C81.4413 149.617 86.7594 151.856 92.354 153.045C92.354 153.045 81.618 155.645 78.788 157.055C75.958 158.465 75.25 160.832 75.84 162.482C76.43 164.132 79.226 165.082 83.606 163.308C87.281 161.826 107.812 159.925 114.351 159.35C115.682 159.232 117.02 159.232 118.351 159.35C124.89 159.925 145.421 161.826 149.096 163.308C153.476 165.079 156.275 164.134 156.862 162.482C157.449 160.83 156.744 158.472 153.914 157.055C151.084 155.638 140.348 153.045 140.348 153.045C145.528 151.957 150.473 149.952 154.948 147.124C156.819 146.448 158.44 145.22 159.596 143.601C160.753 141.983 161.389 140.051 161.422 138.062"></path>
</g>
</svg>
