<svg xmlns="http://www.w3.org/2000/svg" fill="none" viewBox="0 0 233 228" height="228" width="233">
<mask height="111" width="85" y="54" x="73" maskUnits="userSpaceOnUse" style="mask-type:luminance" id="mask0_1670_14783">
<path fill="white" d="M157.982 54.4619H73.5601V164.462H157.982V54.4619Z"></path>
</mask>
<g mask="url(#mask0_1670_14783)">
<path fill="#27463A" d="M157.982 150.21L157.831 146.988C157.831 137.344 151.823 134.799 141.522 133.188C140.48 133.025 139.516 132.828 138.622 132.607C147.243 130.856 151.369 121.937 151.369 121.937C147.252 121.937 144.446 118.355 144.446 118.355C150.06 118.355 152.305 108.317 152.305 108.317C152.305 108.317 146.13 111.872 146.13 101.778C146.13 91.6839 140.296 75.2619 140.296 75.2619V75.2679C136.874 63.1829 127.153 54.4619 115.686 54.4619C104.294 54.4619 94.6261 63.0699 91.1491 75.0299L91.1431 75.0239C91.1431 75.0239 85.9091 91.6869 85.9091 101.782C85.9091 111.877 79.7341 108.321 79.7341 108.321C79.7341 108.321 81.9801 116.928 87.5931 116.928C87.5931 116.928 84.7861 121.94 80.6701 121.94C80.6701 121.94 83.4481 129.553 89.8231 133.223C79.6601 134.833 73.7111 137.407 73.7111 146.988L73.5601 150.21C85.6898 159.454 100.519 164.461 115.77 164.461C131.021 164.461 145.85 159.454 157.98 150.21H157.982Z"></path>
</g>
</svg>
